<svg width="920" height="616" viewBox="0 0 920 616" fill="none" xmlns="http://www.w3.org/2000/svg">
<g opacity="0.5">
<path opacity="0.5" d="M399.871 321.605L373.152 322.156L368.784 328.155V348.886L374.238 352.704H399.871L405.325 346.705V327.061L399.871 321.605Z" fill="#A8CF45"/>
<path opacity="0.2" d="M399.312 324.88C399.312 324.88 374.773 328.698 372.593 324.88L373.144 322.156L399.312 321.581V324.88Z" fill="white"/>
<path opacity="0.5" d="M402.051 381.615L406.411 385.985V406.755L402.051 411.053C402.051 411.053 386.24 416.509 375.875 412.139L370.964 407.234V386.464L375.332 381.551L402.051 381.615Z" fill="#A8CF45"/>
<path opacity="0.2" d="M400.957 386.528C400.957 386.528 381.872 390.89 375.332 386.528V381.615H402.051L400.957 386.528Z" fill="white"/>
<path opacity="0.5" d="M391.686 352.56V382.07C391.624 383.239 391.102 384.335 390.234 385.12C389.366 385.904 388.223 386.313 387.054 386.256V386.256C385.886 386.313 384.743 385.904 383.875 385.12C383.007 384.335 382.485 383.239 382.423 382.07V352.56C382.423 350.052 384.818 348.111 387.597 348.398C388.672 348.464 389.685 348.926 390.44 349.695C391.195 350.463 391.638 351.484 391.686 352.56V352.56Z" fill="#A8CF45"/>
<path opacity="0.5" d="M442.664 322.451L415.945 322.995L411.577 328.994V349.724L417.031 353.543H442.664L448.118 347.544V327.9L442.664 322.451Z" fill="#A8CF45"/>
<path opacity="0.2" d="M442.113 325.719C442.113 325.719 417.574 329.537 415.394 325.719L415.937 322.995L442.113 322.451V325.719Z" fill="white"/>
<path opacity="0.5" d="M444.828 382.454L449.188 386.823V407.594L444.828 411.916C444.828 411.916 429.009 417.372 418.652 413.002L413.741 408.097V387.367L418.109 382.454H444.828Z" fill="#A8CF45"/>
<path opacity="0.2" d="M443.75 387.367C443.75 387.367 424.665 391.728 418.125 387.367V382.454H444.828L443.75 387.367Z" fill="white"/>
<path opacity="0.5" d="M434.447 353.399V382.909C434.383 384.077 433.86 385.172 432.993 385.956C432.125 386.74 430.984 387.149 429.816 387.095V387.095C428.647 387.152 427.503 386.743 426.633 385.959C425.764 385.175 425.24 384.078 425.176 382.909V353.399C425.176 350.891 427.572 348.95 430.359 349.237C431.434 349.303 432.446 349.765 433.201 350.533C433.956 351.302 434.4 352.323 434.447 353.399V353.399Z" fill="#A8CF45"/>
<path opacity="0.5" d="M497.14 338.229L475.14 338.684L471.547 343.621V360.685L476.035 363.832H497.14L501.627 358.887V342.718L497.14 338.229Z" fill="#A8CF45"/>
<path opacity="0.2" d="M496.684 340.929C496.684 340.929 476.49 344.068 474.693 340.929L475.14 338.684L496.7 338.229L496.684 340.929Z" fill="white"/>
<path opacity="0.5" d="M498.928 387.63L502.522 391.225V408.289L498.928 411.884C498.928 411.884 485.912 416.373 477.368 412.778L473.328 408.736V391.672L476.921 387.63H498.928Z" fill="#A8CF45"/>
<path opacity="0.2" d="M498.034 391.672C498.034 391.672 482.319 395.267 476.937 391.672V387.63H498.928L498.034 391.672Z" fill="white"/>
<path opacity="0.5" d="M490.4 363.712V388.006C490.348 388.968 489.918 389.871 489.202 390.516C488.487 391.161 487.545 391.497 486.583 391.449V391.449C485.622 391.497 484.681 391.161 483.967 390.515C483.252 389.87 482.824 388.967 482.774 388.006V363.712C482.804 363.199 482.942 362.697 483.178 362.239C483.414 361.782 483.743 361.379 484.143 361.056C484.544 360.733 485.008 360.498 485.505 360.365C486.002 360.233 486.522 360.205 487.03 360.285C487.916 360.34 488.75 360.72 489.372 361.352C489.994 361.985 490.36 362.826 490.4 363.712Z" fill="#A8CF45"/>
<path opacity="0.5" d="M532.363 338.924L510.363 339.371L506.778 344.308V361.38L511.266 364.519H532.363L536.85 359.582V343.413L532.363 338.924Z" fill="#A8CF45"/>
<path opacity="0.2" d="M531.915 341.616C531.915 341.616 511.713 344.763 509.916 341.616L510.363 339.371L531.923 338.924L531.915 341.616Z" fill="white"/>
<path opacity="0.5" d="M534.159 388.325L537.745 391.912V408.976L534.159 412.571C534.159 412.571 521.135 417.06 512.599 413.473L508.566 409.455V392.367L512.16 388.325H534.159Z" fill="#A8CF45"/>
<path opacity="0.2" d="M533.257 392.367C533.257 392.367 517.55 395.954 512.16 392.367V388.325H534.16L533.257 392.367Z" fill="white"/>
<path opacity="0.5" d="M525.631 364.399V388.685C525.579 389.647 525.149 390.55 524.433 391.195C523.718 391.84 522.776 392.176 521.814 392.128C520.852 392.176 519.91 391.84 519.195 391.195C518.479 390.55 518.049 389.647 517.997 388.685V364.399C517.997 362.338 519.993 360.741 522.261 360.98C523.146 361.033 523.98 361.411 524.602 362.043C525.225 362.674 525.591 363.514 525.631 364.399V364.399Z" fill="#A8CF45"/>
</g>
<path d="M837.704 427.086C835.987 423.978 832.777 421.933 829.399 420.991C825.982 420.169 822.448 419.947 818.954 420.336C813.31 420.737 807.716 421.66 802.241 423.092C798.847 423.986 795.326 425.185 793.034 427.885C792.97 427.965 792.898 428.06 792.827 428.14C789.321 429.059 785.839 430.473 782.446 431.623C779.04 432.754 775.574 433.695 772.065 434.443C776.656 431.831 781.128 429.067 784.913 425.376C786.702 423.639 788.308 421.723 789.704 419.657C792.298 420.4 795.02 420.582 797.69 420.192C803.096 419.265 807.464 415.399 811.528 411.628L824.6 399.597C826.684 397.68 828.8 395.715 830.19 393.206C832.066 389.715 832.234 385.561 832.282 381.575C832.346 376.095 832.282 370.615 832.122 365.142L836.259 368.338C835.63 361.588 836.885 354.796 839.884 348.718C841.321 345.818 843.206 342.934 843.246 339.683C843.31 334.666 838.997 330.72 834.582 328.499C830.166 326.278 825.199 324.856 821.582 321.445C816.2 316.372 815.193 308.28 812.534 301.33C810.957 297.524 809.088 293.846 806.945 290.329L801.77 281.302C799.168 276.545 796.266 271.958 793.082 267.57C787.7 260.468 780.921 254.612 774.189 248.821L739.182 218.648C730.669 211.306 722.125 203.957 712.918 197.534C694.24 184.504 673.167 175.557 652.23 166.698C646.96 164.461 641.474 162.192 635.772 162.464C631.477 162.742 627.408 164.485 624.241 167.401C621.241 166.489 618.306 165.373 615.458 164.062L615.234 163.958C615.298 163.486 615.37 163.023 615.418 162.552C615.49 161.929 615.529 161.306 615.577 160.674C617.154 160.431 618.681 159.932 620.097 159.197C620.816 158.857 621.451 158.363 621.958 157.751C622.601 156.684 622.93 155.457 622.908 154.212C623.547 145.864 624.186 137.436 623.499 129.128C622.812 120.819 620.728 112.407 616.312 105.346C614.947 103.157 613.238 101.024 610.866 100.073C607.672 98.7949 603.975 99.9852 600.565 99.41C594.664 98.4114 590.983 92.6357 586.711 88.3777C575.907 77.6011 557.429 75.9795 544.956 84.703C540.228 88.0183 536.443 92.5158 532.227 96.4782C528.011 100.441 523.068 104.027 517.374 104.802C516.325 104.847 515.298 105.119 514.364 105.601C513.198 106.336 512.671 107.75 512.224 109.06C510.627 113.582 509.094 118.223 508.607 122.952C508.551 122.665 508.503 122.377 508.455 122.09C508.238 123.841 508.192 125.61 508.319 127.37C508.479 129.614 509.128 131.795 510.22 133.761C511.129 135.63 512.679 137.11 514.588 137.931C515.938 138.409 517.364 138.639 518.796 138.61H519.427C519.195 139.225 518.972 139.84 518.764 140.463C516.986 145.743 516.082 151.277 516.089 156.848C516.089 184.808 538.392 207.464 565.925 207.464C569.239 207.447 572.542 207.1 575.787 206.425C576.865 206.769 577.943 207.12 578.981 207.496C581.107 208.198 583.191 209.02 585.225 209.956C586.088 210.363 589.577 212.401 593.794 215.029L593.506 215.628C589.393 219.471 586.375 224.34 584.763 229.735C583.15 235.13 583.001 240.857 584.331 246.328C587.381 258.207 597.387 268.393 596.381 280.623C596.237 282.365 595.87 284.13 596.165 285.856C596.572 288.252 598.193 290.201 599.814 291.975C601.22 293.525 602.681 295.027 604.166 296.496C604.047 304.301 603.368 312.098 602.633 319.879C602.569 320.558 602.553 321.245 602.545 321.94C602.588 325.304 603.809 328.546 605.995 331.103C608.311 333.923 609.237 338.149 608.798 341.92C608.167 347.32 605.508 352.217 603.727 357.338C595.694 380.369 605.564 406.34 600.006 430.122C598.641 435.977 596.341 441.673 596.013 447.696C595.83 451.459 596.421 455.405 594.975 458.88C593.722 461.9 591.11 464.081 588.643 466.198C585.156 469.186 581.76 472.275 578.454 475.465C573.457 472.732 568.3 470.304 563.01 468.195C562.148 467.848 561.268 467.544 560.375 467.284C554.131 461.437 546.257 457.698 538.863 453.4C532.73 449.845 526.885 445.851 521.008 441.857C515.418 438.022 509.709 434.156 504.981 429.227C502.586 426.734 500.454 423.986 497.874 421.71C495.607 419.822 493.205 418.102 490.688 416.565C479.358 409.222 468.556 401.094 458.363 392.24C450.594 385.497 444.237 376.814 435.933 370.766C430.846 367.06 424.929 363.68 418.7 364.375C416.717 364.609 414.793 365.202 413.023 366.125C411.372 365.425 409.608 365.03 407.816 364.959C402.754 364.799 398.106 367.547 393.762 370.191C368.209 385.726 342.257 400.569 315.906 414.72C310.588 417.579 305.238 420.415 300.159 423.691C290.25 430.103 281.47 438.112 274.175 447.393C272.833 449.094 271.14 451.028 269.008 450.772C268.425 450.683 267.863 450.482 267.355 450.181C264.073 448.399 262.061 444.956 260.169 441.689C258.795 439.292 257.31 436.792 255.298 434.971C254.867 433.837 254.293 432.763 253.589 431.775C256.424 424.777 258.867 417.611 261.135 410.398C262.317 406.611 263.459 402.801 264.968 399.126C268.689 390.035 274.622 381.799 276.722 372.18C277.225 369.856 277.521 367.467 277.912 365.118C300.87 360.597 318.198 340.082 318.198 315.445C318.198 287.485 295.887 264.83 268.362 264.83C240.836 264.83 218.533 287.485 218.533 315.445C218.509 323.956 220.624 332.336 224.685 339.814C228.745 347.292 234.621 353.629 241.771 358.24C241.771 358.336 241.771 358.432 241.771 358.52C241.723 360.126 241.565 361.728 241.299 363.313C240.381 368.665 238.105 373.698 235.813 378.579C234.296 381.846 232.779 385.13 231.206 388.389C230.451 388.237 229.719 387.991 229.026 387.654C227.677 386.903 227.086 385.258 226.575 383.804C224.313 377.142 221.545 370.663 218.294 364.423C217.026 361.772 215.415 359.298 213.503 357.066C210.133 353.375 205.517 351.186 201.054 348.973C200.255 348.59 199.512 348.175 198.746 347.807C198.083 347.314 197.389 346.863 196.67 346.457C192.957 344.356 188.836 342.846 185.738 339.906C183.414 337.702 181.817 334.834 179.645 332.493C176.028 328.603 171.037 326.382 166.19 324.265C163.667 323.162 161.015 322.036 158.26 322.188C157.872 322.207 157.486 322.249 157.103 322.316C156.44 322.429 155.784 322.578 155.138 322.763C154.509 322.429 153.916 322.033 153.365 321.581C150.403 319.296 149.253 315.373 148.287 311.723C146.69 305.619 145.005 299.3 145.995 293.053C146.167 291.976 146.402 290.909 146.698 289.858C146.945 289.451 147.185 289.059 147.4 288.62C153.758 286.708 159.567 283.304 164.343 278.692C169.119 274.079 172.724 268.391 174.858 262.103C176.991 255.814 177.592 249.106 176.609 242.538C175.627 235.97 173.089 229.732 169.208 224.344C168.801 223.784 168.41 223.241 167.955 222.698L168.434 222.434C172.85 219.734 173.856 213.279 171.811 208.47C169.767 203.661 165.423 200.266 161.023 197.598C160.385 197.206 159.738 196.839 159.083 196.471L158.524 196.168C158.029 195.896 157.542 195.633 157.047 195.369L156.464 195.073C155.881 194.778 155.298 194.498 154.715 194.227L154.451 194.099C153.725 193.771 152.998 193.452 152.264 193.148C151.553 192.853 150.842 192.581 150.123 192.349L149.828 192.237C149.149 191.99 148.463 191.758 147.776 191.534L147.624 191.486C142.601 189.853 137.365 188.97 132.085 188.866C126.916 188.897 121.764 189.467 116.713 190.568C111.796 191.459 106.98 192.842 102.34 194.698C94.67 197.949 87.9083 203.022 82.6399 209.477C81.5294 209.561 80.4285 209.743 79.3499 210.02C75.0299 211.114 71.1411 213.527 67.5876 216.259C64.6113 218.448 61.9744 221.064 59.7621 224.024C57.1565 227.816 55.3598 232.105 54.4838 236.622C51.4574 250.786 55.1785 265.381 57.9175 279.617C60.6564 293.852 62.2375 309.366 55.5219 322.14C52.9905 326.933 49.3972 331.095 46.7381 335.8C44.079 340.506 42.2344 346.185 43.7675 351.402C45.6281 357.737 51.7528 361.723 54.9469 367.475C58.684 374.177 57.6539 383.181 52.7669 389.044C52.5513 389.3 52.3357 389.556 52.1042 389.843C51.8726 390.131 51.5452 390.434 51.2418 390.706C56.2805 392.479 61.8941 390.57 66.4138 387.726C70.0283 385.59 73.0937 382.638 75.3653 379.106C81.0748 369.728 78.5115 357.601 80.5238 346.761C83.1669 332.565 93.8352 319.903 92.3659 305.532C91.3758 295.889 85.0834 287.829 80.1405 279.537C76.8548 273.971 74.101 268.108 71.9156 262.026C71.8278 261.77 71.74 261.506 71.6442 261.227C70.1988 257.113 69.0889 252.751 69.8315 248.445C70.0848 247.05 70.5029 245.691 71.0772 244.395C71.0772 244.547 71.0772 244.706 71.0772 244.858C71.1743 249.023 72.1 253.126 73.8002 256.929C78.791 267.314 90.8008 272.107 98.4268 280.527C98.7462 280.879 99.0496 281.238 99.3531 281.606C99.4409 281.702 99.5208 281.805 99.6006 281.909L100.247 282.708L100.519 283.084C100.719 283.363 100.918 283.643 101.102 283.93L101.349 284.29C101.605 284.697 101.86 285.089 102.1 285.528C104.04 283.379 106.045 281.118 106.827 278.338C106.899 278.099 106.947 277.851 106.995 277.603C107.059 277.667 107.115 277.739 107.179 277.811C107.33 278.666 107.45 279.521 107.562 280.383C107.562 281.616 107.693 282.845 107.953 284.05C108.56 291.719 108.073 299.596 107.562 307.289C107.29 311.403 108.36 317.514 105.741 320.582L105.661 320.67C105.508 320.849 105.34 321.014 105.158 321.165V321.165C104.711 321.629 104.256 322.084 103.833 322.563C95.049 332.469 91.0564 346.529 91.264 359.998C91.4716 375.328 96.3666 390.179 101.916 404.438C103.855 409.644 106.138 414.715 108.752 419.617C110.101 422.263 111.885 424.664 114.03 426.718C116.274 428.708 119.005 430.018 121.696 431.296C122.367 431.615 123.045 431.927 123.716 432.254L125.433 433.053L138.505 439.268C140.9 442.791 143.216 446.41 145.556 450.037C145.891 450.548 146.219 451.076 146.562 451.587C149.117 455.581 151.689 459.575 154.308 463.458L176.339 496.099C177.936 498.496 179.605 500.892 181.849 502.666C182.487 503.168 183.178 503.599 183.909 503.952C184.28 504.131 184.662 504.288 185.051 504.423C184.567 505.15 184.361 506.026 184.468 506.892C184.763 507.741 185.323 508.472 186.065 508.977C191.048 513.099 196.582 517.445 198.147 523.78C199.257 528.293 198.147 533.126 199.145 537.664C200.974 545.844 209.063 550.805 216.713 553.953C233.857 560.999 252.902 563.707 271.116 560.431C289.331 557.156 306.635 547.706 318.429 533.27C322.055 528.813 325.145 523.948 328.586 519.346C330.982 516.103 333.617 513.011 336.34 510.031C339.278 508.687 342.111 507.122 344.813 505.35C350.57 501.524 355.529 496.611 360.783 492.057C364.704 488.638 368.808 485.411 372.41 481.672C375.643 478.126 378.664 474.391 381.457 470.488C387.845 462.02 394.444 453.72 401.253 445.587C404.894 441.234 408.751 436.8 413.837 434.403L414.069 434.308C414.676 437.886 417.511 440.922 419.499 444.014C427.724 456.795 436.332 469.953 449.044 478.101C456.008 482.559 463.881 485.291 471.739 487.783C491.702 494.094 511.984 499.047 532.283 504.008C532.954 502.73 533.608 501.548 534.343 500.397C534.658 500.73 534.951 501.082 535.222 501.452C535.309 501.579 535.381 501.715 535.469 501.843C535.322 501.872 535.178 501.912 535.038 501.963C533.735 502.57 532.71 503.649 532.171 504.983C529.983 509.368 529.776 514.457 529.672 519.362C529.6 524.155 529.672 528.948 529.672 533.742C529.555 535.531 529.828 537.324 530.47 538.998C532.019 542.193 535.956 543.384 539.478 543.791C545.594 544.47 551.759 543.895 557.844 543.072C558.195 544.508 558.769 545.88 559.545 547.138C562.962 552.73 568.864 556.421 575.004 558.586C581.145 560.751 587.653 561.614 594.033 562.884C605.364 565.137 616.959 568.74 628.226 566.199C632.722 565.185 637.01 563.219 641.506 562.357C651.799 560.407 662.467 564.354 672.832 562.772C677.839 561.973 682.574 559.976 687.109 557.683C689.396 556.68 691.469 555.248 693.218 553.465C694.879 551.596 695.877 548.944 695.191 546.523C694.799 545.133 693.905 543.951 693.306 542.641C692.503 540.545 692.047 538.333 691.957 536.09C691.123 527.606 689.687 519.191 687.66 510.91C687.605 510.678 687.541 510.439 687.477 510.199C695.31 507.092 702.329 502.211 709.261 497.354L724.169 486.92C728.96 483.541 733.871 480.146 739.253 477.781C747.51 474.155 756.653 473.116 765.653 473.124C769.334 473.124 773.023 473.308 776.688 473.643C776.221 474.153 775.87 474.758 775.658 475.417C774.924 477.702 776.089 480.21 777.822 481.88C779.555 483.549 781.815 484.492 783.851 485.65C789.477 488.819 794.162 493.426 797.426 498.999C799.47 502.506 800.956 506.764 799.662 510.623C798.065 515.464 792.371 518.803 792.699 523.9C792.891 526.903 795.31 529.388 798.065 530.498C800.82 531.609 803.878 531.593 806.849 531.505C811.712 531.353 816.719 530.977 821.071 528.765C824.001 527.271 826.485 525.018 828.92 522.789C831.14 520.752 833.408 518.635 834.669 515.887C835.851 513.299 836.035 510.367 836.091 507.523C836.33 494.134 834.023 480.562 836.682 467.444C837.48 463.45 838.758 459.543 839.437 455.517C840.507 449.126 840.099 442.672 839.692 436.249C839.493 433.085 839.253 429.826 837.704 427.086Z" fill="url(#paint0_linear)"/>
<path opacity="0.06" d="M668.991 241.918C665.852 244.035 664.758 248.126 664.359 251.896C662.658 267.929 669.27 283.803 668.831 299.916C668.48 312.737 663.704 324.968 658.993 336.895C650.96 357.242 646.776 379.338 645.155 401.155C643.534 422.972 641.162 445.691 629.455 464.145C626.796 468.323 623.698 472.205 621.095 476.407C618.364 480.801 616.2 485.514 613.788 490.084C606.683 503.579 597.524 515.888 586.638 526.568C583.444 529.683 580.059 532.703 575.986 534.5C573.362 535.64 570.536 536.242 567.675 536.272C564.814 536.302 561.977 535.76 559.329 534.676C553.867 532.415 549.267 527.319 549.044 521.407C548.844 516.119 551.998 511.35 555.16 507.116C565.878 492.771 578.202 479.702 591.893 468.163C594.376 466.07 596.995 463.905 598.281 460.918C599.726 457.474 599.135 453.568 599.319 449.837C599.614 443.886 601.93 438.238 603.312 432.438C608.901 408.88 598.968 383.157 607.049 360.333C608.845 355.261 611.513 350.411 612.143 345.067C612.591 341.328 611.664 337.15 609.325 334.346C607.134 331.827 605.908 328.611 605.867 325.271C605.867 324.584 605.867 323.905 605.947 323.234C606.921 312.777 607.887 302.272 607.36 291.783C606.833 281.294 604.749 270.749 599.91 261.427C597.403 256.593 594.161 252.072 592.611 246.855C590.12 238.411 592.42 229.28 596.133 221.292C599.032 215.045 602.896 209.093 608.294 204.811C618.324 196.863 633.336 195.944 644.316 202.519C652.413 207.36 657.955 215.5 662.451 223.8C665.677 229.864 669.038 235 668.991 241.918Z" fill="black"/>
<path d="M642.376 178.249C640.842 182.387 639.317 186.526 637.8 190.664C636.794 193.38 635.796 196.12 634.758 198.836C629.966 211.354 624.608 223.672 616.224 234.034C617.478 232.484 605.683 224.687 596.987 219.367C592.747 216.754 589.234 214.741 588.371 214.342C586.321 213.415 584.224 212.599 582.087 211.897C578.773 210.779 575.419 209.812 572.105 208.606C564.439 205.834 569.797 201.672 573.079 197.198C583.82 182.547 585.856 162.528 598.049 149.067C602.521 157.567 609.595 164.412 618.236 168.599C618.404 168.687 618.579 168.767 618.755 168.839C625.998 172.226 633.999 173.688 641.489 176.524C641.897 176.676 642.368 176.891 642.503 177.323C642.554 177.637 642.51 177.96 642.376 178.249Z" fill="#A1616A"/>
<path d="M621.526 474.163C618.057 479.134 615.898 484.901 615.249 490.93C614.6 496.958 615.482 503.053 617.813 508.649C618.402 510.213 619.32 511.633 620.504 512.811C622.011 513.99 623.767 514.809 625.639 515.208C641.497 519.722 658.426 518.835 674.668 516.007C680.17 515.16 685.578 513.782 690.814 511.893C698.856 508.817 706.034 503.904 713.125 498.999L728.122 488.662C732.977 485.315 737.872 481.952 743.294 479.603C751.598 476.016 760.797 474.985 769.845 474.993C777.616 475.003 785.369 475.744 793.002 477.206C798.089 478.189 804.181 479.203 807.759 475.489C809.803 473.388 810.41 470.312 810.809 467.412C812.389 456.129 812.359 444.679 810.721 433.405C810.681 432.456 810.337 431.546 809.739 430.809C809.175 430.33 808.49 430.017 807.759 429.906C800.692 428.308 793.601 431.623 786.734 433.9C772.464 438.645 757.14 439.213 742.623 443.119C727.387 447.217 713.077 454.974 697.33 456.548C689.824 457.299 682.286 456.644 674.764 456.811C667.785 456.963 661.277 459.376 654.441 459.663C641.266 460.246 629.807 462.547 621.526 474.163Z" fill="#A1616A"/>
<path opacity="0.06" d="M621.526 474.163C618.057 479.134 615.898 484.901 615.249 490.93C614.6 496.958 615.482 503.053 617.813 508.649C618.402 510.213 619.32 511.633 620.504 512.811C622.011 513.99 623.767 514.809 625.639 515.208C641.497 519.722 658.426 518.835 674.668 516.007C680.17 515.16 685.578 513.782 690.814 511.893C698.856 508.817 706.034 503.904 713.125 498.999L728.122 488.662C732.977 485.315 737.872 481.952 743.294 479.603C751.598 476.016 760.797 474.985 769.845 474.993C777.616 475.003 785.369 475.744 793.002 477.206C798.089 478.189 804.181 479.203 807.759 475.489C809.803 473.388 810.41 470.312 810.809 467.412C812.389 456.129 812.359 444.679 810.721 433.405C810.681 432.456 810.337 431.546 809.739 430.809C809.175 430.33 808.49 430.017 807.759 429.906C800.692 428.308 793.601 431.623 786.734 433.9C772.464 438.645 757.14 439.213 742.623 443.119C727.387 447.217 713.077 454.974 697.33 456.548C689.824 457.299 682.286 456.644 674.764 456.811C667.785 456.963 661.277 459.376 654.441 459.663C641.266 460.246 629.807 462.547 621.526 474.163Z" fill="black"/>
<path d="M634.415 457.275C634.039 459.04 633.704 460.91 634.231 462.635C634.885 464.332 635.989 465.818 637.425 466.933C651 479.092 670.396 481.608 688.531 483.581C693.442 484.116 698.441 484.652 703.304 483.765C707.735 482.966 711.872 481.009 715.952 479.076C724.736 474.914 733.568 470.704 741.098 464.584C748.484 458.593 754.409 450.924 762.059 445.276C770.755 438.885 781.448 435.226 789.209 427.701C794.821 422.285 798.551 415.213 799.854 407.522C800.732 402.273 800.445 396.913 799.854 391.625C799.223 385.545 798.209 379.362 795.318 373.978C791.972 367.747 786.351 363.041 780.418 359.175C767.865 351.011 753.084 345.946 738.096 346.074C717.334 346.257 698.169 358.344 683.269 371.917C667.508 386.292 654.751 403.65 645.738 422.988C640.649 433.94 636.849 445.446 634.415 457.275V457.275Z" fill="#464353"/>
<path opacity="0.06" d="M634.415 457.275C634.039 459.04 633.704 460.91 634.231 462.635C634.885 464.332 635.989 465.818 637.425 466.933C651 479.092 670.396 481.608 688.531 483.581C693.442 484.116 698.441 484.652 703.304 483.765C707.735 482.966 711.872 481.009 715.952 479.076C724.736 474.914 733.568 470.704 741.098 464.584C748.484 458.593 754.409 450.924 762.059 445.276C770.755 438.885 781.448 435.226 789.209 427.701C794.821 422.285 798.551 415.213 799.854 407.522C800.732 402.273 800.445 396.913 799.854 391.625C799.223 385.545 798.209 379.362 795.318 373.978C791.972 367.747 786.351 363.041 780.418 359.175C767.865 351.011 753.084 345.946 738.096 346.074C717.334 346.257 698.169 358.344 683.269 371.917C667.508 386.292 654.751 403.65 645.738 422.988C640.649 433.94 636.849 445.446 634.415 457.275V457.275Z" fill="black"/>
<path d="M668.991 241.918C665.852 244.035 664.758 248.126 664.359 251.896C662.658 267.929 669.27 283.803 668.831 299.916C668.48 312.737 663.704 324.968 658.993 336.895C650.96 357.242 646.776 379.338 645.155 401.155C643.534 422.972 641.162 445.691 629.455 464.145C626.796 468.323 623.698 472.205 621.095 476.407C618.364 480.801 616.2 485.514 613.788 490.084C606.683 503.579 597.524 515.888 586.638 526.568C583.444 529.683 580.059 532.703 575.986 534.5C573.362 535.64 570.536 536.242 567.675 536.272C564.814 536.302 561.977 535.76 559.329 534.676C553.867 532.415 549.267 527.319 549.044 521.407C548.844 516.119 551.998 511.35 555.16 507.116C565.878 492.771 578.202 479.702 591.893 468.163C594.376 466.07 596.995 463.905 598.281 460.918C599.726 457.474 599.135 453.568 599.319 449.837C599.614 443.886 601.93 438.238 603.312 432.438C608.901 408.88 598.968 383.157 607.049 360.333C608.845 355.261 611.513 350.411 612.143 345.067C612.591 341.328 611.664 337.15 609.325 334.346C607.134 331.827 605.908 328.611 605.867 325.271C605.867 324.584 605.867 323.905 605.947 323.234C606.921 312.777 607.887 302.272 607.36 291.783C606.833 281.294 604.749 270.749 599.91 261.427C597.403 256.593 594.161 252.072 592.611 246.855C590.12 238.411 592.42 229.28 596.133 221.292C599.032 215.045 602.896 209.093 608.294 204.811C618.324 196.863 633.336 195.944 644.316 202.519C652.413 207.36 657.955 215.5 662.451 223.8C665.677 229.864 669.038 235 668.991 241.918Z" fill="#A1616A"/>
<path d="M624.872 295.586C641.565 295.586 655.096 274.344 655.096 248.142C655.096 221.939 641.565 200.697 624.872 200.697C608.18 200.697 594.648 221.939 594.648 248.142C594.648 274.344 608.18 295.586 624.872 295.586Z" fill="#A1616A"/>
<path d="M547.79 496.067C548.683 497.326 549.289 498.765 549.565 500.284C549.841 501.802 549.78 503.362 549.387 504.855C552.236 506.901 555.699 507.911 559.201 507.715C562.677 507.525 566.094 506.739 569.303 505.39C572.094 504.372 574.736 502.986 577.16 501.268C581.328 498.184 584.347 493.775 586.743 489.205C588.092 486.681 589.242 483.413 587.541 481.145C586.872 480.375 586.058 479.745 585.145 479.291C578.993 475.78 572.587 472.733 565.981 470.176C564.167 469.34 562.196 468.899 560.199 468.882C557.748 469.018 555.52 470.36 553.572 471.862C549.193 475.269 545.661 479.643 543.255 484.644C542.504 486.241 540.236 490.036 541.362 491.682C541.873 492.44 543.758 492.704 544.556 493.183C545.826 493.905 546.928 494.888 547.79 496.067V496.067Z" fill="#FBBEBE"/>
<path opacity="0.03" d="M547.79 496.067C548.683 497.326 549.289 498.765 549.565 500.284C549.841 501.802 549.78 503.362 549.387 504.855C552.236 506.901 555.699 507.911 559.201 507.715C562.677 507.525 566.094 506.739 569.303 505.39C572.094 504.372 574.736 502.986 577.16 501.268C581.328 498.184 584.347 493.775 586.743 489.205C588.092 486.681 589.242 483.413 587.541 481.145C586.872 480.375 586.058 479.745 585.145 479.291C578.993 475.78 572.587 472.733 565.981 470.176C564.167 469.34 562.196 468.899 560.199 468.882C557.748 469.018 555.52 470.36 553.572 471.862C549.193 475.269 545.661 479.643 543.255 484.644C542.504 486.241 540.236 490.036 541.362 491.682C541.873 492.44 543.758 492.704 544.556 493.183C545.826 493.905 546.928 494.888 547.79 496.067V496.067Z" fill="black"/>
<path d="M580.857 477.558C594.368 480.066 606.793 486.601 620.073 490.124C625.447 491.546 630.981 492.52 636.115 494.613C641.25 496.706 646.089 500.285 648.301 505.382C649.236 507.828 649.856 510.384 650.145 512.987C650.72 516.67 651.191 520.784 649.003 523.804C646.696 526.999 642.336 527.702 638.431 528.173C624.393 529.843 610.355 531.521 596.269 532.703C593.417 532.876 590.577 533.215 587.764 533.718C585.449 534.181 583.189 534.884 580.889 535.427C577.911 536.122 574.884 536.561 571.866 537.025C564.144 538.135 556.334 539.246 548.581 538.399C545.043 538.007 541.082 536.865 539.525 533.67C538.879 532.013 538.606 530.235 538.727 528.461C538.687 523.716 538.647 518.979 538.727 514.241C538.799 509.376 539.038 504.328 541.242 499.99C541.789 498.662 542.819 497.591 544.125 496.994C544.928 496.764 545.768 496.688 546.6 496.77C550.753 496.914 555.049 497.09 558.762 498.943C561.708 500.405 564.104 502.842 567.106 504.168C572.792 506.692 579.651 504.879 585.409 507.251C586.75 503.113 586.447 498.927 585.449 494.685C584.45 490.443 583.053 486.281 582.63 481.951C582.613 481 582.429 480.059 582.087 479.171C581.656 478.285 581.799 477.422 580.857 477.558Z" fill="#464353"/>
<path opacity="0.06" d="M580.857 477.558C594.368 480.066 606.793 486.601 620.073 490.124C625.447 491.546 630.981 492.52 636.115 494.613C641.25 496.706 646.089 500.285 648.301 505.382C649.236 507.828 649.856 510.384 650.145 512.987C650.72 516.67 651.191 520.784 649.003 523.804C646.696 526.999 642.336 527.702 638.431 528.173C624.393 529.843 610.355 531.521 596.269 532.703C593.417 532.876 590.577 533.215 587.764 533.718C585.449 534.181 583.189 534.884 580.889 535.427C577.911 536.122 574.884 536.561 571.866 537.025C564.144 538.135 556.334 539.246 548.581 538.399C545.043 538.007 541.082 536.865 539.525 533.67C538.879 532.013 538.606 530.235 538.727 528.461C538.687 523.716 538.647 518.979 538.727 514.241C538.799 509.376 539.038 504.328 541.242 499.99C541.789 498.662 542.819 497.591 544.125 496.994C544.928 496.764 545.768 496.688 546.6 496.77C550.753 496.914 555.049 497.09 558.762 498.943C561.708 500.405 564.104 502.842 567.106 504.168C572.792 506.692 579.651 504.879 585.409 507.251C586.75 503.113 586.447 498.927 585.449 494.685C584.45 490.443 583.053 486.281 582.63 481.951C582.613 481 582.429 480.059 582.087 479.171C581.656 478.285 581.799 477.422 580.857 477.558Z" fill="black"/>
<path d="M129.521 341.344C126.798 340.482 124.171 342.894 122.646 345.339C116.306 355.308 116.825 368.617 121.895 379.29C123.102 381.997 124.766 384.475 126.814 386.616C129.561 389.324 133.099 391.057 136.397 393.007C145.548 398.415 153.39 405.78 159.362 414.576C163.267 420.336 166.342 426.671 170.773 432.031C181.681 445.228 199.608 451.203 210.189 464.624C212.72 467.82 214.86 471.526 218.238 473.851C220.246 475.232 222.586 476.052 225.016 476.226C227.447 476.4 229.88 475.921 232.064 474.84C234.248 473.758 236.103 472.113 237.439 470.074C238.775 468.036 239.542 465.677 239.662 463.242C243.775 457.195 247.137 450.516 250.339 443.934C255.076 433.887 259.079 423.509 262.317 412.882C263.506 409.128 264.656 405.349 266.173 401.698C269.919 392.687 275.884 384.531 277.992 375.008C278.838 371.19 279.046 367.219 280.275 363.513C281.377 360.186 283.261 357.172 285.769 354.725C294.074 346.649 298.546 334.882 305.15 325.375C307.833 321.533 310.62 317.698 312.392 313.352C314.165 309.007 314.844 304.03 313.191 299.636C311.538 295.242 307.218 291.695 302.538 291.943C300.444 292.16 298.413 292.784 296.557 293.78C290.109 296.842 284.193 300.92 279.038 305.859C276.783 308.03 274.651 310.323 272.65 312.729C262.892 324.393 255.258 338.548 254.587 353.743C254.363 358.951 254.778 364.727 251.473 368.761C242.353 379.905 239.423 395.227 231.645 407.354C228.044 412.946 223.915 418.738 217.759 421.286C216.849 421.724 215.843 421.922 214.836 421.861C212.377 421.582 210.963 418.993 209.925 416.741C205.868 407.954 201.174 399.477 195.879 391.377C193.787 388.181 191.479 384.906 188.133 383.029C185.85 381.759 183.198 381.191 181.05 379.706C178.056 377.637 176.491 374.114 174.934 370.814C169.887 360.158 163.497 350.193 155.921 341.161C152.455 337.031 147.888 332.765 142.537 333.38C137.443 333.979 134.329 339.339 129.521 341.344Z" fill="#FBBEBE"/>
<path opacity="0.03" d="M129.521 341.344C126.798 340.482 124.171 342.894 122.646 345.339C116.306 355.308 116.825 368.617 121.895 379.29C123.102 381.997 124.766 384.475 126.814 386.616C129.561 389.324 133.099 391.057 136.397 393.007C145.548 398.415 153.39 405.78 159.362 414.576C163.267 420.336 166.342 426.671 170.773 432.031C181.681 445.228 199.608 451.203 210.189 464.624C212.72 467.82 214.86 471.526 218.238 473.851C220.246 475.232 222.586 476.052 225.016 476.226C227.447 476.4 229.88 475.921 232.064 474.84C234.248 473.758 236.103 472.113 237.439 470.074C238.775 468.036 239.542 465.677 239.662 463.242C243.775 457.195 247.137 450.516 250.339 443.934C255.076 433.887 259.079 423.509 262.317 412.882C263.506 409.128 264.656 405.349 266.173 401.698C269.919 392.687 275.884 384.531 277.992 375.008C278.838 371.19 279.046 367.219 280.275 363.513C281.377 360.186 283.261 357.172 285.769 354.725C294.074 346.649 298.546 334.882 305.15 325.375C307.833 321.533 310.62 317.698 312.392 313.352C314.165 309.007 314.844 304.03 313.191 299.636C311.538 295.242 307.218 291.695 302.538 291.943C300.444 292.16 298.413 292.784 296.557 293.78C290.109 296.842 284.193 300.92 279.038 305.859C276.783 308.03 274.651 310.323 272.65 312.729C262.892 324.393 255.258 338.548 254.587 353.743C254.363 358.951 254.778 364.727 251.473 368.761C242.353 379.905 239.423 395.227 231.645 407.354C228.044 412.946 223.915 418.738 217.759 421.286C216.849 421.724 215.843 421.922 214.836 421.861C212.377 421.582 210.963 418.993 209.925 416.741C205.868 407.954 201.174 399.477 195.879 391.377C193.787 388.181 191.479 384.906 188.133 383.029C185.85 381.759 183.198 381.191 181.05 379.706C178.056 377.637 176.491 374.114 174.934 370.814C169.887 360.158 163.497 350.193 155.921 341.161C152.455 337.031 147.888 332.765 142.537 333.38C137.443 333.979 134.329 339.339 129.521 341.344Z" fill="black"/>
<path d="M128.962 303.175C140.587 303.175 150.011 294.666 150.011 284.17C150.011 273.674 140.587 265.165 128.962 265.165C117.337 265.165 107.913 273.674 107.913 284.17C107.913 294.666 117.337 303.175 128.962 303.175Z" fill="#FBBEBE"/>
<path d="M148.702 287.845C152.887 287.845 156.28 284.451 156.28 280.264C156.28 276.077 152.887 272.682 148.702 272.682C144.517 272.682 141.124 276.077 141.124 280.264C141.124 284.451 144.517 287.845 148.702 287.845Z" fill="#FBBEBE"/>
<path d="M131.725 284.17C147.738 284.17 160.72 280.697 160.72 276.413C160.72 272.129 147.738 268.656 131.725 268.656C115.712 268.656 102.73 272.129 102.73 276.413C102.73 280.697 115.712 284.17 131.725 284.17Z" fill="#FBBEBE"/>
<path d="M105.869 274.759C106.574 276.997 107.129 279.278 107.53 281.59C105.095 279.117 102.986 276.344 101.253 273.337C100.786 272.819 100.411 272.225 100.143 271.58C97.5563 265.557 95.7915 259.461 95.7915 252.863C95.7909 245.212 97.9287 237.713 101.963 231.214C105.998 224.714 111.769 219.473 118.624 216.081C125.479 212.69 133.146 211.284 140.758 212.021C148.37 212.759 155.624 215.611 161.701 220.256C167.779 224.9 172.437 231.152 175.149 238.306C177.862 245.459 178.522 253.229 177.053 260.737C175.585 268.246 172.047 275.194 166.84 280.797C161.632 286.4 154.963 290.435 147.584 292.446C148.838 288.404 150.555 284.458 150.778 280.264C150.913 278.865 150.71 277.454 150.187 276.149C149.486 274.762 148.452 273.571 147.177 272.682C142.609 269.191 136.732 267.666 130.983 267.761C125.227 268.001 119.572 269.357 114.333 271.756C112.68 272.467 110.7 273.425 108.744 274.08C107.811 274.404 106.848 274.631 105.869 274.759V274.759Z" fill="#FBBEBE"/>
<path d="M209.877 364.535C207.25 368.745 201.636 370.031 196.701 369.656C187.502 368.977 179.134 364.064 172.027 358.152C164.92 352.241 158.708 345.371 151.441 339.683C137.922 329.082 122.694 324.824 105.494 324.576C108.855 321.788 107.618 315.174 107.889 310.828C108.48 302.041 109.039 293.021 107.889 284.362C107.769 283.427 107.634 282.508 107.474 281.59C107.745 281.877 108.033 282.157 108.328 282.445C113.443 287.355 119.742 290.857 126.612 292.61C133.481 294.363 140.687 294.306 147.528 292.446C147.088 293.838 146.744 295.258 146.498 296.696C145.508 302.871 147.169 309.134 148.806 315.182C149.78 318.801 150.938 322.683 153.916 324.944C155.849 326.414 158.284 326.989 160.576 327.764C165.144 329.321 169.361 331.765 172.985 334.953C175.509 337.166 177.776 339.747 180.483 341.672C183.058 343.301 185.77 344.702 188.588 345.858C195.506 349.052 202.042 353.015 208.073 357.673C209.211 358.384 210.096 359.434 210.604 360.677C210.753 361.335 210.765 362.018 210.64 362.681C210.515 363.345 210.256 363.976 209.877 364.535V364.535Z" fill="#FBBEBE"/>
<path d="M257.046 441.937C256.495 445.579 253.157 448.423 250.802 451.251C244.397 458.984 237.905 466.741 230.743 473.819C223.077 481.384 214.66 488.127 206.252 494.869L195.344 503.601C193.998 504.831 192.421 505.782 190.704 506.397C188.694 506.898 186.568 506.646 184.731 505.686C184 505.335 183.307 504.909 182.663 504.415C180.403 502.658 178.742 500.261 177.121 497.905C169.743 487.131 162.357 476.354 154.962 465.575C152.327 461.724 149.74 457.77 147.169 453.816C146.825 453.304 146.498 452.785 146.155 452.274C143.807 448.679 141.467 445.084 139.064 441.609L125.92 435.45L124.195 434.651L122.159 433.7C119.452 432.43 116.705 431.136 114.453 429.171C112.297 427.143 110.501 424.763 109.143 422.133C106.513 417.268 104.213 412.232 102.259 407.058C96.6698 392.943 91.7508 378.228 91.5432 363.033C91.3596 349.668 95.3043 335.768 104.184 325.958C105.398 324.609 106.702 323.343 108.089 322.172C109.798 320.742 111.562 319.903 113.758 320.215C115.954 320.526 118.038 320.846 120.146 321.205C125.96 322.206 131.728 323.431 137.451 324.88C142.609 326.198 147.951 327.7 153.166 326.653C154.004 326.486 154.835 326.246 155.665 326.03C156.344 325.855 157.015 325.687 157.709 325.575C158.095 325.508 158.484 325.466 158.875 325.447C161.646 325.303 164.305 326.414 166.86 327.508C171.739 329.601 176.762 331.806 180.435 335.656C182.623 337.973 184.228 340.817 186.56 342.998C189.674 345.914 193.827 347.408 197.564 349.493C198.286 349.893 198.982 350.339 199.648 350.827C201.122 351.932 202.462 353.205 203.641 354.621V354.621C208.48 360.333 211.354 368.042 216.697 373.722C220.972 378.26 224.688 383.294 227.764 388.717C228.267 389.619 228.754 390.53 229.233 391.457C230.032 392.999 230.775 394.564 231.461 396.146C231.637 396.554 231.813 396.945 231.972 397.368C232.977 399.762 233.854 402.207 234.6 404.694C236.412 410.725 237.618 417.236 241.643 422.077C244.453 425.44 248.35 427.669 251.632 430.569C253.746 432.36 255.409 434.623 256.487 437.175C257.08 438.688 257.272 440.328 257.046 441.937Z" fill="#FBBEBE"/>
<path opacity="0.06" d="M234.815 393.957C233.899 395.113 232.96 396.253 231.996 397.376C231.837 397.584 231.661 397.784 231.485 397.983C223.08 407.82 213.457 416.547 202.85 423.954C196.286 428.54 189.363 432.606 182.456 436.664L169.679 444.149C164.337 447.289 158.923 450.453 152.998 452.258C151.097 452.825 149.109 453.28 147.169 453.816C146.825 453.304 146.498 452.785 146.155 452.274C143.807 448.679 141.467 445.084 139.064 441.609L125.92 435.45C133.179 430.86 139.618 425.087 144.973 418.37C152.958 408.52 159.099 397.288 165.151 386.128C166.225 384.327 167.059 382.393 167.635 380.377C168.433 377.029 167.763 373.514 166.78 370.223C163.185 358.422 155.625 348.226 145.38 341.36C138.193 336.567 130.016 333.651 121.887 330.839C116.21 328.874 109.989 326.973 104.216 327.78C105.428 326.431 106.732 325.168 108.121 324.001C109.829 322.563 111.594 321.724 113.79 322.036C115.986 322.348 118.07 322.667 120.178 323.035C124.451 324.345 128.651 325.91 132.827 327.524C135.574 328.532 138.243 329.741 140.812 331.143C143.369 332.705 145.826 334.426 148.167 336.296C155.091 341.576 162.381 346.357 169.983 350.603C178.766 355.452 187.989 359.391 197.204 363.385C198.182 363.887 199.26 364.16 200.359 364.184C200.909 364.183 201.443 363.999 201.877 363.66C202.311 363.321 202.619 362.848 202.754 362.314C202.791 361.732 202.657 361.153 202.371 360.645C200.774 357.377 197.149 355.732 193.867 354.142C180.244 347.544 168.266 338.045 156.416 328.619C156.128 328.39 155.875 328.121 155.665 327.82L157.709 327.364C170.971 336.894 184.977 345.341 199.592 352.624C200.364 353.018 201.138 353.402 201.916 353.775C202.475 354.054 203.026 354.326 203.593 354.573C207.529 356.507 211.466 358.568 214.429 361.763C216.339 363.967 217.95 366.414 219.22 369.041C222.484 375.209 225.271 381.619 227.556 388.213C227.6 388.354 227.651 388.493 227.708 388.629C227.998 389.636 228.499 390.57 229.177 391.369C229.417 391.637 229.7 391.861 230.016 392.032C231.517 392.919 233.577 392.823 234.815 393.957Z" fill="black"/>
<path d="M157.741 325.575C171.001 335.104 185.007 343.549 199.624 350.827L201.948 351.985C206.419 354.174 211.075 356.347 214.469 359.974C216.378 362.182 217.988 364.631 219.26 367.259C222.526 373.426 225.31 379.836 227.588 386.432C228.099 387.894 228.698 389.5 230.056 390.251C231.413 391.001 233.569 390.946 234.775 392.08C233.689 393.438 232.587 394.78 231.445 396.074C223.042 405.916 213.419 414.645 202.81 422.053C196.246 426.639 189.323 430.705 182.416 434.763L169.639 442.248C164.297 445.38 158.883 448.543 152.958 450.349C150.73 451.028 148.374 451.539 146.115 452.194C143.767 448.599 141.427 445.004 139.024 441.529L124.155 434.563C132.14 430.042 139.104 423.611 144.917 416.461C152.902 406.619 159.043 395.387 165.096 384.227C166.167 382.425 167.002 380.491 167.579 378.475C168.378 375.128 167.707 371.605 166.725 368.314C163.127 356.551 155.59 346.386 145.38 339.531C138.193 334.738 130.016 331.83 121.887 329.01C116.21 327.053 109.989 325.144 104.216 325.958C105.43 324.609 106.734 323.343 108.121 322.172C109.829 320.742 111.594 319.903 113.79 320.215C115.986 320.526 118.07 320.846 120.178 321.205C124.451 322.523 128.651 324.089 132.827 325.703C135.576 326.707 138.245 327.916 140.812 329.322C143.369 330.883 145.826 332.604 148.167 334.474C155.102 339.742 162.403 344.51 170.015 348.742C178.798 353.599 188.021 357.569 197.236 361.524C198.213 362.026 199.292 362.299 200.391 362.322C200.941 362.324 201.477 362.141 201.911 361.802C202.346 361.463 202.654 360.988 202.786 360.453C202.822 359.874 202.689 359.296 202.403 358.791C200.806 355.524 197.18 353.87 193.898 352.289C180.276 345.69 168.298 336.184 156.448 326.725C156.157 326.5 155.904 326.23 155.697 325.926L157.741 325.575Z" fill="#A8CF45"/>
<path d="M269.623 368.945C297.306 368.945 319.747 346.495 319.747 318.801C319.747 291.107 297.306 268.656 269.623 268.656C241.941 268.656 219.5 291.107 219.5 318.801C219.5 346.495 241.941 368.945 269.623 368.945Z" fill="#A8CF45"/>
<path d="M319.459 518.371C328.842 515.424 338.368 512.42 346.609 507.028C352.398 503.241 357.389 498.368 362.643 493.862C366.596 490.475 370.716 487.28 374.342 483.541C377.59 480.043 380.629 476.356 383.445 472.501C389.854 464.108 396.474 455.874 403.304 447.8C406.97 443.494 410.842 439.109 415.961 436.712C425.056 432.438 435.733 435.322 445.331 438.254C459.704 442.648 474.006 447.305 487.453 453.991C495.103 457.802 502.513 462.052 510.235 465.703C524.353 472.373 539.342 476.951 554.274 481.504C555.384 481.977 556.616 482.077 557.788 481.792C558.625 481.407 559.345 480.806 559.872 480.05C561.819 477.644 563.379 474.949 564.495 472.062C564.708 471.734 564.788 471.337 564.718 470.953C564.648 470.568 564.434 470.225 564.12 469.993C557.732 463.769 549.443 459.943 541.697 455.509C535.533 451.986 529.632 448.032 523.738 444.078C518.077 440.283 512.367 436.448 507.616 431.567C505.22 429.099 503.064 426.375 500.469 424.122C498.176 422.246 495.748 420.542 493.203 419.025C481.82 411.753 470.955 403.7 460.687 394.924C452.877 388.245 446.481 379.642 438.136 373.65C433.018 369.975 427.061 366.628 420.8 367.299C413.182 368.098 407.561 374.489 402.25 380.001C384.403 398.543 361.885 411.812 341.969 428.116C325.711 441.409 310.515 457.203 290.712 464.217C291.598 467.157 291.91 470.096 292.804 473.004C293.919 477.046 295.309 481.007 296.964 484.859C298.606 488.271 300.454 491.579 302.498 494.765L310.436 507.731C312.033 510.367 313.702 513.043 315.985 515.136C317.183 516.286 319.459 516.702 319.459 518.371Z" fill="#464353"/>
<path opacity="0.06" d="M319.459 518.371C328.842 515.424 338.368 512.42 346.609 507.028C352.398 503.241 357.389 498.368 362.643 493.862C366.596 490.475 370.716 487.28 374.342 483.541C377.59 480.043 380.629 476.356 383.445 472.501C389.854 464.108 396.474 455.874 403.304 447.8C406.97 443.494 410.842 439.109 415.961 436.712C425.056 432.438 435.733 435.322 445.331 438.254C459.704 442.648 474.006 447.305 487.453 453.991C495.103 457.802 502.513 462.052 510.235 465.703C524.353 472.373 539.342 476.951 554.274 481.504C555.384 481.977 556.616 482.077 557.788 481.792C558.625 481.407 559.345 480.806 559.872 480.05C561.819 477.644 563.379 474.949 564.495 472.062C564.708 471.734 564.788 471.337 564.718 470.953C564.648 470.568 564.434 470.225 564.12 469.993C557.732 463.769 549.443 459.943 541.697 455.509C535.533 451.986 529.632 448.032 523.738 444.078C518.077 440.283 512.367 436.448 507.616 431.567C505.22 429.099 503.064 426.375 500.469 424.122C498.176 422.246 495.748 420.542 493.203 419.025C481.82 411.753 470.955 403.7 460.687 394.924C452.877 388.245 446.481 379.642 438.136 373.65C433.018 369.975 427.061 366.628 420.8 367.299C413.182 368.098 407.561 374.489 402.25 380.001C384.403 398.543 361.885 411.812 341.969 428.116C325.711 441.409 310.515 457.203 290.712 464.217C291.598 467.157 291.91 470.096 292.804 473.004C293.919 477.046 295.309 481.007 296.964 484.859C298.606 488.271 300.454 491.579 302.498 494.765L310.436 507.731C312.033 510.367 313.702 513.043 315.985 515.136C317.183 516.286 319.459 516.702 319.459 518.371Z" fill="black"/>
<path d="M538.064 503.153C538.955 504.413 539.56 505.852 539.836 507.37C540.112 508.888 540.052 510.448 539.661 511.941C542.499 513.993 545.954 515.011 549.451 514.825C552.933 514.632 556.357 513.849 559.577 512.508C562.366 511.486 565.008 510.1 567.434 508.386C571.61 505.302 574.621 500.892 577.056 496.315C578.406 493.799 579.556 490.531 577.815 488.263C577.15 487.489 576.335 486.858 575.419 486.409C569.279 482.901 562.887 479.854 556.295 477.294C554.48 476.46 552.51 476.016 550.513 475.992C548.054 476.128 545.826 477.478 543.877 478.98C539.501 482.387 535.973 486.762 533.568 491.762C532.818 493.359 530.55 497.162 531.668 498.807C532.179 499.566 534.064 499.83 534.862 500.301C536.117 501.018 537.208 501.989 538.064 503.153V503.153Z" fill="#FBBEBE"/>
<path d="M574.628 484.252C588.139 486.769 600.565 493.295 613.844 496.818C619.218 498.24 624.752 499.215 629.887 501.308C635.021 503.401 639.86 506.98 642.072 512.076C643.006 514.523 643.626 517.079 643.917 519.682C644.492 523.364 644.963 527.478 642.775 530.498C640.467 533.694 636.107 534.405 632.202 534.868C618.164 536.546 604.126 538.215 590.04 539.397C587.194 539.575 584.36 539.914 581.552 540.412C579.236 540.883 576.976 541.578 574.676 542.122C571.706 542.825 568.671 543.256 565.653 543.719C557.931 544.822 550.122 545.94 542.368 545.085C538.83 544.694 534.87 543.552 533.313 540.356C532.666 538.7 532.394 536.921 532.514 535.148C532.514 530.41 532.434 525.665 532.514 520.928C532.586 516.063 532.825 511.014 535.029 506.676C535.578 505.349 536.608 504.279 537.912 503.68C538.716 503.45 539.556 503.374 540.387 503.457C544.54 503.601 548.836 503.776 552.549 505.63C555.496 507.092 557.62 502.722 560.622 504.032C566.316 506.548 562.459 498.919 568.208 501.292C569.55 497.154 575.251 499.614 574.261 495.372C573.271 491.13 576.824 492.976 576.417 488.614C576.4 487.663 576.216 486.722 575.874 485.834C575.427 484.979 575.571 484.116 574.628 484.252Z" fill="#464353"/>
<path opacity="0.06" d="M169.903 228.657C166.804 230.463 162.963 230.127 159.354 230.047C156.198 229.982 153.04 230.145 149.907 230.535C148.779 230.614 147.676 230.906 146.657 231.397C145.331 232.254 144.282 233.478 143.639 234.92C142.361 237.376 141.5 240.027 141.092 242.765C140.645 245.841 140.692 249.204 138.776 251.641C136.165 254.956 132.092 254.445 128.395 255.1C125.177 255.717 122.093 256.896 119.284 258.583C116.514 260.256 114.137 262.508 112.315 265.183C110.493 267.859 109.269 270.897 108.727 274.088C108.624 274.815 108.552 275.534 108.52 276.261C108.44 278.322 108.647 280.423 108.376 282.445C108.31 282.949 108.209 283.448 108.073 283.938C108.037 284.083 107.992 284.224 107.937 284.362C107.817 283.427 107.681 282.508 107.522 281.59C105.087 279.117 102.978 276.344 101.245 273.338C100.778 272.819 100.403 272.225 100.135 271.58C97.5479 265.557 95.7832 259.461 95.7832 252.863C95.7826 244.209 98.5175 235.777 103.597 228.773C108.676 221.768 115.839 216.55 124.062 213.864C132.285 211.179 141.146 211.163 149.378 213.82C157.61 216.477 164.791 221.671 169.895 228.657H169.903Z" fill="black"/>
<path d="M172.53 212.936C170.478 208.183 166.142 204.811 161.686 202.167C152.902 196.927 142.793 193.635 132.54 193.5C127.366 193.501 122.207 194.036 117.144 195.097C112.21 195.98 107.376 197.352 102.715 199.195C95.0229 202.396 88.2239 207.418 82.9031 213.831C81.7853 213.915 80.6768 214.094 79.5892 214.366C75.2452 215.452 71.3324 217.841 67.763 220.549C64.7759 222.714 62.1231 225.306 59.8895 228.242C57.2754 231.992 55.4672 236.243 54.5793 240.728C51.5369 254.756 55.282 269.231 58.0289 283.315C60.7759 297.399 62.3809 312.785 55.6333 325.439C53.086 330.232 49.4687 334.306 46.7537 338.972C44.0387 343.637 42.234 349.253 43.7752 354.43C45.6118 360.725 51.7924 364.719 55.0185 370.383C56.9942 374.088 57.6994 378.339 57.0257 382.484C56.352 386.629 54.3367 390.438 51.2893 393.326C56.36 395.084 62.0056 393.19 66.5732 390.378C70.1946 388.269 73.2757 385.345 75.5726 381.839C81.314 372.54 78.7667 360.533 80.763 349.788C83.4221 335.728 94.1543 323.186 92.677 308.951C91.6789 299.364 85.3545 291.416 80.3797 283.195C77.0614 277.713 74.2725 271.927 72.0511 265.916C70.454 261.626 69.1604 257.017 69.9509 252.511C70.2125 251.136 70.6332 249.795 71.2046 248.517C71.2046 248.669 71.2046 248.821 71.2046 248.972C71.2956 253.11 72.2247 257.187 73.9356 260.955C79.8766 273.098 95.6955 277.571 102.395 289.307C104.352 287.174 106.388 284.937 107.186 282.157C107.889 279.68 107.53 277.044 107.633 274.472C107.913 267.282 112.281 260.508 118.398 256.801C121.205 255.112 124.29 253.935 127.509 253.326C131.198 252.663 135.271 253.166 137.89 249.851C139.806 247.454 139.758 244.051 140.213 240.984C140.618 238.242 141.479 235.588 142.761 233.131C143.401 231.689 144.451 230.467 145.779 229.616C146.799 229.121 147.906 228.828 149.037 228.753C152.167 228.363 155.322 228.2 158.476 228.266C162.125 228.354 166.03 228.681 169.16 226.804C173.568 224.12 174.582 217.729 172.53 212.936Z" fill="#464353"/>
<path opacity="0.06" d="M618.755 168.839C618.755 168.951 618.755 169.054 618.755 169.166C617.31 181.629 605.332 181.053 602.537 200.689C601.435 208.382 589.761 209.804 582.087 211.873C578.773 210.755 575.419 209.788 572.105 208.582C564.439 205.81 569.797 201.648 573.079 197.174C583.82 182.523 585.856 162.504 598.049 149.043C602.521 157.543 609.595 164.388 618.236 168.575C618.404 168.687 618.58 168.767 618.755 168.839Z" fill="black"/>
<path d="M619.035 161.689C619.034 163.579 618.927 165.467 618.715 167.345C617.245 180.316 610.776 192.201 600.684 200.476C590.592 208.75 577.673 212.762 564.671 211.658C551.67 210.553 539.611 204.42 531.058 194.562C522.505 184.704 518.131 171.898 518.867 158.865C519.603 145.832 525.391 133.599 534.999 124.768C544.608 115.936 557.28 111.201 570.324 111.569C583.367 111.936 595.752 117.378 604.848 126.737C613.945 136.096 619.034 148.635 619.035 161.689V161.689Z" fill="#A1616A"/>
<path d="M639.197 167.297C644.939 167.017 650.457 169.27 655.759 171.483C676.784 180.27 697.985 189.13 716.775 202.031C726.037 208.422 734.622 215.676 743.19 222.954L778.397 252.879C785.16 258.623 791.972 264.422 797.402 271.452C800.598 275.788 803.513 280.324 806.13 285.033L811.352 293.94C813.492 297.426 815.36 301.072 816.942 304.845C819.625 311.723 820.623 319.743 826.037 324.768C829.67 328.147 834.677 329.521 839.117 331.75C843.557 333.979 847.901 337.893 847.829 342.862C847.829 346.058 845.896 348.934 844.443 351.809C841.433 357.819 840.171 364.554 840.802 371.246L783.228 327.229C780.936 325.479 778.541 323.674 775.722 323.082C772.065 322.284 768.335 323.666 764.806 324.912C736.982 334.729 707.413 338.617 677.998 336.328C664.99 335.305 651.782 332.964 640.395 326.597C634.095 323.082 628.521 318.425 622.987 313.816C616.08 308.032 609.149 302.232 603.024 295.618C601.427 293.852 599.766 291.911 599.359 289.546C599.056 287.837 599.431 286.095 599.575 284.37C600.581 272.251 590.519 262.162 587.453 250.394C586.09 244.846 586.279 239.029 587.999 233.581C589.719 228.133 592.903 223.262 597.203 219.502C604.062 225.51 603.815 236.063 603.016 245.146C601.938 257.376 605.356 263.44 604.278 275.678C608.622 275.518 607.831 278.314 609.684 274.376C611.537 270.438 611.896 265.996 612.247 261.658C613.53 245.969 615.087 230.306 616.919 214.669C617.829 206.849 618.867 199.044 619.865 191.231C620.472 186.478 620.392 182.036 622.9 177.818C626.381 171.978 632.298 167.625 639.197 167.297Z" fill="#A8CF45"/>
<path d="M646.712 181.549C650.369 180.398 654.306 181.453 657.979 182.547C664.473 184.475 670.931 186.512 677.351 188.658C682.597 190.408 687.916 192.285 692.355 195.585C696.963 199.004 700.341 203.757 703.687 208.43C706.082 211.793 708.478 215.197 710.075 219.015C712.151 224.016 712.71 229.496 713.269 234.88C713.635 237.204 713.606 239.573 713.181 241.886C712.431 244.398 711.111 246.703 709.324 248.621C706.575 251.876 703.388 254.734 699.854 257.113C690.455 263.44 679.092 266.076 668.024 268.401C658.146 270.47 648.197 272.395 638.119 273.018C634.199 273.266 629.647 273.018 627.251 269.918C626.57 268.952 626.032 267.892 625.654 266.771C619.766 251.17 617.217 234.506 618.172 217.857C618.259 214.822 618.728 211.811 619.57 208.894C620.399 206.559 621.427 204.301 622.644 202.143C625.67 196.415 628.856 190.488 634.071 186.653C639.525 182.659 646.592 181.397 653.355 181.652" fill="#A1616A"/>
<path opacity="0.06" d="M683.5 240.792C680.362 242.909 679.268 246.999 678.868 250.77C677.168 266.803 683.779 282.676 683.34 298.789C682.989 311.571 678.214 323.841 673.502 335.768C665.469 356.115 661.285 378.212 659.664 400.029C658.043 421.845 655.671 444.565 643.965 463.019C641.306 467.197 638.207 471.079 635.604 475.281C632.873 479.675 630.709 484.388 628.298 488.958C621.192 502.453 612.033 514.761 601.148 525.441C597.954 528.557 594.568 531.577 590.495 533.374C587.871 534.513 585.045 535.116 582.184 535.146C579.324 535.176 576.486 534.633 573.838 533.55C568.376 531.289 563.777 526.192 563.553 520.281C563.353 514.992 566.508 510.223 569.67 505.989C580.387 491.645 592.712 478.576 606.402 467.037C608.885 464.944 611.505 462.779 612.79 459.791C614.236 456.348 613.645 452.442 613.828 448.711C614.124 442.76 616.439 437.112 617.821 431.312C623.411 407.753 613.477 382.03 621.558 359.207C623.355 354.134 626.022 349.285 626.653 343.941C627.1 340.202 626.166 336.024 623.834 333.22C621.644 330.699 620.416 327.484 620.368 324.145C620.368 323.458 620.368 322.779 620.456 322.108C621.43 311.651 622.397 301.146 621.869 290.657C621.342 280.168 619.258 269.623 614.419 260.3C611.912 255.467 608.67 250.945 607.121 245.729C604.629 237.285 606.929 228.154 610.642 220.165C613.541 213.918 617.406 207.967 622.804 203.685C632.833 195.736 647.846 194.818 658.825 201.392C666.922 206.233 672.464 214.374 676.96 222.674C680.186 228.737 683.588 233.874 683.5 240.792Z" fill="black"/>
<path d="M685.321 240.792C682.183 242.909 681.089 246.999 680.689 250.77C678.989 266.803 685.6 282.676 685.161 298.789C684.81 311.571 680.035 323.841 675.323 335.768C667.29 356.115 663.114 378.212 661.485 400.029C659.856 421.845 657.492 444.565 645.786 463.019C643.127 467.197 640.036 471.079 637.425 475.281C634.702 479.675 632.53 484.388 630.119 488.958C623.011 502.452 613.852 514.759 602.969 525.441C599.775 528.557 596.381 531.577 592.308 533.374C589.684 534.513 586.858 535.116 583.997 535.146C581.137 535.176 578.299 534.633 575.651 533.55C570.197 531.289 565.598 526.192 565.374 520.281C565.166 514.992 568.321 510.223 571.491 505.989C582.208 491.645 594.532 478.575 608.223 467.037C610.706 464.944 613.334 462.779 614.611 459.791C616.065 456.348 615.466 452.442 615.649 448.711C615.945 442.76 618.26 437.112 619.642 431.312C625.232 407.753 615.298 382.03 623.379 359.207C625.176 354.134 627.851 349.285 628.482 343.941C628.921 340.202 627.995 336.024 625.663 333.22C623.432 330.717 622.169 327.498 622.101 324.145C622.101 323.458 622.101 322.779 622.189 322.108C623.155 311.651 624.122 301.146 623.595 290.657C623.068 280.168 620.983 269.623 616.144 260.3C613.637 255.467 610.395 250.945 608.846 245.729C606.354 237.285 608.654 228.154 612.367 220.165C615.274 213.918 619.131 207.967 624.529 203.685C634.558 195.736 649.571 194.818 660.551 201.392C668.648 206.233 674.189 214.374 678.685 222.674C681.991 228.737 685.377 233.874 685.321 240.792Z" fill="#A1616A"/>
<path d="M766.076 449.398L765.389 449.606Z" fill="#464353"/>
<path d="M626.214 485.043C626.243 484.774 626.291 484.507 626.358 484.244Z" fill="#464353"/>
<path d="M797.418 430.225C799.718 427.565 803.263 426.375 806.673 425.488C812.168 424.067 817.781 423.153 823.442 422.756C826.956 422.378 830.509 422.596 833.951 423.403C837.352 424.338 840.578 426.367 842.303 429.443C843.828 432.159 844.068 435.386 844.268 438.494C844.683 444.884 845.066 451.275 844.012 457.57C843.333 461.565 842.064 465.431 841.241 469.393C838.574 482.383 840.89 495.828 840.65 509.089C840.594 511.917 840.411 514.817 839.221 517.381C837.951 520.105 835.668 522.174 833.44 524.219C830.988 526.432 828.497 528.661 825.542 530.139C821.166 532.335 816.127 532.703 811.233 532.855C808.254 532.943 805.188 532.951 802.449 531.856C799.71 530.762 797.242 528.301 797.043 525.321C796.723 520.265 802.425 516.957 804.054 512.164C805.347 508.346 803.862 504.128 801.802 500.653C798.498 495.113 793.783 490.551 788.139 487.432C786.047 486.281 783.819 485.315 782.078 483.693C780.337 482.071 779.156 479.555 779.898 477.302C780.785 474.578 783.955 473.308 786.806 473.036C789.656 472.765 792.667 472.972 795.23 471.702C797.514 470.576 799.103 468.403 800.197 466.11C802.525 461.216 802.849 455.606 801.099 450.476C800.407 448.525 799.404 446.699 798.129 445.068C796.931 443.534 794.471 442.24 793.617 440.563C792.1 437.543 795.382 432.622 797.418 430.225Z" fill="#A8CF45"/>
<path opacity="0.06" d="M751.016 314.455C737.824 302.791 719.434 299.62 702.186 296.081C693.301 294.265 684.458 292.241 675.659 290.01C669.877 288.54 664.08 286.974 658.091 286.567C652.102 286.159 645.937 286.998 640.811 290.05C635.684 293.101 631.819 298.629 631.788 304.597C631.788 306.993 632.354 309.342 632.179 311.715C631.899 315.533 629.783 318.904 628.338 322.475C626.127 328.12 625.789 334.326 627.372 340.178C629.927 349.501 637.289 357.713 636.651 367.339C635.588 383.452 635.916 400.292 639.222 416.07C642.528 431.847 646.656 447.696 646.56 463.841C646.464 479.986 641.577 496.962 629.528 507.715C637.692 515.383 647.677 520.841 658.538 523.572C667.825 525.897 678.869 525.665 685.481 518.739C687.014 517.141 688.283 515.008 687.964 512.811C687.635 511.425 687.053 510.112 686.247 508.937C681.704 500.797 682.254 490.763 684.267 481.672C686.279 472.581 689.721 463.746 690.591 454.463C691.23 447.728 690.511 440.882 691.797 434.236C692.787 429.147 694.927 424.354 696.213 419.329C700.006 404.422 696.021 388.773 692.06 373.922C695.374 381.551 701.643 387.502 708.127 392.679C717.965 400.524 729.863 407.45 742.368 406.06C753.499 404.814 762.978 397.073 769.518 387.99C769.574 377.485 773.215 367.555 772.568 357.074C772.151 352.47 771.328 347.912 770.109 343.453C768.887 338.468 767.633 333.436 765.317 328.858C762.259 322.779 756.11 318.952 751.016 314.455Z" fill="black"/>
<path d="M753.747 314.455C740.555 302.791 722.173 299.62 704.917 296.081C696.032 294.265 687.192 292.241 678.398 290.01C672.616 288.54 666.811 286.974 660.83 286.567C654.849 286.159 648.684 286.998 643.558 290.05C638.431 293.101 634.558 298.629 634.534 304.597C634.534 306.993 635.093 309.342 634.918 311.715C634.646 315.533 632.482 318.904 631.077 322.475C628.869 328.121 628.533 334.327 630.119 340.178C632.666 349.501 640.028 357.713 639.397 367.339C638.327 383.452 638.655 400.292 641.961 416.07C645.267 431.847 649.395 447.696 649.299 463.841C649.203 479.986 644.284 496.906 632.227 507.643C640.392 515.31 650.377 520.768 661.237 523.5C670.524 525.825 681.576 525.593 688.18 518.667C689.713 517.069 690.982 514.936 690.663 512.74C690.334 511.353 689.752 510.04 688.946 508.865C684.403 500.725 684.953 490.691 686.966 481.6C688.978 472.509 692.42 463.674 693.298 454.391C693.929 447.656 693.21 440.81 694.504 434.164C695.486 429.075 697.634 424.282 698.912 419.257C702.705 404.35 698.728 388.701 694.759 373.85C698.073 381.479 704.342 387.431 710.834 392.607C720.672 400.452 732.562 407.378 745.067 405.988C756.198 404.742 765.677 397.001 772.217 387.918C772.265 377.413 775.906 367.483 775.259 357.002C774.842 352.398 774.019 347.84 772.8 343.381C771.586 338.397 770.324 333.364 768.008 328.786C765.038 322.779 758.841 318.952 753.747 314.455Z" fill="#A1616A"/>
<path d="M662.107 516.047C656.249 512.477 651.19 507.737 647.247 502.123C645.825 500.11 644.548 497.969 642.775 496.259C641.002 494.549 638.599 493.279 636.147 493.535C633.376 493.823 631.157 495.931 629.4 498.104C624.688 503.944 621.654 511.086 616.424 516.478C610.387 522.717 601.962 526.064 593.554 528.205C585.145 530.346 576.465 531.473 568.225 534.181C565.637 535.028 562.914 536.178 561.517 538.519C559.744 541.498 560.718 545.405 562.587 548.361C566.029 553.953 571.954 557.555 578.134 559.696C584.315 561.837 590.855 562.692 597.299 563.954C608.686 566.183 620.352 569.754 631.684 567.238C636.203 566.231 640.467 564.282 645.035 563.435C655.416 561.502 666.124 565.408 676.545 563.842C681.584 563.084 686.343 561.07 690.918 558.802C693.213 557.809 695.299 556.392 697.067 554.624C698.736 552.77 699.742 550.142 699.055 547.745C698.664 546.363 697.762 545.197 697.163 543.895C696.221 541.882 696.029 539.621 695.805 537.408C694.943 528.985 693.481 520.635 691.429 512.42C690.719 509.552 689.657 506.357 686.982 505.102C686.436 504.808 685.798 504.736 685.201 504.903C684.251 505.262 683.939 506.413 683.652 507.379C682.868 510.052 681.367 512.458 679.312 514.337C677.257 516.216 674.727 517.496 671.996 518.038C669.265 518.58 666.438 518.363 663.822 517.41C661.206 516.458 658.901 514.807 657.157 512.636" fill="#A8CF45"/>
<path opacity="0.06" d="M619.035 161.689C619.034 163.579 618.927 165.467 618.715 167.345C616.199 167.722 613.629 167.5 611.215 166.696C608.801 165.892 606.61 164.53 604.821 162.72C603.136 160.93 601.875 158.765 600.206 156.96C598.537 155.154 596.213 153.652 593.817 153.844C591.773 153.996 590 155.29 588.603 156.792C586.785 158.747 585.452 161.104 584.714 163.67C584.179 165.484 583.916 167.545 582.414 168.751C580.913 169.957 579.069 169.877 577.288 169.813C574.98 169.734 572.585 169.622 570.548 168.535C566.715 166.466 565.422 161.729 564 157.607C561.605 150.681 556.215 137.579 547.838 136.181C543.845 135.518 538.99 137.627 535.86 139.904C531.141 143.331 527.659 145.552 521.559 145.456C525.405 134.227 533.108 124.726 543.298 118.644C553.488 112.562 565.504 110.293 577.208 112.241C588.913 114.189 599.548 120.226 607.221 129.281C614.895 138.335 619.109 149.819 619.115 161.689H619.035Z" fill="black"/>
<path d="M521.487 143.627C520.047 143.658 518.614 143.431 517.254 142.956C513.382 141.438 511.497 136.964 511.17 132.818C510.659 126.499 512.767 120.3 514.883 114.317C515.33 113.015 515.865 111.617 517.031 110.89C517.975 110.426 519.006 110.167 520.057 110.131C525.791 109.332 530.766 105.825 534.998 101.894C539.23 97.964 543.047 93.5064 547.774 90.2311C560.311 81.5794 578.917 83.1931 589.761 93.8659C594.057 98.0839 597.746 103.804 603.703 104.794C607.137 105.361 610.818 104.179 614.084 105.457C616.48 106.392 618.188 108.509 619.562 110.674C624.018 117.672 626.11 125.964 626.805 134.232C627.499 142.5 626.86 150.817 626.214 159.085C626.25 160.323 625.931 161.545 625.295 162.608C624.784 163.221 624.143 163.712 623.419 164.046C620.383 165.543 616.952 166.046 613.614 165.484C610.276 164.922 607.2 163.323 604.821 160.914C603.128 159.133 601.875 156.968 600.206 155.154C598.537 153.341 596.213 151.855 593.817 152.047C591.781 152.199 589.992 153.493 588.603 154.995C586.785 156.95 585.452 159.306 584.714 161.873C584.187 163.686 583.916 165.747 582.414 166.945C580.913 168.144 579.069 168.08 577.28 168.016C574.98 167.928 572.584 167.824 570.548 166.73C566.707 164.669 565.414 159.932 564 155.809C561.605 148.883 556.223 135.774 547.838 134.384C543.845 133.713 538.99 135.83 535.86 138.107C531.069 141.51 527.619 143.731 521.487 143.627Z" fill="#464353"/>
<path opacity="0.06" d="M257.046 441.937C256.495 445.579 253.157 448.423 250.802 451.251C244.397 458.984 237.905 466.741 230.743 473.819C223.077 481.384 214.66 488.127 206.252 494.869L195.344 503.601C193.998 504.831 192.421 505.782 190.704 506.397C188.694 506.898 186.568 506.646 184.731 505.686C184.891 505.366 185.059 505.07 185.243 504.775L198.322 482.846C200.894 478.548 202.579 474.634 205.509 470.6C209.925 464.56 214.381 458.489 219.819 453.368C226.694 446.89 235.51 442.184 243.687 437.503C244.869 433.956 249.819 432.973 253.165 434.651C254.405 435.294 255.522 436.151 256.463 437.183C257.063 438.691 257.263 440.328 257.046 441.937V441.937Z" fill="black"/>
<path d="M199.233 483.749L186.153 505.686C185.618 506.572 185.067 507.579 185.298 508.586C185.592 509.43 186.153 510.156 186.896 510.655C191.91 514.737 197.468 519.043 199.041 525.314C200.167 529.787 199.041 534.58 200.047 539.07C201.892 547.17 210.029 552.091 217.727 555.207C234.975 562.189 254.124 564.873 272.45 561.598C290.776 558.322 308.168 548.992 320.034 534.644C323.675 530.235 326.79 525.409 330.247 520.856C339.83 508.274 351.991 497.945 364.057 487.719C379.588 474.554 388.739 454.918 402.386 439.788C404.87 437.032 407.609 434.196 411.17 433.285C413.166 432.782 415.961 433.525 416.041 435.586C416.225 439.58 419.435 442.847 421.631 446.187C429.904 458.841 438.56 471.886 451.344 479.954C458.339 484.38 466.269 487.088 474.174 489.541C494.217 495.788 514.651 500.725 535.062 505.614C536.092 503.553 537.328 501.602 538.751 499.79C540.867 497.194 543.654 495.213 545.778 492.6C549.667 487.895 551.032 481.672 552.278 475.696C540.084 468.227 527.572 460.518 515.546 452.753C509.493 448.855 503.4 444.869 498.497 439.596C495.303 436.129 492.62 432.159 489.418 428.668C486.142 425.28 482.613 422.147 478.861 419.297L450.114 396.266C441.858 389.659 433.441 382.685 425.36 375.847C420.816 371.997 415.778 367.946 409.837 367.763C404.75 367.603 400.071 370.327 395.695 372.947C369.993 388.344 343.907 403.048 317.439 417.06C312.081 419.888 306.699 422.7 301.588 425.952C291.645 432.28 282.816 440.21 275.46 449.422C274.111 451.108 272.402 453.025 270.262 452.769C269.674 452.683 269.107 452.485 268.593 452.186C265.295 450.421 263.275 447.009 261.406 443.774C259.538 440.539 257.453 437.136 254.108 435.458C250.762 433.78 245.819 434.763 244.629 438.318C236.412 443.135 227.628 447.8 220.745 454.279C215.307 459.4 210.851 465.463 206.435 471.51C203.489 475.545 201.796 479.459 199.233 483.749Z" fill="#464353"/>
<path opacity="0.06" d="M177.808 349.956C177.808 349.956 190.96 355.796 200.39 362.386Z" fill="black"/>
<path d="M836.482 361.963C836.721 369.416 836.913 376.886 836.825 384.331C836.777 388.277 836.609 392.391 834.717 395.85C833.367 398.335 831.235 400.276 829.127 402.177L815.976 414.104C811.895 417.803 807.495 421.662 802.057 422.58C795.837 423.635 789.76 420.607 783.779 418.586C777.756 416.556 771.449 415.496 765.093 415.446C761.452 415.446 757.779 415.734 754.185 415.159C751.587 414.664 749.038 413.94 746.567 412.994L734.693 408.872C735.029 405.876 737.887 403.967 740.283 402.074C748.787 395.171 752.516 384.075 755.2 373.458C757.38 365.17 758.934 356.729 759.847 348.207C760.254 343.989 760.438 339.699 759.552 335.553C758.715 332.208 757.538 328.958 756.038 325.854L751.862 316.436C749.466 311.116 744.675 308.751 739.796 305.611C747.158 308.407 756.134 309.502 761.731 315.046C762.812 316.274 764.091 317.311 765.517 318.114C767.042 318.841 768.775 318.912 770.443 319.184C778.756 320.43 785.823 325.655 792.69 330.488C801.096 336.41 809.736 341.973 818.611 347.176C822.603 349.525 826.724 351.833 830.085 355.037C833.447 358.24 836.082 362.506 836.298 367.147" fill="#464353"/>
<path opacity="0.06" d="M120.394 348.878C109.925 350.947 104.479 363.257 105.094 373.906C105.685 383.417 109.59 392.42 116.13 399.349C120.498 403.943 125.944 407.49 129.889 412.451C135.718 419.768 137.746 429.443 142.96 437.215C146.745 442.855 152.056 447.281 157.334 451.523C169.504 461.237 182.07 470.432 195.032 479.108C200.303 482.631 206.068 486.193 212.408 486.058C218.381 485.93 223.883 482.423 227.78 477.885C231.677 473.348 234.168 467.836 236.7 462.403C245.819 442.512 255.002 422.405 259.362 400.963C260.727 394.229 261.646 387.287 264.696 381.128C267.092 376.334 270.637 372.228 273.799 367.898C281.27 357.624 286.514 345.902 289.195 333.484C290.936 325.383 291.519 316.708 288.66 308.959C285.801 301.21 278.862 294.491 270.597 293.884C264.057 293.405 257.637 296.76 253.245 301.641C248.853 306.522 246.266 312.761 244.501 319.08C241.971 328.171 240.999 337.625 241.627 347.04C242.138 354.637 243.687 362.306 242.377 369.816C241.451 375.112 239.143 380.057 236.859 384.93C230.958 397.504 224.961 410.238 216.042 420.879C213.135 424.346 209.134 427.853 204.687 427.038C198.538 425.92 196.909 418.131 193.875 412.658C190.153 405.948 183.094 401.914 177.561 396.585C169.687 388.996 164.968 378.819 159.37 369.424C153.773 360.03 146.53 350.755 136.213 347.152C125.896 343.549 112.145 348.175 109.494 358.783" fill="black"/>
<path opacity="0.06" d="M128.291 356.171C117.815 358.24 104.479 359.59 105.134 370.255C105.718 379.768 109.624 388.774 116.17 395.699C120.538 400.3 125.984 403.847 129.928 408.808C135.758 416.126 137.786 425.792 143 433.573C146.785 439.221 152.095 443.646 157.374 447.88C169.543 457.6 182.109 466.795 195.072 475.465C200.343 478.996 206.108 482.559 212.448 482.423C218.421 482.295 223.923 478.78 227.82 474.251C231.717 469.721 234.208 464.201 236.739 458.761C245.859 438.869 255.042 418.762 259.402 397.32C260.767 390.594 261.685 383.644 264.736 377.493C267.131 372.7 270.677 368.593 273.839 364.256C281.311 353.985 286.555 342.266 289.235 329.849C290.975 321.74 291.558 313.073 288.7 305.316C285.841 297.559 278.902 290.856 270.637 290.241C264.097 289.762 257.677 293.125 253.285 297.998C248.893 302.871 246.306 309.118 244.541 315.445C242.011 324.536 241.039 333.99 241.666 343.405C242.177 351.011 243.727 358.68 242.417 366.181C241.491 371.485 239.183 376.43 236.899 381.303C230.998 393.877 225.001 406.603 216.082 417.252C213.175 420.719 209.174 424.218 204.726 423.411C198.578 422.285 196.949 414.496 193.914 409.032C190.193 402.321 183.134 398.287 177.6 392.959C169.727 385.377 165.008 375.192 159.41 365.797C153.812 356.403 146.57 347.136 136.253 343.525C125.936 339.914 138.856 363.041 136.197 373.65" fill="black"/>
<path d="M120.394 347.048C109.925 349.117 104.479 361.428 105.094 372.076C105.683 381.591 109.588 390.597 116.13 397.528C120.498 402.122 125.944 405.668 129.889 410.629C135.718 417.947 137.746 427.621 142.96 435.394C146.745 441.042 152.056 445.468 157.334 449.71C169.504 459.424 182.07 468.616 195.032 477.286C200.303 480.817 206.068 484.38 212.408 484.244C218.381 484.116 223.883 480.609 227.78 476.072C231.677 471.534 234.168 466.022 236.7 460.59C245.819 440.698 255.002 420.591 259.362 399.142C260.727 392.415 261.646 385.465 264.696 379.314C267.092 374.521 270.637 370.415 273.799 366.077C281.271 355.806 286.515 344.087 289.195 331.67C290.936 323.562 291.519 314.894 288.66 307.137C285.801 299.38 278.862 292.678 270.597 292.071C264.057 291.583 257.637 294.947 253.245 299.828C248.853 304.709 246.266 310.948 244.501 317.267C241.971 326.357 240.999 335.811 241.627 345.227C242.138 352.824 243.687 360.493 242.377 367.994C241.451 373.299 239.143 378.244 236.859 383.117C230.958 395.691 224.961 408.425 216.042 419.065C213.135 422.532 209.134 426.031 204.687 425.225C198.538 424.098 196.909 416.317 193.875 410.845C190.153 404.127 183.094 400.092 177.561 394.772C169.687 387.183 164.968 377.005 159.37 367.611C153.773 358.216 146.53 348.95 136.213 345.347C125.896 341.744 112.145 346.369 109.494 356.978" fill="#FBBEBE"/>
<g opacity="0.06">
<path opacity="0.06" d="M80.3796 283.235C77.0612 277.753 74.2724 271.967 72.051 265.956L71.7795 265.157C70.0944 263.348 68.6772 261.306 67.5712 259.094C65.8592 255.326 64.9301 251.249 64.8402 247.111C64.8402 246.959 64.8402 246.807 64.8402 246.656C64.2689 247.934 63.8481 249.274 63.5866 250.65C62.788 255.155 64.1056 259.757 65.6867 264.055C67.9097 270.065 70.6985 275.851 74.0153 281.334C78.9742 289.626 85.3065 297.615 86.2887 307.129C87.766 321.365 77.0338 333.899 74.3827 347.967C72.3544 358.712 74.9257 370.718 69.1842 380.017C66.8894 383.523 63.8077 386.445 60.1848 388.549C57.9125 389.998 55.4248 391.076 52.8144 391.744C52.3384 392.31 51.8263 392.843 51.2812 393.342C56.3519 395.1 61.9975 393.206 66.5651 390.394C70.1865 388.285 73.2676 385.361 75.5645 381.854C81.3059 372.556 78.7586 360.549 80.7549 349.804C83.414 335.744 94.1462 323.202 92.6689 308.967C91.6788 299.396 85.3544 291.416 80.3796 283.235Z" fill="black"/>
<path opacity="0.06" d="M172.529 212.936C170.477 208.183 166.141 204.811 161.685 202.167C156.037 198.776 149.89 196.296 143.471 194.818C147.591 196.256 151.555 198.106 155.305 200.338C159.761 202.99 164.089 206.353 166.157 211.114C168.225 215.876 167.195 222.298 162.755 224.951C159.625 226.828 155.72 226.492 152.071 226.413C148.917 226.34 145.763 226.501 142.633 226.892C141.502 226.974 140.397 227.266 139.375 227.755C138.042 228.618 136.993 229.854 136.356 231.31C135.072 233.766 134.208 236.42 133.801 239.162C133.354 242.23 133.394 245.593 131.477 248.03C128.874 251.345 124.801 250.842 121.096 251.497C117.879 252.114 114.795 253.293 111.985 254.98C105.868 258.678 101.5 265.437 101.221 272.65C101.125 275.223 101.476 277.851 100.782 280.327C100.334 281.772 99.6304 283.125 98.7056 284.322C100.121 285.835 101.358 287.505 102.395 289.299C104.351 287.166 106.387 284.929 107.186 282.149C107.889 279.672 107.529 277.036 107.633 274.464C107.913 267.274 112.281 260.5 118.397 256.793C121.205 255.104 124.29 253.927 127.508 253.318C131.198 252.655 135.27 253.158 137.889 249.843C139.806 247.446 139.758 244.043 140.213 240.976C140.618 238.234 141.479 235.58 142.76 233.123C143.401 231.681 144.45 230.459 145.779 229.608C146.799 229.113 147.905 228.82 149.037 228.745C152.167 228.355 155.322 228.192 158.475 228.258C162.125 228.346 166.029 228.673 169.16 226.796C173.568 224.12 174.582 217.729 172.529 212.936Z" fill="black"/>
</g>
<path opacity="0.06" d="M120.242 289.267C120.242 289.267 129.673 297.383 147.584 292.462C147.584 292.446 136.492 296.816 120.242 289.267Z" fill="black"/>
<path opacity="0.06" d="M626.038 152.342C626.056 153.576 625.724 154.789 625.08 155.841C624.569 156.452 623.927 156.941 623.203 157.271C620.169 158.77 616.741 159.275 613.404 158.714C610.067 158.154 606.991 156.556 604.613 154.148C602.921 152.358 601.667 150.154 599.998 148.388C598.329 146.623 596.005 145.081 593.61 145.272C591.574 145.432 589.793 146.726 588.395 148.22C586.586 150.182 585.255 152.536 584.507 155.098C583.988 156.92 583.708 158.973 582.215 160.179C580.722 161.385 578.869 161.306 577.08 161.242C574.773 161.162 572.377 161.058 570.349 159.963C566.508 157.902 565.214 153.157 563.793 149.043C561.397 142.109 556.015 129.008 547.639 127.61C543.646 126.947 538.783 129.064 535.661 131.332C530.941 134.76 527.46 136.98 521.351 136.924C519.912 136.952 518.479 136.725 517.119 136.253C513.605 134.871 511.729 131.053 511.162 127.266C510.945 129.002 510.899 130.754 511.026 132.499C511.361 136.637 513.246 141.11 517.119 142.636C518.479 143.108 519.912 143.335 521.351 143.307C527.46 143.403 530.933 141.182 535.661 137.755C538.799 135.486 543.646 133.361 547.639 134.033C555.983 135.391 561.413 148.492 563.761 155.418C565.182 159.54 566.476 164.285 570.317 166.346C572.345 167.433 574.741 167.545 577.048 167.625C578.837 167.688 580.801 167.696 582.183 166.562C583.564 165.428 583.956 163.295 584.475 161.481C585.221 158.918 586.552 156.564 588.363 154.603C589.761 153.109 591.558 151.815 593.578 151.655C596.037 151.464 598.369 152.958 599.966 154.771C601.563 156.584 602.889 158.765 604.582 160.531C606.959 162.939 610.035 164.537 613.372 165.097C616.709 165.658 620.137 165.153 623.171 163.654C623.894 163.321 624.534 162.833 625.048 162.224C625.693 161.17 626.026 159.954 626.006 158.717C626.631 151.989 626.898 145.231 626.805 138.474C626.741 143.1 626.397 147.725 626.038 152.342Z" fill="black"/>
<path d="M71.7157 493.136C71.7157 493.136 72.9853 491.722 70.5977 491.162V488.838H72.0351C72.032 486.029 71.0651 483.306 69.2962 481.125C67.5274 478.944 65.0636 477.437 62.317 476.855V474.035H62.6923V470.368H53.4533V474.035H53.7168V476.887C50.996 477.497 48.5641 479.016 46.8222 481.195C45.0803 483.373 44.1323 486.08 44.1345 488.87H45.4042V491.098C45.4042 491.098 42.3777 492.528 45.4042 495.093C48.4306 497.657 47.9594 499.51 47.9594 499.51C47.9594 499.51 46.6898 504.304 44.1425 504.927V549.367C44.1414 550.665 44.3959 551.949 44.8915 553.148C45.387 554.347 46.1139 555.437 47.0305 556.354C47.9471 557.272 49.0355 558 50.2334 558.497C51.4314 558.993 52.7155 559.249 54.0123 559.249H61.8139C64.4337 559.249 66.9461 558.208 68.7986 556.355C70.651 554.502 71.6917 551.988 71.6917 549.367V504.927C71.6917 504.927 67.2279 501.579 68.0265 499.51C69.0977 497.298 70.3308 495.167 71.7157 493.136V493.136Z" fill="#464353"/>
<defs>
<linearGradient id="paint0_linear" x1="443.191" y1="567.086" x2="443.191" y2="79.063" gradientUnits="userSpaceOnUse">
<stop stop-color="#808080" stop-opacity="0.25"/>
<stop offset="0.54" stop-color="#808080" stop-opacity="0.12"/>
<stop offset="1" stop-color="#808080" stop-opacity="0.1"/>
</linearGradient>
</defs>
</svg>
