<?xml version="1.0" encoding="UTF-8" standalone="no"?>
<!DOCTYPE svg PUBLIC "-//W3C//DTD SVG 1.1//EN" "http://www.w3.org/Graphics/SVG/1.1/DTD/svg11.dtd">
<svg version="1.1" xmlns="http://www.w3.org/2000/svg" xmlns:xlink="http://www.w3.org/1999/xlink" preserveAspectRatio="xMidYMid meet" viewBox="0 0 640 640" width="640" height="640"><defs><path d="M368.17 111.45C368.17 111.45 337.51 171.54 337.51 171.54C338.57 171.83 347.11 174.12 348.17 174.4C348.17 174.4 350.84 154.37 357.5 151.51C357.24 154.09 355.1 174.69 354.84 177.26C354.84 177.26 434.82 207.31 470.81 174.4C470.68 173.4 469.61 165.39 469.48 164.39C469.48 164.39 474.81 165.82 474.81 174.4C475.21 173.97 478.41 170.54 478.81 170.11C478.81 170.11 474.81 161.53 462.81 150.08C454.94 142.57 452.23 128.28 451.3 119.34C450.61 111.88 447.82 104.82 443.32 99.08C435.35 89.17 420.82 78.63 398.83 89.99C392.7 94.28 380.17 82.84 368.17 111.45Z" id="f1kvPqpLLE"></path><path d="M512.1 251.91C512.1 251.91 547.22 284.05 552.38 302.9C552.38 302.9 532.75 323.96 532.75 323.96C527.38 324.52 484.41 328.95 479.04 329.5C479.04 329.5 478.01 356.11 468.71 359.44C468.71 359.44 466.83 315.44 466.83 315.44C470.33 314.38 487.83 309.09 519.33 299.57L495.57 272.97C504.38 261.73 509.89 254.71 512.1 251.91Z" id="b17mjQExY7"></path><path d="M347.86 285.16L343.73 343.92C330.1 403.78 322.52 437.04 321.01 443.69C321.01 443.69 300.35 489.14 317.91 490.25C335.47 491.36 334.44 447.01 334.44 447.01C336.64 440.73 347.66 409.32 367.49 352.78L370.59 288.49L347.86 285.16Z" id="a9vaKIPN2"></path><path d="M405.71 108.9C386.88 108.9 371.62 125.28 371.62 145.48C371.62 165.69 386.88 182.07 405.71 182.07C424.53 182.07 439.79 165.69 439.79 145.48C439.79 125.28 424.53 108.9 405.71 108.9Z" id="bFCiLp9C3"></path><path d="M390.21 163.22C390.21 163.22 402.61 210.89 382.98 223.08C382.98 223.08 432.56 244.15 451.15 207.56C451.15 207.56 418.1 195.37 427.4 163.22C419.96 163.22 397.65 163.22 390.21 163.22Z" id="abBThngQ"></path><path d="M366.46 228.63C362.74 227.3 360.67 226.56 360.26 226.41C360.26 226.41 347.86 231.95 347.86 241.93C347.86 241.93 345.8 291.81 345.8 291.81C347.66 292.04 356.95 293.14 373.69 295.14L366.46 228.63Z" id="c3zOUe4S6W"></path><path d="M337.51 452.62C337.51 452.01 337.51 451.41 337.51 450.83C337.51 445.65 337.84 441.6 337.88 440.57C340.83 398.94 360.81 364.23 368.55 352.21C368.94 351.59 369.3 351.04 369.62 350.56C370.87 348.68 371.59 347.68 371.59 347.68C371.59 347.68 431.5 346.63 462.49 359.93C463.98 360.61 465.35 361.57 466.52 362.77C478.08 374.21 484.87 411.36 488.85 450.17C450.72 456.23 395.15 461.13 337.51 452.62Z" id="d1SeVEnJ2N"></path><path d="M465.62 213.11C465.62 213.11 479.04 205.35 492.47 221.97C494.26 224.19 503.21 235.28 519.33 255.23L498.67 279.62L459.42 254.12C462.72 232.25 464.79 218.57 465.62 213.11Z" id="e2Pmc4B4l0"></path><path d="M368.87 145.71C380.94 136.34 390.71 125.55 397.17 112.71C397.17 112.71 419.31 139.11 432.85 140.43C446.38 141.75 434.08 108.74 434.08 108.74C432.44 108.3 424.24 106.1 409.47 102.14L386.1 104.78L367.64 117.99C368.3 132.78 368.71 142.02 368.87 145.71Z" id="eTFaCQXV1"></path><path d="M445.99 205.35C445.99 205.35 431.54 229.87 388.15 218.16C386.51 218.65 378.3 221.07 363.53 225.44C361.57 226.02 360.48 226.34 360.26 226.41C360.26 226.41 363.36 292.92 371.62 305.12C371.62 305.12 377.82 323.96 375.75 325.07C375.75 325.07 368.52 323.96 371.62 329.5C371.62 329.5 378.85 331.72 374.72 335.05C374.72 335.05 368.52 350.57 368.52 350.57C378.23 351.9 455.91 362.54 465.62 363.87C465.62 363.87 462.52 320.64 470.78 298.46C470.78 298.46 481.11 267.43 481.11 267.43C480.7 263.73 478.63 245.25 474.91 212C459.49 208.45 449.85 206.23 445.99 205.35Z" id="i487kCZVFr"></path><path d="M244.2 183.64C244.2 183.64 244.2 183.64 244.2 183.64C244.2 290.63 244.2 350.06 244.2 361.95C244.2 361.95 244.2 361.95 244.2 361.95C164.46 361.95 120.15 361.95 111.29 361.95C111.29 361.95 111.29 361.95 111.29 361.95C111.29 254.97 111.29 195.53 111.29 183.64C111.29 183.64 111.29 183.64 111.29 183.64C191.04 183.64 235.34 183.64 244.2 183.64Z" id="d37zdb4Jt"></path><path d="M149.03 198.67C149.03 198.67 149.03 198.67 149.03 198.67C149.03 210.9 149.03 217.69 149.03 219.05C149.03 219.05 149.03 219.05 149.03 219.05C131.94 219.05 122.45 219.05 120.55 219.05C120.55 219.05 120.55 219.05 120.55 219.05C120.55 206.82 120.55 200.03 120.55 198.67C120.55 198.67 120.55 198.67 120.55 198.67C137.64 198.67 147.13 198.67 149.03 198.67Z" id="aLADMfph0"></path><path d="M230.91 238.41C230.91 238.41 230.91 238.41 230.91 238.41C230.91 242.69 230.91 245.07 230.91 245.54C230.91 245.54 230.91 245.54 230.91 245.54C164.84 245.54 128.13 245.54 120.79 245.54C120.79 245.54 120.79 245.54 120.79 245.54C120.79 241.26 120.79 238.88 120.79 238.41C120.79 238.41 120.79 238.41 120.79 238.41C186.86 238.41 223.57 238.41 230.91 238.41Z" id="g2177Sexx9"></path><path d="M230.91 257.26C230.91 257.26 230.91 257.26 230.91 257.26C230.91 261.54 230.91 263.91 230.91 264.39C230.91 264.39 230.91 264.39 230.91 264.39C164.84 264.39 128.13 264.39 120.79 264.39C120.79 264.39 120.79 264.39 120.79 264.39C120.79 260.11 120.79 257.73 120.79 257.26C120.79 257.26 120.79 257.26 120.79 257.26C186.86 257.26 223.57 257.26 230.91 257.26Z" id="ahhlYX6tF"></path><path d="M230.91 276.11C230.91 276.11 230.91 276.11 230.91 276.11C230.91 280.39 230.91 282.76 230.91 283.24C230.91 283.24 230.91 283.24 230.91 283.24C164.84 283.24 128.13 283.24 120.79 283.24C120.79 283.24 120.79 283.24 120.79 283.24C120.79 278.96 120.79 276.58 120.79 276.11C120.79 276.11 120.79 276.11 120.79 276.11C186.86 276.11 223.57 276.11 230.91 276.11Z" id="d29smz8KIJ"></path><path d="M230.91 294.96C230.91 294.96 230.91 294.96 230.91 294.96C230.91 299.24 230.91 301.61 230.91 302.09C230.91 302.09 230.91 302.09 230.91 302.09C164.84 302.09 128.13 302.09 120.79 302.09C120.79 302.09 120.79 302.09 120.79 302.09C120.79 297.81 120.79 295.43 120.79 294.96C120.79 294.96 120.79 294.96 120.79 294.96C186.86 294.96 223.57 294.96 230.91 294.96Z" id="d482TcEmVc"></path><path d="M230.91 313.81C230.91 313.81 230.91 313.81 230.91 313.81C230.91 318.09 230.91 320.46 230.91 320.94C230.91 320.94 230.91 320.94 230.91 320.94C164.84 320.94 128.13 320.94 120.79 320.94C120.79 320.94 120.79 320.94 120.79 320.94C120.79 316.66 120.79 314.28 120.79 313.81C120.79 313.81 120.79 313.81 120.79 313.81C186.86 313.81 223.57 313.81 230.91 313.81Z" id="c3src55ZEU"></path><path d="M244.25 389.61C229.87 389.59 218.23 377.07 218.24 361.64C218.25 346.21 229.92 333.71 244.3 333.73C253.21 333.74 261.51 338.64 266.27 346.73C268.91 351.21 270.31 356.4 270.31 361.69C270.29 377.12 258.63 389.62 244.25 389.61Z" id="j5ojKB7I8u"></path><path d="M240.57 374.3C238.96 371.62 229.96 359.15 229.96 359.15C231.11 357.9 232.34 356.73 233.64 355.66C234.14 356.37 236.63 359.93 241.11 366.33C254.4 352.07 261.79 344.14 263.26 342.55C264.39 343.84 265.39 345.24 266.27 346.73C261.13 352.24 243.14 371.54 240.57 374.3Z" id="al4Byax3e"></path></defs><g><g><g><use xlink:href="#f1kvPqpLLE" opacity="1" fill="#2f2e41" fill-opacity="1"></use><g><use xlink:href="#f1kvPqpLLE" opacity="1" fill-opacity="0" stroke="#000000" stroke-width="1" stroke-opacity="0"></use></g></g><g><use xlink:href="#b17mjQExY7" opacity="1" fill="#fbbebe" fill-opacity="1"></use><g><use xlink:href="#b17mjQExY7" opacity="1" fill-opacity="0" stroke="#000000" stroke-width="1" stroke-opacity="0"></use></g></g><g><use xlink:href="#a9vaKIPN2" opacity="1" fill="#fbbebe" fill-opacity="1"></use><g><use xlink:href="#a9vaKIPN2" opacity="1" fill-opacity="0" stroke="#000000" stroke-width="1" stroke-opacity="0"></use></g></g><g><use xlink:href="#bFCiLp9C3" opacity="1" fill="#fbbebe" fill-opacity="1"></use><g><use xlink:href="#bFCiLp9C3" opacity="1" fill-opacity="0" stroke="#000000" stroke-width="1" stroke-opacity="0"></use></g></g><g><use xlink:href="#abBThngQ" opacity="1" fill="#fbbebe" fill-opacity="1"></use><g><use xlink:href="#abBThngQ" opacity="1" fill-opacity="0" stroke="#000000" stroke-width="1" stroke-opacity="0"></use></g></g><g><use xlink:href="#c3zOUe4S6W" opacity="1" fill="#3ABDB2" fill-opacity="1"></use><g><use xlink:href="#c3zOUe4S6W" opacity="1" fill-opacity="0" stroke="#000000" stroke-width="1" stroke-opacity="0"></use></g></g><g><use xlink:href="#d1SeVEnJ2N" opacity="1" fill="#292b3d" fill-opacity="1"></use><g><use xlink:href="#d1SeVEnJ2N" opacity="1" fill-opacity="0" stroke="#000000" stroke-width="1" stroke-opacity="0"></use></g></g><g><use xlink:href="#e2Pmc4B4l0" opacity="1" fill="#3ABDB2" fill-opacity="1"></use><g><use xlink:href="#e2Pmc4B4l0" opacity="1" fill-opacity="0" stroke="#000000" stroke-width="1" stroke-opacity="0"></use></g></g><g><use xlink:href="#eTFaCQXV1" opacity="1" fill="#2f2e41" fill-opacity="1"></use><g><use xlink:href="#eTFaCQXV1" opacity="1" fill-opacity="0" stroke="#000000" stroke-width="1" stroke-opacity="0"></use></g></g><g><use xlink:href="#i487kCZVFr" opacity="1" fill="#3ABDB2" fill-opacity="1"></use><g><use xlink:href="#i487kCZVFr" opacity="1" fill-opacity="0" stroke="#000000" stroke-width="1" stroke-opacity="0"></use></g></g><g><use xlink:href="#d37zdb4Jt" opacity="1" fill="#292b3d" fill-opacity="1"></use><g><use xlink:href="#d37zdb4Jt" opacity="1" fill-opacity="0" stroke="#000000" stroke-width="1" stroke-opacity="0"></use></g></g><g><use xlink:href="#aLADMfph0" opacity="1" fill="#ffffff" fill-opacity="1"></use><g><use xlink:href="#aLADMfph0" opacity="1" fill-opacity="0" stroke="#000000" stroke-width="1" stroke-opacity="0"></use></g></g><g><use xlink:href="#g2177Sexx9" opacity="1" fill="#ffffff" fill-opacity="1"></use><g><use xlink:href="#g2177Sexx9" opacity="1" fill-opacity="0" stroke="#000000" stroke-width="1" stroke-opacity="0"></use></g></g><g><use xlink:href="#ahhlYX6tF" opacity="1" fill="#ffffff" fill-opacity="1"></use><g><use xlink:href="#ahhlYX6tF" opacity="1" fill-opacity="0" stroke="#000000" stroke-width="1" stroke-opacity="0"></use></g></g><g><use xlink:href="#d29smz8KIJ" opacity="1" fill="#ffffff" fill-opacity="1"></use><g><use xlink:href="#d29smz8KIJ" opacity="1" fill-opacity="0" stroke="#000000" stroke-width="1" stroke-opacity="0"></use></g></g><g><use xlink:href="#d482TcEmVc" opacity="1" fill="#ffffff" fill-opacity="1"></use><g><use xlink:href="#d482TcEmVc" opacity="1" fill-opacity="0" stroke="#000000" stroke-width="1" stroke-opacity="0"></use></g></g><g><use xlink:href="#c3src55ZEU" opacity="1" fill="#ffffff" fill-opacity="1"></use><g><use xlink:href="#c3src55ZEU" opacity="1" fill-opacity="0" stroke="#000000" stroke-width="1" stroke-opacity="0"></use></g></g><g><use xlink:href="#j5ojKB7I8u" opacity="1" fill="#3ABDB2" fill-opacity="1"></use><g><use xlink:href="#j5ojKB7I8u" opacity="1" fill-opacity="0" stroke="#000000" stroke-width="1" stroke-opacity="0"></use></g></g><g><use xlink:href="#al4Byax3e" opacity="1" fill="#ffffff" fill-opacity="1"></use><g><use xlink:href="#al4Byax3e" opacity="1" fill-opacity="0" stroke="#000000" stroke-width="1" stroke-opacity="0"></use></g></g></g></g></svg>