<svg width="977" height="977" viewBox="0 0 977 977" fill="none" xmlns="http://www.w3.org/2000/svg">
    <path d="M828.496 518.435C848.212 608.319 793.148 666.392 716.903 663.696C680.344 662.406 636.691 622.212 600.796 613.263C553.9 601.539 513.335 616.722 468.53 618.949C357.054 624.459 358.52 578.97 283.408 520.311C230.65 479.082 145.514 483.595 117.318 411.395C82.7713 323.133 181.8 280.477 257.029 293.569C343.474 308.576 367.411 200.949 499.442 212.869C629.188 224.593 800.73 382.984 828.496 518.435Z" fill="#3ABDB2"/>
    <path opacity="0.9" d="M828.496 518.435C848.212 608.319 793.148 666.392 716.903 663.696C680.344 662.406 636.691 622.212 600.796 613.263C553.9 601.539 513.335 616.722 468.53 618.949C357.054 624.459 358.52 578.97 283.408 520.311C230.65 479.082 145.514 483.595 117.318 411.395C82.7713 323.133 181.8 280.477 257.029 293.569C343.474 308.576 367.411 200.949 499.442 212.869C629.188 224.593 800.73 382.984 828.496 518.435Z" fill="white"/>
    <path d="M488.5 835.452C697.739 835.452 867.361 825.549 867.361 813.333C867.361 801.117 697.739 791.214 488.5 791.214C279.261 791.214 109.639 801.117 109.639 813.333C109.639 825.549 279.261 835.452 488.5 835.452Z" fill="#F5F5F5"/>
    <path d="M508.841 714.187H259.569C255.561 714.13 251.722 712.56 248.823 709.791C245.924 707.023 244.179 703.26 243.937 699.258L221.584 266.35C221.46 264.424 221.735 262.494 222.392 260.679C223.049 258.865 224.074 257.206 225.402 255.806C226.73 254.407 228.333 253.296 230.11 252.545C231.888 251.794 233.801 251.418 235.731 251.441H485.002C489.009 251.493 492.848 253.059 495.747 255.824C498.647 258.59 500.393 262.35 500.634 266.35L522.949 699.258C523.073 701.182 522.799 703.11 522.144 704.922C521.49 706.735 520.469 708.393 519.145 709.794C517.821 711.195 516.223 712.308 514.451 713.063C512.678 713.819 510.768 714.202 508.841 714.187V714.187Z" fill="#3ABDB2"/>
    <path opacity="0.8" d="M508.841 714.187H259.569C255.561 714.13 251.722 712.56 248.823 709.791C245.924 707.023 244.179 703.26 243.937 699.258L221.584 266.35C221.46 264.424 221.735 262.494 222.392 260.679C223.049 258.865 224.074 257.206 225.402 255.806C226.73 254.407 228.333 253.296 230.11 252.545C231.888 251.794 233.801 251.418 235.731 251.441H485.002C489.009 251.493 492.848 253.059 495.747 255.824C498.647 258.59 500.393 262.35 500.634 266.35L522.949 699.258C523.073 701.182 522.799 703.11 522.144 704.922C521.49 706.735 520.469 708.393 519.145 709.794C517.821 711.195 516.223 712.308 514.451 713.063C512.678 713.819 510.768 714.202 508.841 714.187V714.187Z" fill="white"/>
    <path d="M460.401 237.333H432.831V239.287H460.401V237.333Z" fill="#3ABDB2"/>
    <path d="M423.276 237.333H413.173V239.287H423.276V237.333Z" fill="#3ABDB2"/>
    <path d="M519.569 686.714H281.181C277.342 686.677 273.659 685.187 270.875 682.544C268.091 679.901 266.411 676.301 266.174 672.469L244.836 258.416C244.718 256.574 244.981 254.726 245.61 252.99C246.239 251.254 247.22 249.666 248.491 248.327C249.763 246.988 251.297 245.925 252.998 245.207C254.7 244.489 256.531 244.13 258.377 244.152H496.765C500.604 244.195 504.284 245.69 507.065 248.336C509.846 250.983 511.521 254.585 511.753 258.416L533.09 672.469C533.209 674.309 532.946 676.154 532.318 677.888C531.69 679.622 530.71 681.207 529.441 682.545C528.171 683.882 526.639 684.943 524.94 685.66C523.241 686.378 521.413 686.736 519.569 686.714Z" fill="#3ABDB2"/>
    <path d="M519.569 677.198H281.181C279.783 677.15 278.451 676.59 277.439 675.624C276.427 674.659 275.804 673.355 275.69 671.961L254.333 257.928C254.284 257.377 254.354 256.823 254.535 256.3C254.717 255.778 255.008 255.301 255.388 254.899C255.769 254.499 256.231 254.184 256.743 253.975C257.255 253.766 257.805 253.668 258.358 253.688H496.746C498.141 253.741 499.468 254.303 500.476 255.268C501.484 256.233 502.104 257.534 502.217 258.925L523.672 672.958C523.719 673.506 523.65 674.059 523.468 674.579C523.287 675.099 522.998 675.575 522.619 675.975C522.241 676.375 521.783 676.691 521.274 676.902C520.765 677.113 520.217 677.214 519.667 677.198H519.569ZM258.358 254.176C257.872 254.161 257.389 254.246 256.938 254.428C256.487 254.61 256.079 254.883 255.74 255.231C255.414 255.592 255.164 256.016 255.006 256.476C254.848 256.936 254.785 257.423 254.821 257.908L276.159 671.942C276.268 673.21 276.836 674.394 277.758 675.272C278.679 676.15 279.889 676.661 281.161 676.709H519.549C520.033 676.728 520.514 676.644 520.963 676.462C521.411 676.28 521.815 676.005 522.148 675.654C522.482 675.299 522.737 674.876 522.895 674.414C523.054 673.953 523.112 673.463 523.067 672.977L501.748 258.944C501.644 257.678 501.08 256.493 500.162 255.615C499.244 254.736 498.035 254.225 496.766 254.176H258.358Z" fill="white"/>
    <path opacity="0.3" d="M436.185 404.587C463.299 376.763 461.533 331.068 432.241 302.523C402.949 273.978 357.223 273.393 330.109 301.216C302.995 329.04 304.761 374.736 334.053 403.281C363.345 431.826 409.071 432.41 436.185 404.587Z" fill="white"/>
    <path d="M441.604 352.912C442.151 362.514 440.22 372.096 435.996 380.737C431.424 390.005 424.326 397.793 415.521 403.203C406.716 408.614 396.562 411.426 386.228 411.317C375.518 411.221 365.016 408.353 355.744 402.995C346.471 397.636 338.744 389.968 333.313 380.737C328.252 372.296 325.34 362.741 324.833 352.912C324.351 345.374 325.43 337.818 328.003 330.716C330.576 323.614 334.587 317.12 339.785 311.639C344.983 306.159 351.256 301.81 358.212 298.866C365.168 295.921 372.656 294.444 380.209 294.526C395.929 294.69 411.003 300.805 422.395 311.638C433.787 322.472 440.651 337.22 441.604 352.912V352.912Z" fill="white"/>
    <path d="M435.938 380.737C431.366 390.005 424.268 397.793 415.463 403.203C406.658 408.614 396.503 411.426 386.169 411.317C375.46 411.221 364.958 408.353 355.685 402.995C346.413 397.636 338.685 389.968 333.255 380.737C348.104 370.482 365.74 365.026 383.785 365.105C402.314 365.175 420.426 370.604 435.938 380.737V380.737Z" fill="#3ABDB2"/>
    <path d="M401.249 351.554C411.017 341.53 410.378 325.064 399.82 314.775C389.263 304.487 372.785 304.273 363.017 314.297C353.248 324.321 353.888 340.788 364.445 351.076C375.003 361.364 391.48 361.578 401.249 351.554Z" fill="#3ABDB2"/>
    <path d="M485.393 525.626H298.727C297.101 525.609 295.542 524.977 294.364 523.857C293.186 522.736 292.476 521.211 292.377 519.588L290.97 492.232C290.921 491.454 291.034 490.674 291.301 489.942C291.568 489.209 291.983 488.539 292.52 487.974C293.057 487.409 293.706 486.961 294.424 486.659C295.142 486.356 295.916 486.204 296.695 486.214H483.361C484.983 486.23 486.54 486.86 487.718 487.976C488.896 489.092 489.608 490.613 489.711 492.232L491.118 519.588C491.169 520.368 491.059 521.15 490.793 521.885C490.528 522.62 490.113 523.292 489.576 523.859C489.038 524.426 488.389 524.876 487.669 525.18C486.949 525.484 486.174 525.636 485.393 525.626V525.626Z" fill="white"/>
    <path opacity="0.3" d="M428.239 471.109H350.274C348.642 471.097 347.075 470.465 345.892 469.34C344.709 468.215 343.998 466.682 343.904 465.052L343.611 459.19C343.56 458.41 343.67 457.628 343.936 456.893C344.201 456.158 344.616 455.486 345.153 454.919C345.691 454.352 346.34 453.903 347.06 453.598C347.78 453.294 348.555 453.142 349.336 453.152H427.281C428.907 453.169 430.466 453.801 431.644 454.921C432.823 456.042 433.533 457.567 433.632 459.19L433.944 465.052C433.992 465.83 433.88 466.61 433.615 467.344C433.35 468.077 432.937 468.748 432.403 469.316C431.868 469.884 431.223 470.336 430.506 470.644C429.79 470.953 429.018 471.111 428.239 471.109V471.109Z" fill="black"/>
    <path opacity="0.3" d="M457.236 657.15H340.446C337.68 657.116 335.03 656.037 333.026 654.131C331.022 652.225 329.812 649.632 329.64 646.872L328.956 633.389C328.887 632.064 329.089 630.739 329.549 629.494C330.009 628.249 330.717 627.112 331.632 626.15C332.546 625.188 333.646 624.423 334.866 623.9C336.086 623.378 337.399 623.109 338.726 623.111H455.478C458.243 623.145 460.894 624.223 462.898 626.129C464.901 628.036 466.111 630.629 466.283 633.389L466.967 646.872C467.036 648.193 466.835 649.516 466.378 650.758C465.92 652 465.215 653.136 464.305 654.097C463.395 655.058 462.299 655.824 461.084 656.349C459.869 656.874 458.56 657.146 457.236 657.15V657.15Z" fill="black"/>
    <path d="M488.813 591.788H302.128C300.503 591.767 298.947 591.133 297.769 590.014C296.592 588.895 295.88 587.372 295.777 585.751L294.37 558.395C294.322 557.615 294.435 556.835 294.701 556.101C294.968 555.367 295.382 554.697 295.919 554.13C296.456 553.564 297.104 553.114 297.823 552.809C298.541 552.504 299.315 552.35 300.096 552.357H486.761C488.387 552.373 489.946 553.006 491.124 554.126C492.303 555.246 493.013 556.772 493.112 558.395L494.538 585.751C494.583 586.529 494.469 587.308 494.201 588.041C493.934 588.773 493.519 589.443 492.982 590.009C492.446 590.574 491.799 591.024 491.082 591.33C490.365 591.637 489.593 591.792 488.813 591.788V591.788Z" fill="white"/>
    <path d="M322.41 505.91C322.464 506.774 322.339 507.639 322.043 508.452C321.748 509.265 321.287 510.008 320.691 510.636C320.095 511.263 319.376 511.76 318.579 512.097C317.783 512.434 316.925 512.602 316.06 512.593C314.262 512.571 312.54 511.87 311.238 510.631C309.937 509.391 309.153 507.704 309.045 505.91C308.988 505.048 309.11 504.183 309.404 503.37C309.697 502.557 310.156 501.813 310.75 501.186C311.345 500.558 312.062 500.06 312.858 499.723C313.654 499.386 314.511 499.218 315.376 499.227C317.175 499.249 318.9 499.949 320.204 501.188C321.509 502.428 322.297 504.114 322.41 505.91V505.91Z" fill="#263238"/>
    <path d="M342.986 505.91C343.042 506.773 342.92 507.637 342.627 508.451C342.333 509.264 341.875 510.007 341.28 510.635C340.686 511.262 339.968 511.76 339.172 512.097C338.376 512.434 337.519 512.603 336.655 512.593C334.856 512.576 333.131 511.876 331.829 510.636C330.526 509.395 329.744 507.706 329.64 505.91C329.583 505.048 329.706 504.183 329.999 503.37C330.293 502.557 330.751 501.813 331.345 501.186C331.94 500.558 332.658 500.06 333.454 499.723C334.25 499.386 335.107 499.218 335.971 499.227C337.77 499.244 339.495 499.944 340.797 501.185C342.099 502.425 342.882 504.114 342.986 505.91V505.91Z" fill="#263238"/>
    <path d="M363.444 505.91C363.501 506.773 363.378 507.638 363.085 508.451C362.791 509.264 362.333 510.007 361.738 510.635C361.144 511.262 360.426 511.76 359.63 512.097C358.834 512.434 357.977 512.603 357.113 512.593C355.314 512.572 353.589 511.871 352.284 510.632C350.98 509.393 350.192 507.706 350.079 505.91C350.025 505.047 350.15 504.181 350.445 503.368C350.741 502.555 351.201 501.812 351.797 501.185C352.393 500.558 353.112 500.06 353.909 499.723C354.706 499.387 355.564 499.218 356.429 499.227C358.226 499.249 359.949 499.95 361.25 501.19C362.552 502.43 363.335 504.116 363.444 505.91Z" fill="#263238"/>
    <path d="M384.059 505.91C384.112 506.772 383.988 507.636 383.693 508.447C383.399 509.259 382.94 510.001 382.347 510.628C381.753 511.255 381.036 511.753 380.241 512.091C379.447 512.429 378.591 512.6 377.728 512.593C375.928 512.572 374.204 511.871 372.899 510.632C371.594 509.393 370.807 507.706 370.693 505.91C370.64 505.048 370.764 504.185 371.058 503.373C371.353 502.561 371.812 501.819 372.405 501.192C372.999 500.565 373.716 500.067 374.51 499.729C375.305 499.391 376.161 499.22 377.024 499.227C378.824 499.249 380.548 499.949 381.853 501.188C383.158 502.428 383.945 504.114 384.059 505.91V505.91Z" fill="#263238"/>
    <path d="M325.869 572.033C325.925 572.896 325.803 573.761 325.51 574.574C325.216 575.387 324.758 576.13 324.163 576.758C323.569 577.385 322.851 577.883 322.055 578.22C321.259 578.557 320.402 578.726 319.538 578.716C317.739 578.695 316.014 577.995 314.709 576.755C313.405 575.516 312.617 573.829 312.503 572.033C312.45 571.17 312.574 570.305 312.87 569.492C313.166 568.679 313.626 567.935 314.222 567.308C314.818 566.681 315.537 566.183 316.334 565.847C317.131 565.51 317.989 565.341 318.854 565.351C320.651 565.372 322.374 566.073 323.675 567.313C324.977 568.553 325.76 570.239 325.869 572.033Z" fill="#263238"/>
    <path d="M346.405 572.033C346.459 572.895 346.335 573.759 346.04 574.571C345.745 575.382 345.287 576.125 344.693 576.752C344.099 577.379 343.383 577.877 342.588 578.214C341.793 578.552 340.938 578.723 340.074 578.716C338.275 578.695 336.55 577.995 335.246 576.755C333.941 575.516 333.153 573.829 333.04 572.033C332.983 571.171 333.106 570.306 333.399 569.493C333.692 568.68 334.151 567.936 334.745 567.309C335.34 566.681 336.057 566.184 336.853 565.847C337.649 565.51 338.506 565.341 339.371 565.351C341.17 565.372 342.895 566.072 344.199 567.312C345.504 568.551 346.292 570.238 346.405 572.033Z" fill="#263238"/>
    <path d="M366.942 572.033C366.996 572.897 366.871 573.762 366.575 574.575C366.279 575.388 365.819 576.132 365.223 576.759C364.627 577.386 363.908 577.884 363.111 578.22C362.314 578.557 361.456 578.726 360.591 578.716C358.793 578.699 357.068 578 355.765 576.759C354.463 575.518 353.68 573.829 353.576 572.033C353.52 571.171 353.642 570.306 353.936 569.493C354.229 568.68 354.687 567.936 355.282 567.309C355.876 566.681 356.594 566.184 357.39 565.847C358.186 565.51 359.043 565.341 359.907 565.351C361.707 565.372 363.432 566.072 364.736 567.312C366.041 568.551 366.829 570.238 366.942 572.033Z" fill="#263238"/>
    <path d="M387.459 572.033C387.515 572.896 387.393 573.761 387.099 574.574C386.806 575.387 386.348 576.13 385.753 576.758C385.159 577.385 384.441 577.883 383.645 578.22C382.849 578.557 381.992 578.726 381.128 578.716C379.328 578.695 377.604 577.995 376.299 576.755C374.994 575.516 374.206 573.829 374.093 572.033C374.039 571.17 374.164 570.305 374.46 569.492C374.756 568.679 375.216 567.935 375.812 567.308C376.408 566.681 377.127 566.183 377.924 565.847C378.721 565.51 379.579 565.341 380.444 565.351C382.242 565.368 383.968 566.067 385.27 567.308C386.572 568.549 387.355 570.238 387.459 572.033Z" fill="#263238"/>
    <path d="M407.995 572.033C408.052 572.896 407.929 573.761 407.636 574.574C407.343 575.387 406.884 576.131 406.29 576.758C405.695 577.386 404.978 577.883 404.182 578.22C403.386 578.557 402.529 578.726 401.664 578.716C399.865 578.695 398.14 577.995 396.836 576.755C395.531 575.516 394.743 573.829 394.63 572.033C394.576 571.172 394.7 570.308 394.995 569.496C395.29 568.685 395.748 567.942 396.342 567.315C396.936 566.688 397.652 566.19 398.447 565.853C399.242 565.515 400.097 565.344 400.961 565.351C402.76 565.372 404.485 566.072 405.789 567.312C407.094 568.551 407.882 570.238 407.995 572.033Z" fill="#263238"/>
    <path d="M428.532 572.033C428.586 572.897 428.461 573.762 428.165 574.575C427.87 575.388 427.409 576.132 426.813 576.759C426.217 577.386 425.498 577.884 424.702 578.22C423.905 578.557 423.047 578.726 422.182 578.716C420.384 578.695 418.662 577.994 417.36 576.754C416.059 575.514 415.275 573.828 415.167 572.033C415.11 571.171 415.232 570.306 415.526 569.493C415.819 568.68 416.278 567.936 416.872 567.309C417.467 566.681 418.184 566.184 418.98 565.847C419.776 565.51 420.633 565.341 421.498 565.351C423.297 565.372 425.022 566.072 426.326 567.312C427.631 568.551 428.419 570.238 428.532 572.033V572.033Z" fill="#263238"/>
    <path d="M650.682 345.115C651.171 345.858 651.425 346.249 651.737 346.776L652.616 348.222C653.183 349.199 653.691 350.176 654.18 351.134C655.157 353.088 656.134 355.042 656.915 356.996C658.553 360.877 659.963 364.85 661.136 368.896C663.502 376.887 665.06 385.096 665.786 393.399L665.923 394.942C665.94 395.255 665.94 395.568 665.923 395.88V396.916C665.956 398.275 665.877 399.634 665.689 400.98C665.314 403.476 664.659 405.921 663.735 408.269C662.018 412.463 659.744 416.406 656.974 419.993C651.807 426.61 645.674 432.413 638.782 437.207L633.389 430.896C638.297 425.354 642.643 419.338 646.364 412.939C648.038 410.036 649.351 406.938 650.272 403.716C650.645 402.351 650.861 400.948 650.917 399.534C650.977 398.93 650.977 398.321 650.917 397.717V397.307C650.936 397.125 650.936 396.942 650.917 396.76L650.682 395.392C649.425 388.11 647.649 380.927 645.367 373.898C644.234 370.4 642.847 367.02 641.459 363.718C640.775 362.057 639.994 360.435 639.212 358.872L638.001 356.566L637.395 355.491L636.887 354.631L650.682 345.115Z" fill="#FBBEBE"/>
    <path d="M632.51 437.247L639.584 452.195L645.192 439.552C645.192 439.552 640.209 428.61 633.468 429.626L632.51 437.247Z" fill="#FBBEBE"/>
    <path d="M644.645 452.937L650.272 443.714L645.192 439.552L639.584 452.195L644.645 452.937Z" fill="#FBBEBE"/>
    <path d="M612.833 797.662C614.296 797.625 615.751 797.429 617.171 797.076C617.243 797.054 617.308 797.013 617.359 796.958C617.411 796.904 617.447 796.836 617.464 796.763C617.476 796.688 617.466 796.611 617.435 796.541C617.403 796.472 617.353 796.413 617.288 796.372C616.722 796.001 611.759 792.796 609.844 793.656C609.632 793.755 609.449 793.909 609.315 794.101C609.182 794.293 609.101 794.517 609.082 794.75C609.022 795.104 609.05 795.467 609.163 795.807C609.275 796.148 609.468 796.456 609.726 796.704C610.612 797.389 611.716 797.729 612.833 797.662V797.662ZM616.057 796.509C613.224 797.095 611.075 796.998 610.195 796.235C610.016 796.057 609.884 795.837 609.813 795.594C609.741 795.352 609.731 795.095 609.785 794.848C609.785 794.516 609.98 794.418 610.117 794.36C611.172 793.891 614.045 795.278 616.057 796.509V796.509Z" fill="#3ABDB2"/>
    <path d="M617.073 797.076H617.269C617.327 797.037 617.376 796.985 617.41 796.924C617.444 796.863 617.463 796.794 617.464 796.724C617.464 796.529 617.464 791.819 615.666 790.237C615.446 790.038 615.185 789.89 614.902 789.803C614.618 789.715 614.319 789.69 614.025 789.729C613.717 789.731 613.419 789.839 613.181 790.035C612.942 790.23 612.778 790.502 612.716 790.803C612.345 792.66 615.315 796.177 616.878 797.076H617.073ZM614.279 790.452C614.437 790.447 614.595 790.474 614.742 790.531C614.89 790.588 615.025 790.674 615.139 790.784C616.17 792.304 616.702 794.106 616.663 795.942C615.1 794.692 613.243 792.034 613.478 790.921C613.478 790.745 613.615 790.51 614.103 790.452H614.279Z" fill="#3ABDB2"/>
    <path d="M594.388 789.689C594.434 789.632 594.464 789.564 594.474 789.491C594.484 789.418 594.475 789.344 594.447 789.277C594.419 789.209 594.374 789.15 594.315 789.105C594.257 789.061 594.187 789.033 594.114 789.025C593.313 789.025 586.298 788.693 584.696 790.412V790.53C584.564 790.699 584.478 790.899 584.447 791.112C584.416 791.325 584.441 791.541 584.52 791.741C584.625 792.077 584.809 792.382 585.057 792.63C585.306 792.879 585.611 793.063 585.947 793.168C588.213 793.871 592.219 791.311 594.407 789.729L594.388 789.689ZM585.282 790.92C586.162 789.983 590.03 789.729 592.922 789.768C589.894 791.839 587.373 792.816 586.103 792.425C585.882 792.358 585.68 792.237 585.516 792.074C585.353 791.91 585.232 791.709 585.165 791.487C585.126 791.412 585.105 791.328 585.105 791.243C585.105 791.158 585.126 791.074 585.165 790.999L585.282 790.92Z" fill="#3ABDB2"/>
    <path d="M594.387 789.69C594.417 789.629 594.432 789.562 594.432 789.494C594.432 789.426 594.417 789.36 594.387 789.299C594.29 789.142 592.101 785.391 589.522 784.609C589.152 784.501 588.763 784.469 588.38 784.516C587.997 784.563 587.627 784.688 587.294 784.883C586.356 785.43 586.298 786.075 586.415 786.485C586.923 788.302 591.906 789.904 594.055 789.885C594.123 789.884 594.189 789.865 594.247 789.831C594.305 789.797 594.354 789.748 594.387 789.69ZM587.373 785.782C587.483 785.673 587.608 785.581 587.744 785.508C587.985 785.354 588.257 785.255 588.541 785.218C588.824 785.181 589.113 785.207 589.385 785.293C591.085 785.743 592.668 787.931 593.391 789.006C591.066 788.752 587.529 787.325 587.236 786.231C587.211 786.148 587.211 786.059 587.235 785.976C587.259 785.893 587.307 785.819 587.373 785.762V785.782Z" fill="#3ABDB2"/>
    <path d="M615.901 287.883C613.947 297.653 609.726 318.776 616.507 325.263C616.507 325.263 613.849 335.033 595.814 335.033C575.961 335.033 586.337 325.263 586.337 325.263C597.162 322.684 596.889 314.633 594.993 307.091L615.901 287.883Z" fill="#FBBEBE"/>
    <path d="M582.839 264.982C582.949 265 583.061 265 583.171 264.982C583.264 264.936 583.347 264.873 583.415 264.795C583.483 264.717 583.535 264.626 583.568 264.528C583.6 264.43 583.613 264.326 583.606 264.223C583.598 264.12 583.57 264.019 583.523 263.927C582.998 262.812 582.212 261.84 581.233 261.092C580.254 260.344 579.109 259.842 577.896 259.628C577.692 259.611 577.49 259.672 577.33 259.799C577.17 259.926 577.065 260.11 577.036 260.312C577.014 260.516 577.073 260.721 577.201 260.882C577.329 261.043 577.515 261.147 577.72 261.172V261.172C578.678 261.356 579.578 261.765 580.346 262.367C581.114 262.968 581.728 263.744 582.136 264.63C582.211 264.746 582.316 264.839 582.44 264.901C582.564 264.963 582.701 264.991 582.839 264.982Z" fill="#263238"/>
    <path d="M576.919 273.56C575.38 276.412 573.461 279.042 571.213 281.376C571.821 281.933 572.544 282.351 573.33 282.6C574.116 282.85 574.947 282.926 575.766 282.822L576.919 273.56Z" fill="#FBBEBE"/>
    <path d="M578.384 271.352C578.228 272.661 577.388 273.638 576.547 273.54C575.707 273.443 575.121 272.29 575.277 270.981C575.434 269.672 576.274 268.695 577.231 268.792C578.189 268.89 578.521 270.043 578.384 271.352Z" fill="#263238"/>
    <path d="M577.485 268.909L574.476 267.698C574.476 267.698 575.746 270.277 577.485 268.909Z" fill="#263238"/>
    <path d="M611.641 785.977L595.697 789.69L586.005 753.032L601.95 749.32L611.641 785.977Z" fill="#FBBEBE"/>
    <path d="M636.105 796.685H619.75L621.021 758.797H637.395L636.105 796.685Z" fill="#FBBEBE"/>
    <path d="M618.441 794.789H636.828C637.147 794.787 637.456 794.9 637.697 795.109C637.938 795.317 638.095 795.607 638.138 795.923L640.228 810.461C640.27 810.828 640.233 811.2 640.12 811.553C640.007 811.905 639.821 812.23 639.573 812.505C639.326 812.78 639.023 812.999 638.685 813.149C638.346 813.298 637.98 813.374 637.61 813.372C631.201 813.274 628.114 812.884 620.024 812.884C615.041 812.884 607.772 813.411 600.914 813.411C594.055 813.411 593.665 806.611 596.537 806.005C609.355 803.231 611.387 799.44 615.706 795.806C616.469 795.154 617.438 794.794 618.441 794.789Z" fill="#263238"/>
    <path d="M594.29 787.247L610.996 779.568C611.28 779.433 611.604 779.406 611.906 779.492C612.208 779.578 612.468 779.772 612.638 780.037L620.63 792.386C620.816 792.704 620.934 793.057 620.976 793.424C621.018 793.79 620.982 794.161 620.872 794.512C620.761 794.864 620.578 795.189 620.335 795.465C620.091 795.742 619.792 795.964 619.457 796.118C613.595 798.697 610.625 799.655 603.278 803.035C598.764 805.107 589.6 809.874 583.386 812.805C577.173 815.736 573.968 809.659 576.313 807.901C586.806 800.085 589.815 794.477 592.218 789.377C592.625 788.437 593.362 787.68 594.29 787.247V787.247Z" fill="#263238"/>
    <path opacity="0.2" d="M586.005 753.032L591.203 772.69L606.952 768.215L601.969 749.32L586.005 753.032Z" fill="black"/>
    <path opacity="0.2" d="M637.395 758.797H621.021L620.376 778.337H636.75L637.395 758.797Z" fill="black"/>
    <path d="M644.82 328.975C651.62 330.48 658.889 354.925 658.889 354.925L639.661 375.383C639.661 375.383 623.697 352.404 626.96 343.963C630.263 335.15 636.711 327.217 644.82 328.975Z" fill="#263238"/>
    <path opacity="0.4" d="M633.956 344.549C630.517 341.403 628.191 342.341 626.609 344.842C625.045 352.111 634.307 367.332 638.04 373.097C639.759 366.219 641.733 351.72 633.956 344.549Z" fill="black"/>
    <path d="M558.668 329.464C558.668 329.464 550.852 332.2 566.484 428.239H632.92C631.807 401.195 631.768 384.508 644.644 328.975C635.335 327.055 625.898 325.814 616.409 325.263C606.365 324.539 596.283 324.539 586.239 325.263C573.362 326.455 558.668 329.464 558.668 329.464Z" fill="#263238"/>
    <path opacity="0.4" d="M558.062 366.316C558.492 370.986 559.059 376.243 559.802 382.183C565.253 377.278 569.708 363.327 568.067 355.198C564.172 358.359 560.797 362.111 558.062 366.316Z" fill="black"/>
    <path d="M565.175 351.72C561.59 360.743 557.553 369.58 553.08 378.197C548.658 387.125 543.425 395.628 537.448 403.599L536.197 405.142L535.572 405.904C535.357 406.158 535.181 406.393 534.849 406.745C533.673 408.028 532.363 409.181 530.941 410.184C528.427 411.923 525.677 413.292 522.773 414.248C517.709 415.865 512.452 416.798 507.141 417.023C497.195 417.418 487.239 416.532 477.519 414.385L478.593 406.178C483.087 406.178 487.797 406.178 492.271 405.807C496.765 405.586 501.242 405.09 505.676 404.322C509.794 403.679 513.821 402.551 517.673 400.961C519.229 400.296 520.683 399.415 521.992 398.342C522.491 397.924 522.943 397.452 523.34 396.936C523.34 396.936 523.574 396.623 523.731 396.408L524.18 395.763L525.098 394.474C530.002 386.9 534.37 378.993 538.171 370.811C542.079 362.506 545.987 353.889 549.563 345.409L565.175 351.72Z" fill="#FBBEBE"/>
    <path d="M558.668 329.464C550.52 331.418 540.516 353.772 540.516 353.772L557.398 378.587C557.398 378.587 579.889 350.274 577.212 341.637C574.476 332.629 568.614 327.041 558.668 329.464Z" fill="#263238"/>
    <path d="M483.283 407.429L469.194 400.922L467.788 414.932C467.788 414.932 479.512 418.39 485.374 414.932L483.283 407.429Z" fill="#FBBEBE"/>
    <path d="M460.773 399.515L459.425 410.184L467.788 414.932L469.195 400.922L460.773 399.515Z" fill="#FBBEBE"/>
    <path d="M622.975 272.309C619.985 288.274 619.067 295.113 609.922 302.362C596.244 313.265 577.193 306.114 575.356 289.583C573.675 274.693 578.834 251.089 595.384 246.595C599.03 245.589 602.873 245.534 606.546 246.435C610.219 247.336 613.6 249.162 616.367 251.741C619.133 254.319 621.193 257.564 622.35 261.164C623.507 264.765 623.722 268.602 622.975 272.309V272.309Z" fill="#FBBEBE"/>
    <path d="M587.9 275.67C586.982 283.819 586.63 304.98 604.529 305.645C626.433 306.446 632.998 287.727 631.044 280.243C642.456 270.961 644.097 254.997 631.279 242.785C618.461 230.572 590.245 237.391 582.429 249.291C572.522 264.044 587.9 275.67 587.9 275.67Z" fill="#263238"/>
    <path d="M609.844 247.533C608.789 238.935 609.609 233.014 617.66 233.014C625.71 233.014 636.692 235.926 640.717 244.152C644.742 252.379 645.074 265.256 633.839 263.946C622.603 262.637 611.114 257.811 609.844 247.533Z" fill="#3ABDB2"/>
    <path d="M622.31 245.461C620.356 235.223 629.521 206.381 651.777 204.427C662.094 203.548 666.862 214.647 661.547 216.484C671.317 216.366 677.57 229.282 668.464 231.217C675.655 235.828 673.876 245.286 663.618 249.936C655.978 253.453 624.948 259.648 622.31 245.461Z" fill="#263238"/>
    <path d="M646.09 256.463C638.919 256.463 631.435 255.407 626.785 252.3C625.484 251.517 624.39 250.434 623.591 249.143C622.793 247.852 622.313 246.389 622.193 244.875C622.187 244.747 622.23 244.621 622.314 244.523C622.397 244.425 622.514 244.362 622.642 244.348C622.707 244.34 622.773 244.345 622.835 244.364C622.898 244.382 622.956 244.414 623.005 244.456C623.055 244.498 623.095 244.55 623.124 244.609C623.152 244.668 623.168 244.732 623.17 244.797C623.288 246.163 623.726 247.482 624.449 248.646C625.172 249.811 626.16 250.788 627.332 251.499C636.183 257.361 656.642 255.407 663.012 253.453C668.522 251.656 672.254 248.158 672.997 244.133C673.228 242.656 673.046 241.143 672.47 239.764C671.894 238.384 670.947 237.191 669.734 236.317C669.687 236.273 669.65 236.22 669.624 236.161C669.599 236.102 669.586 236.039 669.586 235.975C669.586 235.911 669.599 235.847 669.624 235.789C669.65 235.73 669.687 235.677 669.734 235.633C669.825 235.543 669.948 235.493 670.076 235.493C670.203 235.493 670.326 235.543 670.418 235.633C671.782 236.628 672.842 237.983 673.48 239.546C674.119 241.109 674.31 242.819 674.032 244.485C673.231 248.881 669.265 252.633 663.403 254.548C657.746 255.973 651.921 256.618 646.09 256.463V256.463Z" fill="#263238"/>
    <path d="M582.918 273.56C581.098 276.112 580.348 279.275 580.827 282.373C581.472 286.476 585.458 286.75 588.35 284.131C591.242 281.513 593.762 276.784 591.632 273.384C591.159 272.65 590.506 272.049 589.734 271.638C588.963 271.228 588.099 271.021 587.226 271.039C586.352 271.057 585.498 271.298 584.744 271.739C583.99 272.18 583.361 272.807 582.918 273.56Z" fill="#FBBEBE"/>
    <path d="M584.031 428.239C584.031 428.239 593.528 540.574 603.395 603.884C611.348 655.02 617.64 774.546 617.64 774.546H639.955C639.955 774.546 647.888 658.596 643.863 608.026C633.643 480.039 656.446 469.605 632.979 428.258L584.031 428.239Z" fill="#3ABDB2"/>
    <path opacity="0.4" d="M612.13 470.699C603.286 479.981 596.149 490.749 591.046 502.51C593.645 527.756 596.732 555.776 600.015 580.318C613.485 545.446 617.66 507.671 612.13 470.699V470.699Z" fill="black"/>
    <path d="M568.419 427.535C568.419 427.535 547.804 550.227 544.561 605.525C552.65 656.661 585.751 764.757 585.751 764.757L606.053 757.39C606.053 757.39 594.817 639.525 582.605 607.264C610.098 514.703 630.302 491.294 624.42 428.239C610.332 428.239 568.419 427.535 568.419 427.535Z" fill="#3ABDB2"/>
    <path d="M583.035 770.149L610.469 762.705L608.906 751.762L579.537 759.715L583.035 770.149Z" fill="#263238"/>
    <path d="M614.572 774.995H643.003L644.488 765.03L614.416 764.014L614.572 774.995Z" fill="#263238"/>
    <path d="M633.956 424.331L636.946 430.29C637.18 430.759 636.633 431.228 635.871 431.228H566.152C565.566 431.228 565.058 430.935 565.019 430.544L564.413 424.682C564.413 424.272 564.902 423.92 565.546 423.92H632.862C633.064 423.893 633.27 423.916 633.461 423.987C633.652 424.059 633.822 424.177 633.956 424.331V424.331Z" fill="#3ABDB2"/>
    <path opacity="0.5" d="M633.956 424.331L636.946 430.29C637.18 430.759 636.633 431.228 635.871 431.228H566.152C565.566 431.228 565.058 430.935 565.019 430.544L564.413 424.682C564.413 424.272 564.902 423.92 565.546 423.92H632.862C633.064 423.893 633.27 423.916 633.461 423.987C633.652 424.059 633.822 424.177 633.956 424.331V424.331Z" fill="black"/>
    <path d="M624.909 431.834H626.707C627.078 431.834 627.351 431.639 627.332 431.424L626.472 423.608C626.472 423.373 626.14 423.197 625.788 423.197H623.971C623.619 423.197 623.346 423.373 623.365 423.608L624.206 431.424C624.245 431.678 624.557 431.834 624.909 431.834Z" fill="#3ABDB2"/>
    <path d="M600.718 374.934C600.503 374.93 600.294 374.858 600.121 374.728C599.949 374.598 599.823 374.417 599.761 374.211C593.391 350.645 580.221 331.223 573.831 328.292C573.335 327.987 572.738 327.888 572.17 328.018C572.052 328.08 571.923 328.118 571.79 328.128C571.657 328.138 571.523 328.121 571.397 328.078C571.271 328.034 571.155 327.965 571.057 327.876C570.958 327.786 570.879 327.677 570.824 327.555C570.769 327.433 570.74 327.302 570.738 327.168C570.736 327.035 570.761 326.903 570.812 326.78C570.863 326.656 570.939 326.545 571.035 326.452C571.131 326.359 571.244 326.287 571.369 326.24C571.903 326.044 572.474 325.967 573.041 326.014C573.608 326.061 574.158 326.232 574.652 326.513C581.413 329.718 594.778 348.867 601.461 372.96C606.248 372.96 613.634 372.315 615.432 372.159C617.659 369.501 634.034 349.023 627.918 326.611C627.883 326.488 627.872 326.359 627.888 326.232C627.903 326.104 627.944 325.982 628.008 325.87C628.072 325.759 628.157 325.662 628.259 325.585C628.361 325.507 628.478 325.451 628.602 325.419C628.851 325.353 629.115 325.388 629.338 325.516C629.562 325.644 629.725 325.855 629.794 326.103C636.613 351.036 616.839 373.527 616.624 373.742C616.548 373.836 616.453 373.915 616.345 373.972C616.238 374.029 616.12 374.064 615.999 374.074C615.901 374.074 606.15 374.934 600.718 374.934Z" fill="#3ABDB2"/>
    <path d="M633.097 388.729C622.447 368.778 618.09 367.372 616.195 360.962C617.631 357.378 619.68 354.072 622.252 351.192C620.962 350.821 618.188 350.274 616.39 349.942C616.585 349.063 616.8 348.203 616.996 347.363C615.04 347.144 613.061 347.236 611.134 347.636V345.682C608.652 345.142 606.103 344.977 603.572 345.194C603.793 346.119 604.008 347.056 604.217 348.007C602.263 348.379 599.292 348.984 597.866 349.395C600.638 352.534 602.674 356.252 603.826 360.279C598.081 370.146 575.766 433.573 612.072 438.439C648.377 443.304 643.726 408.699 633.097 388.729Z" fill="#3ABDB2"/>
    <path opacity="0.4" d="M633.097 388.729C622.447 368.778 618.09 367.372 616.195 360.962C617.631 357.378 619.68 354.072 622.252 351.192C620.962 350.821 618.188 350.274 616.39 349.942C616.585 349.063 616.8 348.203 616.996 347.363C615.04 347.144 613.061 347.236 611.134 347.636V345.682C608.652 345.142 606.103 344.977 603.572 345.194C603.793 346.119 604.008 347.056 604.217 348.007C602.263 348.379 599.292 348.984 597.866 349.395C600.638 352.534 602.674 356.252 603.826 360.279C598.081 370.146 575.766 433.573 612.072 438.439C648.377 443.304 643.726 408.699 633.097 388.729Z" fill="white"/>
    <path d="M602.341 358.383C602.115 359.389 602.016 360.42 602.048 361.451C602.048 362.174 604.002 362.662 606.171 362.877C608.34 363.092 617.445 363.444 617.152 362.428C616.859 361.412 617.601 360.024 617.641 359.165C617.68 358.305 614.026 358.266 610.958 358.383C607.89 358.5 602.947 357.289 602.341 358.383Z" fill="#3ABDB2"/>
    <path d="M581.218 431.834H583.015C583.367 431.834 583.64 431.639 583.621 431.424L582.781 423.608C582.781 423.373 582.449 423.197 582.077 423.197H580.338C579.986 423.197 579.713 423.373 579.732 423.608L580.573 431.424C580.534 431.678 580.846 431.834 581.218 431.834Z" fill="#3ABDB2"/>
</svg>
