<?xml version="1.0" encoding="utf-8"?>
<!-- Generator: Adobe Illustrator 21.1.0, SVG Export Plug-In . SVG Version: 6.00 Build 0)  -->
<svg version="1.1" id="Layer_1" xmlns="http://www.w3.org/2000/svg" xmlns:xlink="http://www.w3.org/1999/xlink" x="0px" y="0px"
	 viewBox="0 0 421.8 421.8" style="enable-background:new 0 0 421.8 421.8;" xml:space="preserve">
<style type="text/css">
	.st0{fill:#E5C076;}
	.st1{fill:#C49D57;}
	.st2{fill:#CFA757;}
	.st3{fill:#98722E;}
	.st4{fill:#9BA855;}
	.st5{fill:none;stroke:#89933E;stroke-width:2.34;}
	.st6{fill:#89933E;}
	.st7{fill:#93BA5A;}
	.st8{fill:none;stroke:#A2CD69;stroke-width:1.17;}
	.st9{fill:#E26B50;}
	.st10{fill:#CB573F;}
	.st11{fill:#EA7E6A;}
	.st12{fill:#C14B35;}
	.st13{fill:#AE4938;}
	.st14{fill:none;stroke:#AE4938;stroke-width:14.05; stroke-linecap: round;}
	.st15{fill:#9B3726;}
	.st16{fill:none;stroke:#F7AC06;stroke-width:16; stroke-linecap: round;}
	.st17{fill:#F7AC06;}
	.st18{fill:none;stroke:#F8CC6C;stroke-width:7.03; stroke-linecap: round;}
</style>
<path id="aGyGYVtot" d="M-109.1-109.1"/>
	<path id="b1bmTkEwbA" class="st0" d="M91.6,288.9c-27.8,0-50.3-22.6-50.3-50.3c0-5.5,0-49.8,0-55.4c0-27.8,22.6-50.3,50.3-50.3
		c27,0,211.4,0,238.5,0c27.8,0,50.3,22.6,50.3,50.3c0,5.5,0,49.8,0,55.4c0,27.8-22.6,50.3-50.3,50.3
		C276,288.9,118.7,288.9,91.6,288.9z"/>
	<path id="a57zx5IQrA" class="st1" d="M68.1,273.3c-11.6,0-20.8-9.4-20.8-20.8c0-8.1,0-72.9,0-81c0-11.6,9.4-20.8,20.8-20.8
		c31.7,0,253.6,0,285.3,0c11.6,0,20.8,9.4,20.8,20.8c0,8.1,0,72.8,0,80.9c0.1,11.6-9.3,20.9-20.8,20.9
		C290.1,273.3,99.9,273.3,68.1,273.3z"/>
	<path id="b8wlNTP0rZ" class="st2" d="M41.2,238.6c0,3.1,0.3,6.1,0.8,9c37,0,300.6,0,337.5,0c0.5-2.9,0.8-5.9,0.8-9
		c0-2.4,0-14.7,0-36.7H41.2C41.2,223.9,41.2,236.1,41.2,238.6z"/>
	<path id="lvG4Ipsyc" class="st3" d="M340.6,205.2l1.2,0.2l1.2,0.2l1.2,0.2l1.2,0.3l1.1,0.3l1.1,0.4l1.1,0.5l1,0.5l1,0.6l1,0.5
		l1,0.6l0.9,0.6l0.9,0.6l1,0.7l0.9,0.7l0.9,0.8l0.9,0.8l0.8,0.9l0.8,0.9l0.7,0.9l0.7,0.9l0.6,0.9l0.6,1l0.6,1l0.5,1l0.6,1l0.5,1
		l0.5,1.1l0.4,1.1l0.4,1.1l0.3,1.2l0.2,1.2l0.2,1.2l0.2,1.2l0.2,1.2l0.1,1.3v1.3v1.3l-0.1,1.2l-0.2,1.2l-0.2,1.2l-0.2,1.2l-0.2,1.2
		l-0.3,1.2l-0.4,1.1l-0.4,1.1l-0.5,1.1l-0.5,1.1l-0.6,1l-0.5,1l-0.6,1l-0.6,0.9l-0.6,0.9l-0.7,0.9l-0.7,0.9l-0.8,0.9l-0.8,0.9
		l-0.9,0.8l-0.9,0.8l-0.9,0.7l-1,0.7l-0.9,0.7l-0.9,0.6l-1,0.5l-1,0.6l-1,0.5l-1,0.5l-1.1,0.5l-1.1,0.4l-1.1,0.3l-1.2,0.3l-1.2,0.2
		l-1.2,0.2l-1.2,0.1l-1.2,0.2l-1.3,0.1h-1.3h-1.3l-1.2-0.1l-1.2-0.2l-1.2-0.1l-1.2-0.2l-1.2-0.2l-1.2-0.3l-1.1-0.3l-1.1-0.4
		l-1.1-0.5l-1.1-0.5l-1-0.5l-1-0.6l-1-0.5l-0.9-0.6l-1-0.7l-0.9-0.7l-0.9-0.7l-0.7-1l-0.6-0.6l-0.6,0.6l-0.9,0.8l-0.9,0.7l-0.9,0.7
		l-0.9,0.7l-0.9,0.6l-1,0.5l-1,0.6l-1,0.5l-1.1,0.5l-1.1,0.5l-1.1,0.4l-1.1,0.3l-1.2,0.3l-1.2,0.2l-1.2,0.2l-1.2,0.1l-1.2,0.2
		l-1.2,0.1h-1.3h-1.3l-1.3-0.1l-1.2-0.2l-1.2-0.1l-1.2-0.2l-1.2-0.2l-1.2-0.3l-1.1-0.3l-1.1-0.4l-1.1-0.5l-1.1-0.5l-1-0.5l-1-0.6
		l-1-0.5l-0.9-0.6l-0.9-0.7l-0.9-0.7l-0.9-0.7l-0.9-0.8l-0.6-0.6l-0.6,0.6l-0.9,0.8l-0.9,0.7l-0.9,0.7l-1,0.8l-0.9,0.6l-1,0.5
		l-1,0.6l-1,0.5l-1.1,0.5l-1.1,0.5l-1.1,0.4l-1.1,0.3l-1.2,0.3l-1.2,0.2l-1.2,0.2l-1.2,0.1l-1.2,0.2L254,265h-1.3h-1.2l-1.3-0.1
		l-1.2-0.2l-1.2-0.1l-1.2-0.2l-1.2-0.2l-1.2-0.3l-1.1-0.3l-1.1-0.4l-1.1-0.5l-1-0.5l-1-0.5l-1-0.6l-1-0.5L236,260l-0.9-0.7l-1-0.7
		l-0.9-0.7l-0.9-0.8l-0.6-0.6l-0.6,0.6l-0.9,0.8l-0.9,0.7l-1,0.7l-0.8,0.7l-0.9,0.6l-1,0.5l-1,0.6l-1,0.5l-1,0.5l-1.1,0.5l-1.1,0.4
		l-1.1,0.3l-1.2,0.3l-1.2,0.2l-1.2,0.2h-0.9l-1.2,0.1l-1.3,0.1H211h-1.3l-1.3-0.1l-1.2-0.1l-1.2-0.2l-1.2-0.2l-1.2-0.2l-1.2-0.3
		l-1.1-0.3l-1.1-0.4l-1.1-0.5L198,262l-1-0.5l-1-0.6l-1-0.5l-1-0.6l-0.9-0.7l-0.9-0.7l-0.9-0.7l-0.9-0.8l-0.6-0.6l-0.6,0.6l-0.9,0.8
		l-0.9,0.7l-0.9,0.7l-1,0.7l-0.9,0.6l-1,0.5l-1,0.6l-1,0.5l-1.1,0.5l-1.1,0.5l-1.1,0.4l-1.1,0.3L176,264l-1.2,0.2l-1.2,0.2l-1.2,0.2
		l-1.2,0.1l-1.2,0.1h-1.3h-1.3l-1.2-0.1l-1.2-0.1l-1.2-0.2l-1.2-0.2l-1.2-0.2l-1.2-0.3l-1.1-0.3L158,263l-1.1-0.5l-1.1-0.5l-1-0.5
		l-1-0.6l-1-0.5l-1-0.6l-0.9-0.7l-0.9-0.7l-0.9-0.7l-0.9-0.8l-0.6-0.6l-0.6,0.6l-0.9,0.8l-0.9,0.7l-0.9,0.7l-0.9,0.7l-0.9,0.6
		l-1,0.5l-1,0.6l-1,0.5l-1.1,0.5l-1.1,0.5l-1.1,0.4l-1.1,0.3l-1.2,0.3l-1.2,0.2l-1.2,0.2l-1.2,0.2l-1.2,0.1l-1.3,0.1h-1.2h-1.1
		l-1.3-0.1l-1.2-0.1l-1.2-0.2l-1.2-0.2l-1.1-0.2l-1.2-0.3l-1.1-0.3l-1.1-0.4l-1.1-0.5l-1.1-0.5l-0.7-0.5l-1-0.6l-1-0.5l-0.9-0.6
		l-0.9-0.7l-0.9-0.7l-0.9-0.7l-0.9-0.8l-0.6-0.6l-0.6,0.6l-0.9,0.8l-0.9,0.7l-0.9,0.7l-0.9,0.7l-0.9,0.6l-1,0.5l-1,0.6l-1,0.5
		l-1.1,0.5l-1.4,0.5l-1.1,0.4l-1.1,0.3l-1.2,0.3l-1.2,0.2l-1.2,0.2l-1.2,0.2l-1.2,0.1l-1.2,0.1h-1.2h-1.3l-1.3-0.1l-1.2-0.1
		l-1.2-0.2l-1.2-0.2l-1.2-0.2l-1.2-0.3l-1.1-0.3l-1.1-0.4l-1.1-0.5l-1.1-0.5l-1-0.5l-1-0.6l-1-0.5l-1-0.6l-0.9-0.7l-1-0.7l-0.9-0.7
		l-0.9-0.8l-0.9-0.8l-0.8-0.9l-0.8-0.9l-0.7-0.9l-0.7-0.9l-0.7-0.9l-0.6-1l-0.4-0.9l-0.6-1l-0.5-1l-0.5-1.1l-0.5-1.1l-0.4-1.1
		l-0.3-1.1l-0.3-1.2l-0.2-1.2l-0.2-1.2l-0.2-1.2l-0.2-1.2l-0.1-1.3v-1.3v-1.3l0.1-1.3l0.2-1.2l0.6-0.9l0.2-1.2l0.2-1.2l0.3-1.2
		l0.3-1.1l0.4-1.1l0.5-1.1l0.5-1l0.5-1l0.6-1l0.6-1l0.6-0.9l0.7-0.9l0.7-0.9l0.7-0.9l0.8-0.9l0.8-0.9l0.9-0.8l0.9-0.8l0.9-0.7
		l0.9-0.7l0.9-0.6l0.9-0.6l1-0.6l1-0.6l1-0.5l1.1-0.5l1.1-0.5l1.1-0.4l1.1-0.3l1.2-0.3l1.2-0.2l1.2-0.2l1.2-0.2l1.2-0.2l1.3-0.1h1.2
		h1.3l1.2,0.1l1.2,0.2l1.2,0.2l1.2,0.2l1.2,0.2l1.2,0.3l1.1,0.3l1.1,0.4l1.1,0.5l1.1,0.5l1,0.5l1,0.6l1,0.6l0.9,0.6l0.9,0.6l0.9,0.7
		l0.9,0.7l0.9,0.8l0.6,0.6l0.6-0.6l0.9-0.8l0.9-0.7l0.9-0.7l0.9-0.6l1-0.6l1-0.6l1-0.6l1-0.5l1.1-0.5l1.1-0.5l1.1-0.4l1.1-0.3
		l1.2-0.3l1.2-0.2l1.2-0.2l1.2-0.2l1.2-0.2l1.3-0.1h1.3h1.3l1.2,0.1l1.2,0.2l1.2,0.2l1.2,0.2l1.2,0.2l1.2,0.3l1.1,0.3l1.1,0.4
		l1.1,0.5l1.1,0.5l1,0.5l1,0.6l1,0.6l0.9,0.6l0.9,0.6l0.9,0.7l0.9,0.7l0.9,0.8l0.6,0.6l0.6-0.6l0.9-0.8l0.9-0.7l0.9-0.7l0.9-0.6
		l1-0.6l1-0.6l1-0.6l1-0.5l1.1-0.5l1.1-0.5l1.1-0.4l1.1-0.3l1.2-0.3l1.2-0.2l1.2-0.2l1.2-0.2l1.2-0.2l1.2-0.1h1.3h1.3l1.3,0.1
		l1.2,0.2l1.2,0.2l1.2,0.2l1.2,0.2l1.2,0.3l1.1,0.3l1.1,0.4l1.1,0.5l1.1,0.5l1,0.5l1,0.6l1,0.6l1,0.6l0.9,0.6l0.9,0.7l0.9,0.7
		l0.9,0.8l0.6,0.6l0.6-0.6l0.9-0.8l0.9-0.7l0.9-0.7l1-0.6l0.9-0.6l1-0.6l1-0.6l1-0.5l1.1-0.5l1.1-0.5l1.1-0.4l1.1-0.3l1.2-0.3
		l1.2-0.2l1.2-0.2l1.2-0.2l1.2-0.2l1.2-0.1h1.3h1.3l1.3,0.1l1.2,0.2l1.2,0.2l1.2,0.2l1.2,0.2l1.2,0.3l1.1,0.3l1.1,0.4l1.1,0.5l1,0.5
		l1,0.5l1,0.6l1,0.6l1,0.6l0.9,0.6l0.9,0.7l0.9,0.7l0.9,0.8l0.6,0.6l0.6-0.6l0.9-0.8l0.9-0.7l0.9-0.7l0.9-0.6l0.9-0.6l1-0.6l1-0.6
		l1-0.5l1-0.5l1.1-0.5l1.1-0.4l1.1-0.3l1.2-0.3l1.2-0.2l1.2-0.2l1.2-0.2l1.2-0.2l1.3-0.1h1.3h1.2l1.3,0.1l1.2,0.2l1.2,0.2l1.2,0.2
		l1.2,0.2l1.2,0.3l1.1,0.3l1.1,0.4l1.1,0.5l1.1,0.5l1,0.5l1,0.6l1,0.6l0.9,0.6l0.9,0.6l0.9,0.7l0.9,0.7l0.9,0.8l0.6,0.6l0.6-0.6
		l0.9-0.8l0.9-0.7l0.9-0.7l0.9-0.6l1-0.6l1-0.6l1-0.6l1-0.5l1.1-0.5l1.1-0.5l1.1-0.4l1.1-0.3l1.2-0.3l1.2-0.2l1.2-0.2l1.2-0.2
		l1.2-0.2l1.3-0.1h1.3h1.3l1.2,0.1l1.2,0.2l1.2,0.2l1.2,0.2l1.2,0.2l1.2,0.3l1.1,0.3l1.1,0.4l1.1,0.5l1.1,0.5l1,0.5l1,0.6l1,0.6
		l0.9,0.6l0.9,0.6l0.9,0.7l0.9,0.7l0.9,0.8l0.6,0.6l0.6-0.6l0.9-0.8l0.9-0.7l0.9-0.7l1-0.6l0.9-0.6l1-0.6l1-0.6l1-0.5l1.1-0.5
		l1.1-0.5l1.1-0.4l1.1-0.3l1.2-0.3l1.2-0.2l1.2-0.2l1.2-0.2l1.2-0.2l1.3-0.1h1.3h1.3l0.6,0.1L340.6,205.2z"/>
	<path id="aZHZZu4I0" class="st3" d="M47.3,252.5c0,0.2,0-3.1,0-3c35.9,0,291.2,0,327.1,0c0-0.1,0,3.1,0,3c0-2,0-11.9,0-29.6H47.3
		C47.3,240.6,47.3,250.5,47.3,252.5z"/>
	<path id="gDeHcw9J4" class="st4" d="M340.7,205.2l1.2,0.2l1.2,0.2l1.2,0.2l1.2,0.3l1.1,0.3l1.1,0.4l1.1,0.5l1.1,0.5l1,0.6l1,0.5
		l1,0.6l0.9,0.6l0.9,0.6l0.9,0.7l0.9,0.7l0.9,0.8l0.9,0.8l0.8,0.9l0.8,0.9l0.7,0.9l0.7,0.9l0.6,0.9l0.6,1l0.5,1l0.5,1l0.6,1l0.5,1
		l0.5,1.1l0.4,1.1l0.3,1.1l0.3,1.2l0.2,1.2l0.2,1.2l0.1,1.2l0.2,1.2l0.1,1.3v1.3v1.3l-0.1,1.2l-0.2,1.2l-0.1,1.2l-0.2,1.2l-0.2,1.2
		l-0.3,1.2l-0.3,1.1l-0.4,1.1l-0.5,1.1l-0.5,1.1l-0.6,1l-0.5,1l-0.5,1l-0.6,0.9l-0.6,0.9l-0.7,0.9l-0.7,0.9l-0.8,0.9l-0.8,0.9
		l-0.9,0.8l-0.9,0.8l-0.9,0.7l-0.9,0.7l-0.9,0.7l-0.9,0.6l-1,0.5l-1,0.4l-1,0.5l-1.1,0.5l-1.1,0.5l-1.1,0.4l-1.1,0.3l-1.2,0.3
		l-1.2,0.2l-1.2,0.2l-1.2,0.2l-1.2,0.1l-1.3,0.1H337h-1.3l-1.3-0.1l-1.2-0.1l-1.2-0.2l-1.2-0.2l-1.2-0.2l-1.2-0.3l-1.1-0.3l-1.1-0.4
		l-1.1-0.5l-1-0.5l-1-0.5l-1-0.6l-1-0.5l-0.9-0.6l-0.9-0.7l-0.9-0.7l-0.9-0.7l-0.9-0.8l-0.6-0.6l-0.6,0.6l-0.9,0.8l-0.9,0.7
		l-0.9,0.7l-0.9,0.7l-1,0.6l-1,0.5l-1,0.6l-1,0.5l-1,0.5l-1.1,0.5l-1.1,0.4l-1.1,0.3l-1.2,0.3l-1.2,0.2l-1.2,0.2l-1.2,0.2l-1.2,0.1
		l-1.3,0.1H295h-1.3l-1.2-0.1l-1.2-0.1l-1.2-0.2l-1.2-0.2l-1.2-0.2l-1.2-0.3l-1.1-0.3l-1.1-0.4l-1.1-0.5l-1.1-0.5l-1-0.5l-1-0.6
		l-1-0.5l-0.9-0.6l-1-0.7l-0.9-0.7l-0.9-0.7l-0.9-0.8l-0.6-0.6l-0.6,0.6l-0.9,0.8l-0.9,0.7l-0.9,0.7l-1,0.7l-0.9,0.6l-1,0.5l-1,0.6
		l-1,0.5l-1.1,0.5l-1.1,0.5l-1.1,0.4l-1.1,0.3l-1.2,0.3l-1.2,0.2l-1.2,0.2l-1.2,0.2l-1.2,0.1l-1.3,0.1h-1.3h-1.3l-1.2-0.1l-1.2-0.1
		l-1.2-0.2l-1.2-0.2l-1.2-0.2l-1.2-0.3l-1.1-0.3l-1.1-0.4l-1.1-0.5l-1.1-0.5l-1-0.5l-1-0.6l-1-0.5l-1-0.6l-0.9-0.7l-0.9-0.7
		l-0.9-0.7l-0.9-0.8l-0.6-0.6L231,257l-0.9,0.8l-0.9,0.7l-0.9,0.7l-1,0.7l-0.9,0.6l-1,0.5l-1,0.6l-1,0.5l-1,0.5l-1.1,0.5l-1.1,0.4
		l-1.1,0.3l-1.2,0.3l-1.2,0.2l-1.2,0.2l-1.2,0.2l-1.2,0.1l-1.3,0.1h-1.2h-1.3l-1.3-0.1l-1.2-0.1l-1.2-0.2l-1.2-0.2l-1.2-0.2
		l-1.2-0.3l-1.1-0.3l-1.1-0.4l-1.1-0.5l-1.1-0.5l-1-0.5l-1-0.6l-1-0.5l-0.9-0.6l-0.9-0.7l-0.9-0.7l-0.9-0.7l-0.9-0.8l-0.6-0.6
		l-0.6,0.6l-0.9,0.8l-0.9,0.7l-0.9,0.7l-0.9,0.7l-0.9,0.6l-1,0.5l-1,0.6l-1,0.5l-1.1,0.5l-1.1,0.5l-1.1,0.4l-1.1,0.3l-1,0.2
		l-1.2,0.2l-1.2,0.2l-1.2,0.2l-1.2,0.1l-1.2,0.1h-1.3h-1.3l-1.2-0.1l-1.2-0.1l-1.2-0.2l-1.2-0.2l-1.2-0.2l-1.2-0.3l-1.1-0.3L158,263
		l-1.1-0.5l-1.1-0.5l-1-0.5l-1-0.6l-1-0.5l-0.9-0.6l-0.9-0.7l-0.9-0.7l-0.9-0.7l-0.9-0.8l-0.6-0.6l-0.6,0.6l-0.9,0.8l-0.9,0.7
		l-0.9,0.7l-0.9,0.7l-1,0.6l-1,0.5l-1,0.6l-1,0.5l-1.1,0.5l-1.1,0.5l-1.1,0.4l-1.1,0.3l-1.2,0.3l-1.2,0.2l-1.2,0.2l-0.9,0.2
		l-1.2,0.1l-1.3,0.1H127h-1.3l-1.3-0.1l-1.2-0.1l-1.2-0.2l-1.2-0.2l-1.2-0.2l-1.2-0.3l-1.1-0.3l-1.1-0.4l-1.1-0.5l-1-0.5l-1-0.5
		l-1-0.6l-1-0.5l-0.9-0.6l-0.9-0.7l-0.9-0.7l-0.9-0.7l-0.9-0.8l-0.6-0.6l-0.6,0.6l-0.9,0.8l-0.9,0.7l-0.9,0.7l-0.9,0.7l-1,0.6
		l-1,0.5l-1,0.6l-1,0.5l-1,0.5l-1.1,0.5l-1.1,0.4l-1.1,0.3l-1.2,0.3l-1.2,0.2l-1.2,0.2l-1.2,0.2l-1.2,0.1l-1.3,0.1H85h-1.3l-1.2-0.1
		l-1.2-0.1l-1.2-0.2l-1.2-0.2l-1.2-0.2l-1.2-0.3l-1.1-0.3l-1.1-0.4l-1.1-0.5l-1.1-0.5l-1-0.5l-1-0.6l-1-0.5l-0.9-0.6l-0.9-0.7
		l-0.9-0.7l-0.9-0.7l-0.9-0.8l-0.9-0.8l-0.8-0.9l-0.8-0.9l-0.7-0.9l-0.7-0.9l-0.7-0.9l-0.6-1l-0.6-1l-0.6-1l-0.5-1l-0.5-1.1
		l-0.5-1.1l-0.4-1.1l-0.3-1.1l-0.3-1.2l-0.2-1.2l-0.2-1.2l-0.2-1.2l-0.1-1.2l-0.1-1.3v-1.3v-1.3l0.1-1.2l0.1-1.2l0.2-1.2l0.2-1.2
		l0.2-1.2l0.3-1.2l0.3-1.1l0.4-1.1l0.5-1.1l0.5-1l0.5-1l0.6-1l0.6-1l0.6-1l0.7-0.9l0.7-0.9l0.7-0.9l0.8-0.9l0.8-0.9l0.9-0.8l0.9-0.8
		l0.9-0.7l0.9-0.7l0.9-0.6l0.9-0.6l1-0.6l1-0.5l1-0.5l1.1-0.5l1.1-0.5l1.1-0.4l1.1-0.3l1.2-0.3l1.2-0.2l1.2-0.2l1.2-0.2l1.2-0.1
		l1.2-0.1H85h1.3l1.3,0.1l1.2,0.1l1.2,0.2l1.2,0.2l1.2,0.2l1.2,0.3l1.1,0.3l1.1,0.4l1.1,0.5l1,0.5l1,0.5l1,0.5l1,0.6l1,0.6l0.9,0.6
		l0.9,0.7l0.9,0.7l0.9,0.8l0.6,0.6l0.6-0.6l0.9-0.8l0.9-0.7l0.9-0.7l0.9-0.6l0.9-0.6l1-0.6l1-0.5l1-0.5l1-0.5l1.1-0.5l1.1-0.4
		l1.1-0.3l1.2-0.3l1.2-0.2l1.2-0.2l1.2-0.2l1.2-0.1l1.3-0.1h1.3h1.2l1.3,0.1l1.2,0.1l1.2,0.2l1.2,0.2l1.2,0.2l1.2,0.3l1.1,0.3
		l1.1,0.4l1.1,0.5l1.1,0.5l1,0.5l1,0.5l1,0.6l0.9,0.6l0.9,0.6l0.9,0.7l0.9,0.7l0.9,0.8l0.6,0.6l0.6-0.6l0.9-0.8l0.9-0.7l0.9-0.7
		l0.9-0.6l1-0.6l1-0.6l1-0.5l1-0.5l1.1-0.5l1.1-0.5l1.1-0.4l1.1-0.3l1.2-0.3l1.2-0.2l1.2-0.2l1.2-0.2l1.2-0.1l1.3-0.1h1.3h1.2
		l1.2,0.1l1.2,0.1l1.2,0.2l1.2,0.2l1.2,0.2l1.2,0.3l1.1,0.3l1.1,0.4l1.1,0.5l1.1,0.5l1,0.5l1,0.5l1,0.6l0.9,0.6l1,0.6l0.9,0.7
		l0.9,0.7l0.9,0.8l0.6,0.6l0.6-0.6l0.9-0.8l0.9-0.7l0.9-0.7l0.9-0.6l1-0.6l1-0.6l1-0.5l1-0.5l1.1-0.5l1.1-0.5l1.1-0.4l1.1-0.3
		l1.2-0.3l1.2-0.2l1.2-0.2l1.2-0.2l1.2-0.1l1.3-0.1h1.3h1.3l1.3,0.1l1.2,0.1l1.2,0.2l1.2,0.2l1.2,0.2l1.2,0.3l1.1,0.3l1.1,0.4
		l1.1,0.5l1,0.5l1,0.5l1,0.5l1,0.6l1,0.6l0.9,0.6l0.9,0.7l0.9,0.7l0.9,0.8l0.6,0.6l0.6-0.6l0.9-0.8l0.9-0.7l0.9-0.7l1-0.6l0.9-0.6
		l1-0.6l1-0.5l1-0.5l1.1-0.5l1.1-0.5l1.1-0.4l1.1-0.3l1.2-0.3l1.2-0.2l1.2-0.2l1.2-0.2l1.2-0.1l1.2-0.1h1.2h1.3l1.3,0.1l1.2,0.1
		l1.2,0.2l1.2,0.2l1.2,0.2l1.2,0.3l1.1,0.3l1.1,0.4l1.1,0.5l1.1,0.5l1,0.5l1,0.5l1,0.6l0.9,0.6l0.9,0.6l0.9,0.7l0.9,0.7l0.9,0.8
		l0.6,0.6l0.6-0.6l0.9-0.8l0.9-0.7l0.9-0.7l0.9-0.6l0.9-0.6l1-0.6l1-0.5l1-0.5l1.1-0.5l1.1-0.5l1.1-0.4l1.1-0.3l1.2-0.3l1.2-0.2
		l1.2-0.2l1.2-0.2l1.2-0.1l1.3-0.1h1.3h1.2l1.3,0.1l1.2,0.1l1.2,0.2l1.2,0.2l1.2,0.2l1.2,0.3l1.1,0.3l1.1,0.4l1.1,0.5l1,0.5l1,0.5
		l1,0.5l1,0.6l0.9,0.6l0.9,0.6l0.9,0.7l0.9,0.7l0.9,0.8l0.6,0.6l0.6-0.6l0.9-0.8l0.9-0.7l0.9-0.7l0.9-0.6l1-0.6l1-0.6l1-0.5l1-0.5
		l1-0.5l1.1-0.5l1.1-0.4l1.1-0.3l1.2-0.3l1.2-0.2l1.2-0.2l1.2-0.2l1.2-0.1l1.3-0.1h1.3h1.3l0.9,0.2L340.7,205.2z"/>
	<path id="a23xyU6mXb_1_" class="st5" d="M340.7,205.2l1.2,0.2l1.2,0.2l1.2,0.2l1.2,0.3l1.1,0.3l1.1,0.4l1.1,0.5l1.1,0.5l1,0.6
		l1,0.5l1,0.6l0.9,0.6l0.9,0.6l0.9,0.7l0.9,0.7l0.9,0.8l0.9,0.8l0.8,0.9l0.8,0.9l0.7,0.9l0.7,0.9l0.6,0.9l0.6,1l0.5,1l0.5,1l0.6,1
		l0.5,1l0.5,1.1l0.4,1.1l0.3,1.1l0.3,1.2l0.2,1.2l0.2,1.2l0.1,1.2l0.2,1.2l0.1,1.3v1.3v1.3l-0.1,1.2l-0.2,1.2l-0.1,1.2l-0.2,1.2
		l-0.2,1.2l-0.3,1.2l-0.3,1.1l-0.4,1.1l-0.5,1.1l-0.5,1.1l-0.6,1l-0.5,1l-0.5,1l-0.6,0.9l-0.6,0.9l-0.7,0.9l-0.7,0.9l-0.8,0.9
		l-0.8,0.9l-0.9,0.8l-0.9,0.8l-0.9,0.7l-0.9,0.7l-0.9,0.7l-0.9,0.6l-1,0.5l-1,0.4l-1,0.5l-1.1,0.5l-1.1,0.5l-1.1,0.4l-1.1,0.3
		l-1.2,0.3l-1.2,0.2l-1.2,0.2l-1.2,0.2l-1.2,0.1l-1.3,0.1H337h-1.3l-1.3-0.1l-1.2-0.1l-1.2-0.2l-1.2-0.2l-1.2-0.2l-1.2-0.3l-1.1-0.3
		l-1.1-0.4l-1.1-0.5l-1-0.5l-1-0.5l-1-0.6l-1-0.5l-0.9-0.6l-0.9-0.7l-0.9-0.7l-0.9-0.7l-0.9-0.8l-0.6-0.6l-0.6,0.6l-0.9,0.8
		l-0.9,0.7l-0.9,0.7l-0.9,0.7l-1,0.6l-1,0.5l-1,0.6l-1,0.5l-1,0.5l-1.1,0.5l-1.1,0.4l-1.1,0.3l-1.2,0.3l-1.2,0.2l-1.2,0.2l-1.2,0.2
		l-1.2,0.1l-1.3,0.1H295h-1.3l-1.2-0.1l-1.2-0.1l-1.2-0.2l-1.2-0.2l-1.2-0.2l-1.2-0.3l-1.1-0.3l-1.1-0.4l-1.1-0.5l-1.1-0.5l-1-0.5
		l-1-0.6l-1-0.5l-0.9-0.6l-1-0.7l-0.9-0.7l-0.9-0.7l-0.9-0.8l-0.6-0.6l-0.6,0.6l-0.9,0.8l-0.9,0.7l-0.9,0.7l-1,0.7l-0.9,0.6l-1,0.5
		l-1,0.6l-1,0.5l-1.1,0.5l-1.1,0.5l-1.1,0.4l-1.1,0.3l-1.2,0.3l-1.2,0.2l-1.2,0.2l-1.2,0.2l-1.2,0.1l-1.3,0.1h-1.3h-1.3l-1.2-0.1
		l-1.2-0.1l-1.2-0.2l-1.2-0.2l-1.2-0.2l-1.2-0.3l-1.1-0.3l-1.1-0.4l-1.1-0.5l-1.1-0.5l-1-0.5l-1-0.6l-1-0.5l-1-0.6l-0.9-0.7
		l-0.9-0.7l-0.9-0.7l-0.9-0.8l-0.6-0.6L231,257l-0.9,0.8l-0.9,0.7l-0.9,0.7l-1,0.7l-0.9,0.6l-1,0.5l-1,0.6l-1,0.5l-1,0.5l-1.1,0.5
		l-1.1,0.4l-1.1,0.3l-1.2,0.3l-1.2,0.2l-1.2,0.2l-1.2,0.2l-1.2,0.1l-1.3,0.1h-1.2h-1.3l-1.3-0.1l-1.2-0.1l-1.2-0.2l-1.2-0.2
		l-1.2-0.2l-1.2-0.3l-1.1-0.3l-1.1-0.4l-1.1-0.5l-1.1-0.5l-1-0.5l-1-0.6l-1-0.5l-0.9-0.6l-0.9-0.7l-0.9-0.7l-0.9-0.7l-0.9-0.8
		l-0.6-0.6l-0.6,0.6l-0.9,0.8l-0.9,0.7l-0.9,0.7l-0.9,0.7l-0.9,0.6l-1,0.5l-1,0.6l-1,0.5l-1.1,0.5l-1.1,0.5l-1.1,0.4l-1.1,0.3
		l-1,0.2l-1.2,0.2l-1.2,0.2l-1.2,0.2l-1.2,0.1l-1.2,0.1h-1.3h-1.3l-1.2-0.1l-1.2-0.1l-1.2-0.2l-1.2-0.2l-1.2-0.2l-1.2-0.3l-1.1-0.3
		L158,263l-1.1-0.5l-1.1-0.5l-1-0.5l-1-0.6l-1-0.5l-0.9-0.6l-0.9-0.7l-0.9-0.7l-0.9-0.7l-0.9-0.8l-0.6-0.6l-0.6,0.6l-0.9,0.8
		l-0.9,0.7l-0.9,0.7l-0.9,0.7l-1,0.6l-1,0.5l-1,0.6l-1,0.5l-1.1,0.5l-1.1,0.5l-1.1,0.4l-1.1,0.3l-1.2,0.3l-1.2,0.2l-1.2,0.2
		l-0.9,0.2l-1.2,0.1l-1.3,0.1H127h-1.3l-1.3-0.1l-1.2-0.1l-1.2-0.2l-1.2-0.2l-1.2-0.2l-1.2-0.3l-1.1-0.3l-1.1-0.4l-1.1-0.5l-1-0.5
		l-1-0.5l-1-0.6l-1-0.5l-0.9-0.6l-0.9-0.7l-0.9-0.7l-0.9-0.7l-0.9-0.8l-0.6-0.6l-0.6,0.6l-0.9,0.8l-0.9,0.7l-0.9,0.7l-0.9,0.7
		l-1,0.6l-1,0.5l-1,0.6l-1,0.5l-1,0.5l-1.1,0.5l-1.1,0.4l-1.1,0.3l-1.2,0.3l-1.2,0.2l-1.2,0.2l-1.2,0.2l-1.2,0.1l-1.3,0.1H85h-1.3
		l-1.2-0.1l-1.2-0.1l-1.2-0.2l-1.2-0.2l-1.2-0.2l-1.2-0.3l-1.1-0.3l-1.1-0.4l-1.1-0.5l-1.1-0.5l-1-0.5l-1-0.6l-1-0.5l-0.9-0.6
		l-0.9-0.7l-0.9-0.7l-0.9-0.7l-0.9-0.8l-0.9-0.8l-0.8-0.9l-0.8-0.9l-0.7-0.9l-0.7-0.9l-0.7-0.9l-0.6-1l-0.6-1l-0.6-1l-0.5-1
		l-0.5-1.1l-0.5-1.1l-0.4-1.1l-0.3-1.1l-0.3-1.2l-0.2-1.2l-0.2-1.2l-0.2-1.2l-0.1-1.2l-0.1-1.3v-1.3v-1.3l0.1-1.2l0.1-1.2l0.2-1.2
		l0.2-1.2l0.2-1.2l0.3-1.2l0.3-1.1l0.4-1.1l0.5-1.1l0.5-1l0.5-1l0.6-1l0.6-1l0.6-1l0.7-0.9l0.7-0.9l0.7-0.9l0.8-0.9l0.8-0.9l0.9-0.8
		l0.9-0.8l0.9-0.7l0.9-0.7l0.9-0.6l0.9-0.6l1-0.6l1-0.5l1-0.5l1.1-0.5l1.1-0.5l1.1-0.4l1.1-0.3l1.2-0.3l1.2-0.2l1.2-0.2l1.2-0.2
		l1.2-0.1l1.2-0.1H85h1.3l1.3,0.1l1.2,0.1l1.2,0.2l1.2,0.2l1.2,0.2l1.2,0.3l1.1,0.3l1.1,0.4l1.1,0.5l1,0.5l1,0.5l1,0.5l1,0.6l1,0.6
		l0.9,0.6l0.9,0.7l0.9,0.7l0.9,0.8l0.6,0.6l0.6-0.6l0.9-0.8l0.9-0.7l0.9-0.7l0.9-0.6l0.9-0.6l1-0.6l1-0.5l1-0.5l1-0.5l1.1-0.5
		l1.1-0.4l1.1-0.3l1.2-0.3l1.2-0.2l1.2-0.2l1.2-0.2l1.2-0.1l1.3-0.1h1.3h1.2l1.3,0.1l1.2,0.1l1.2,0.2l1.2,0.2l1.2,0.2l1.2,0.3
		l1.1,0.3l1.1,0.4l1.1,0.5l1.1,0.5l1,0.5l1,0.5l1,0.6l0.9,0.6l0.9,0.6l0.9,0.7l0.9,0.7l0.9,0.8l0.6,0.6l0.6-0.6l0.9-0.8l0.9-0.7
		l0.9-0.7l0.9-0.6l1-0.6l1-0.6l1-0.5l1-0.5l1.1-0.5l1.1-0.5l1.1-0.4l1.1-0.3l1.2-0.3l1.2-0.2l1.2-0.2l1.2-0.2l1.2-0.1l1.3-0.1h1.3
		h1.2l1.2,0.1l1.2,0.1l1.2,0.2l1.2,0.2l1.2,0.2l1.2,0.3l1.1,0.3l1.1,0.4l1.1,0.5l1.1,0.5l1,0.5l1,0.5l1,0.6l0.9,0.6l1,0.6l0.9,0.7
		l0.9,0.7l0.9,0.8l0.6,0.6l0.6-0.6l0.9-0.8l0.9-0.7l0.9-0.7l0.9-0.6l1-0.6l1-0.6l1-0.5l1-0.5l1.1-0.5l1.1-0.5l1.1-0.4l1.1-0.3
		l1.2-0.3l1.2-0.2l1.2-0.2l1.2-0.2l1.2-0.1l1.3-0.1h1.3h1.3l1.3,0.1l1.2,0.1l1.2,0.2l1.2,0.2l1.2,0.2l1.2,0.3l1.1,0.3l1.1,0.4
		l1.1,0.5l1,0.5l1,0.5l1,0.5l1,0.6l1,0.6l0.9,0.6l0.9,0.7l0.9,0.7l0.9,0.8l0.6,0.6l0.6-0.6l0.9-0.8l0.9-0.7l0.9-0.7l1-0.6l0.9-0.6
		l1-0.6l1-0.5l1-0.5l1.1-0.5l1.1-0.5l1.1-0.4l1.1-0.3l1.2-0.3l1.2-0.2l1.2-0.2l1.2-0.2l1.2-0.1l1.2-0.1h1.2h1.3l1.3,0.1l1.2,0.1
		l1.2,0.2l1.2,0.2l1.2,0.2l1.2,0.3l1.1,0.3l1.1,0.4l1.1,0.5l1.1,0.5l1,0.5l1,0.5l1,0.6l0.9,0.6l0.9,0.6l0.9,0.7l0.9,0.7l0.9,0.8
		l0.6,0.6l0.6-0.6l0.9-0.8l0.9-0.7l0.9-0.7l0.9-0.6l0.9-0.6l1-0.6l1-0.5l1-0.5l1.1-0.5l1.1-0.5l1.1-0.4l1.1-0.3l1.2-0.3l1.2-0.2
		l1.2-0.2l1.2-0.2l1.2-0.1l1.3-0.1h1.3h1.2l1.3,0.1l1.2,0.1l1.2,0.2l1.2,0.2l1.2,0.2l1.2,0.3l1.1,0.3l1.1,0.4l1.1,0.5l1,0.5l1,0.5
		l1,0.5l1,0.6l0.9,0.6l0.9,0.6l0.9,0.7l0.9,0.7l0.9,0.8l0.6,0.6l0.6-0.6l0.9-0.8l0.9-0.7l0.9-0.7l0.9-0.6l1-0.6l1-0.6l1-0.5l1-0.5
		l1-0.5l1.1-0.5l1.1-0.4l1.1-0.3l1.2-0.3l1.2-0.2l1.2-0.2l1.2-0.2l1.2-0.1l1.3-0.1h1.3h1.3l0.9,0.2L340.7,205.2z"/>
	<path id="g1j0v8uemq" class="st6" d="M366.8,232.4l0.1,1.3v1.3v1.3l-0.1,1.2l-0.2,1.2l-0.1,1.2l-0.2,1.2l-0.2,1.2l-0.3,1.2
		l-0.3,1.1l-0.4,1.1l-0.5,1.1l-0.5,1.1l-0.6,1l-0.5,1l-0.5,1l-0.6,0.9l-0.6,0.9l-0.4,0.3H61l-0.2-0.3l-0.7-0.9l-0.6-0.9l-0.6-1
		l-0.6-1l-0.6-1l-0.5-1.1l-0.5-1.1l-0.4-1.1l-0.3-1.1l-0.3-1.2l-0.2-1.2l-0.2-1.2l-0.2-1.2l-0.2-1.2l-0.1-1.2V235v-1.3l0.1-1.3
		l0.2-1.2l0.2-1.2l0.2-1.2h310.7l0.2,1.2l0.1,1.2L366.8,232.4z"/>
	<path id="b8c29JaPgU" class="st7" d="M340.7,163.2l1.2,0.1l1.2,0.2l1.2,0.2l1.2,0.3l1.1,0.3l1.1,0.4l1.1,0.5l1.1,0.5l1,0.6l1,0.5
		l1,0.5l0.9,0.6l0.9,0.6l0.9,0.7l0.9,0.7l0.9,0.8l0.9,0.8l0.8,0.9l0.8,0.9l0.7,0.9l0.7,1l0.6,0.9l0.6,0.9l0.5,1l0.5,1l0.6,1l0.5,1.1
		l0.5,1.1l0.4,1.1l0.3,1.1l0.3,1.2l0.2,1.2l0.2,1.2l0.1,1.2l0.2,1.2l0.1,1.3v1.2v1.3l-0.1,1.3l-0.2,1.2l-0.1,1.2l-0.2,1.2l-0.2,1.2
		l-0.3,1.2l-0.3,1.1l-0.4,1.1l-0.5,1.1l-0.5,1l-0.6,1l-0.5,1l-0.5,1l-0.6,0.9l-0.6,0.9l-0.7,0.9l-0.7,0.9l-0.8,0.9l-0.8,0.9
		l-0.9,0.8l-0.9,0.8l-0.9,0.7l-0.9,0.7l-0.9,0.6l-0.9,0.6l-1,0.6l-1,0.6l-1,0.5l-1.1,0.5l-1.1,0.5l-1.1,0.4l-1.1,0.3l-1.2,0.3
		l-1.2,0.2l-1.2,0.2l-1.2,0.2l-1.2,0.2l-1.3,0.1H337h-1.3l-1.3-0.1l-1.2-0.2l-1.2-0.2l-1.2-0.2l-1.2-0.2l-1.2-0.3l-1.1-0.3l-1.1-0.4
		l-1.1-0.5l-1-0.5l-1-0.5l-1-0.6l-1-0.6l-0.9-0.6l-0.9-0.6l-0.9-0.7l-0.9-0.7l-0.9-0.8l-0.6-0.6l-0.6,0.6l-0.9,0.8l-0.9,0.7
		l-0.9,0.7l-0.9,0.6l-1,0.6l-1,0.6l-1,0.6l-1,0.5l-1,0.5l-1.1,0.5l-1.1,0.4l-1.1,0.3l-1.2,0.3l-1.2,0.2l-1.2,0.2l-1.2,0.2l-1.2,0.2
		l-1.3,0.1H295h-1.3l-1.2-0.1l-1.2-0.2l-1.2-0.2l-1.2-0.2l-1.2-0.2l-1.2-0.3l-1-0.4l-1.1-0.4l-1.1-0.5l-1.1-0.5l-1-0.6l-1-0.5
		l-1-0.6l-0.9-0.6l-0.9-0.6l-0.9-0.7l-0.9-0.7l-0.9-0.8l-0.6-0.6l-0.6,0.6l-0.9,0.8l-0.9,0.7l-0.9,0.7l-1,0.6l-0.9,0.6l-1,0.6
		l-1,0.5l-1,0.6l-1.1,0.5l-1.1,0.5l-1.1,0.4l-1.1,0.3l-1.2,0.3l-1.2,0.2l-1.2,0.2l-1.2,0.1l-1.2,0.2l-1.2,0.1H253h-1.3l-1.2-0.1
		l-1.2-0.2l-1.2-0.1l-1.2-0.2l-1.2-0.2l-1.2-0.3l-1.1-0.3l-1.1-0.4l-1.1-0.5l-1.1-0.5l-1-0.6l-1-0.5l-1-0.6l-0.9-0.6l-0.9-0.6
		l-1-0.7l-0.9-0.7l-0.9-0.8l-0.6-0.6l-0.6,0.6l-0.9,0.8l-0.9,0.7l-1,0.7l-0.9,0.6l-0.9,0.6l-1,0.6l-1,0.5l-1,0.6l-1,0.5l-1.1,0.5
		l-1.1,0.4l-1.1,0.3l-1.2,0.3l-1.2,0.2l-1.2,0.2l-1.2,0.1l-1.2,0.2l-1.3,0.1h-1.3h-1.2l-1.3-0.1l-1.2-0.2l-1.2-0.1l-1.2-0.2
		l-1.2-0.2l-1.2-0.3l-1.1-0.3l-1.1-0.4l-1.1-0.5l-1.1-0.5l-1-0.6l-1-0.5l-1-0.6l-0.9-0.6l-0.9-0.6l-1-0.7l-0.9-0.7l-0.9-0.8
		l-0.6-0.6l-0.6,0.6l-0.9,0.8l-0.9,0.7l-0.9,0.7l-0.9,0.6l-0.9,0.6l-1,0.6l-1,0.5l-1,0.6l-1.1,0.5l-1.1,0.5l-1.1,0.4l-1.1,0.3
		L176,222l-1.2,0.2l-1.2,0.2l-1.2,0.1l-1.2,0.2l-1.2,0.1h-1.3h-1.3l-1.2-0.1l-1.2-0.2l-1.2-0.1l-1.2-0.2l-1.2-0.2l-1.2-0.3l-1.1-0.3
		L158,221l-1.1-0.5l-1.1-0.5l-1-0.6l-1-0.5l-1-0.6l-0.9-0.6l-1-0.6l-0.9-0.7l-0.9-0.7l-0.9-0.8l-0.6-0.6l-0.6,0.6l-0.9,0.8l-0.9,0.7
		l-0.9,0.7l-0.9,0.6l-0.9,0.6l-1,0.6l-1,0.5l-1,0.6l-1.1,0.5l-1.1,0.5l-1.1,0.4l-1.1,0.3l-1.2,0.3l-1.2,0.2l-1.2,0.2l-1.2,0.1
		l-1.2,0.2l-1.3,0.1h-1.3h-1.3l-1.3-0.1l-1.2-0.2l-1.2-0.1l-1.2-0.2l-1.2-0.2l-1.2-0.3l-1.1-0.3l-1.1-0.4l-1.1-0.5l-1-0.5l-1-0.6
		l-1-0.5l-1-0.6l-0.9-0.6l-0.9-0.6l-0.9-0.7l-0.9-0.7l-0.9-0.8l-0.6-0.6l-0.6,0.6l-0.9,0.8l-0.9,0.7l-0.9,0.7l-0.9,0.6l-0.9,0.6
		l-1,0.6l-1,0.5l-1,0.6l-1,0.5l-1.1,0.5l-0.9,0.4l-1.1,0.3l-1.2,0.3l-1.2,0.2l-1.2,0.2l-1.2,0.1l-1.2,0.2l-1.3,0.1h-1h-1.3l-1.2-0.1
		l-1.2-0.2l-1.2-0.1l-1.2-0.2l-1.2-0.2l-1.2-0.3l-1.1-0.3l-1.1-0.4l-1.1-0.5l-1.1-0.5l-1-0.6l-1-0.5l-1-0.6l-0.9-0.6l-0.9-0.6
		l-0.9-0.7l-0.9-0.7l-0.9-0.8l-0.9-0.8l-0.8-0.9l-0.8-0.9l-0.7-0.9l-0.7-0.9l-0.7-1l-0.6-0.9l-0.6-1l-0.6-1l-0.5-1l-0.5-1l-0.5-1.1
		l-0.4-1.1l-0.3-1.1l-0.3-1.2l-0.2-1.2l-0.2-1.2l-0.2-1.2l-0.1-1.2l-0.1-1.3v-1.2v-1.3l0.1-1.3l0.1-1.2l0.2-1.2l0.2-1.2l0.2-1.2
		l0.3-1.2l0.3-1.1l0.4-1.1l0.5-1.1l0.5-1.1l0.5-1l0.6-1l0.6-1l0.6-0.9l0.7-0.9l0.7-1l0.7-0.9l0.8-0.9l0.8-0.9l0.9-0.8l0.9-0.8
		l0.9-0.7l0.9-0.7l0.9-0.6l0.9-0.6l1-0.5l1-0.6l1-0.5l1.1-0.5l1.1-0.5l1.1-0.4l1.1-0.3l1.2-0.3l1.2-0.2l1.2-0.2l1.2-0.1l1.2-0.2
		l1.2-0.1H85h1.3l1.3,0.1l1.2,0.2l1.2,0.1l1.2,0.2l1.2,0.2l1.2,0.3l1.1,0.3l1.1,0.4l1.1,0.5l1,0.5l1,0.5l1,0.6l1,0.5l1,0.6l0.9,0.6
		l0.9,0.7l0.9,0.7l0.9,0.8l0.6,0.6l0.6-0.6l0.9-0.8l0.9-0.7l0.9-0.7l0.9-0.6l0.9-0.6l1-0.5l1-0.6l1-0.5l1-0.5l1.1-0.5l1.1-0.4
		l1.1-0.3l1.2-0.3l1.2-0.2l1.2-0.2l1.2-0.1l1.2-0.2l1.3-0.1h1.3h1.2l1.3,0.1l1.2,0.2l1.2,0.1l1.2,0.2l1.2,0.2l1.2,0.3l1.1,0.3
		l1.1,0.4l1.1,0.5l1.1,0.5l1,0.5l1,0.6l1,0.5l0.9,0.6l0.9,0.6l0.9,0.7l0.9,0.7l0.9,0.8l0.6,0.6l0.6-0.6l0.9-0.8l0.9-0.7l0.9-0.7
		l0.9-0.6l1-0.6l1-0.5l1-0.6l1-0.5l1.1-0.5l1.1-0.5l1.1-0.4l1.1-0.3l1.2-0.3l1.2-0.2l1.2-0.2l1.2-0.1l1.2-0.2l1.3-0.1h1.3h1.2
		l1.2,0.1l1.2,0.2l1.2,0.1l1.2,0.2l1.2,0.2l1.2,0.3l1.1,0.3l1.1,0.4l1.1,0.5l1.1,0.5l1,0.5l1,0.6l1,0.5l0.9,0.6l1,0.6l0.9,0.7
		l0.9,0.7l0.9,0.8l0.6,0.6l0.6-0.6l0.9-0.8l0.9-0.7l0.9-0.7l0.9-0.6l1-0.6l1-0.5l1-0.6l1-0.5l1.1-0.5l1.1-0.5l1.1-0.4l1.1-0.3
		l1.2-0.3l1.2-0.2l1.2-0.2l1.2-0.1l1.2-0.2l1.3-0.1h1.3h1.3l1.3,0.1l1.2,0.2l1.2,0.1l1.2,0.2l1.2,0.2l1.2,0.3l1.1,0.3l1.1,0.4
		l1.1,0.5l1,0.5l1,0.5l1,0.6l1,0.5l1,0.6l0.9,0.6l0.9,0.7l0.9,0.7l0.9,0.8l0.6,0.6l0.6-0.6l0.9-0.8l0.9-0.7l0.9-0.7l1-0.6l0.9-0.6
		l1-0.5l1-0.6l1-0.5l1.1-0.5l1.1-0.5l1.1-0.4l1.1-0.3l1.2-0.3l1.2-0.2l1.2-0.2l1.2-0.1l1.2-0.2l1.2-0.1h1.2h1.3l1.3,0.1l1.2,0.2
		l1.2,0.1l1.2,0.2l1.2,0.2l1.2,0.3l1.1,0.3l1.1,0.4l1.1,0.5l1.1,0.5l1,0.5l1,0.6l1,0.5l0.9,0.6l0.9,0.6l0.9,0.7l0.9,0.7l0.9,0.8
		l0.6,0.6l0.6-0.6l0.9-0.8l0.9-0.7l0.9-0.7l0.9-0.6l0.9-0.6l1-0.5l1-0.6l1-0.5l1.1-0.5l1.1-0.5l1.1-0.4l1.1-0.3l1.2-0.3l1.2-0.2
		l1.2-0.2l1.2-0.1l1.2-0.2l1.3-0.1h1.3h1.2l1.3,0.1l1.2,0.2l1.2,0.1l1.2,0.2l1.2,0.2l1.2,0.3l1.1,0.3l1.1,0.4l1.1,0.5l1,0.5l1,0.5
		l1,0.6l1,0.5l0.9,0.6l0.9,0.6l0.9,0.7l0.9,0.7l0.9,0.8l0.6,0.6l0.6-0.6l0.9-0.8l0.9-0.7l0.9-0.7l0.9-0.6l1-0.6l1-0.5l1-0.6l1-0.5
		l1-0.5l1.1-0.5l1.1-0.4l1.1-0.3l1.2-0.3l1.2-0.2l1.2-0.2l1.2-0.1l1.2-0.2l1.3-0.1h1.3h1.3l0.9,0.2L340.7,163.2z"/>
	<path id="d3owv0KXIZ_1_" class="st8" d="M340.6,162.7l1.2,0.2l1.2,0.2l1.2,0.2l1.2,0.3l1.1,0.3l1.1,0.4l1.1,0.5l1.1,0.5l1,0.6
		l1,0.5l1,0.5l0.9,0.6l0.9,0.6l0.9,0.7l0.9,0.7l0.9,0.8l0.9,0.8l0.8,0.9l0.8,0.9l0.7,0.9l0.7,0.9l0.6,0.9l0.6,1l0.6,1l0.5,1l0.5,1
		l0.5,1.1l0.5,1.1l0.4,1.1l0.3,1.1l0.3,1.2l0.2,1.2l0.2,1.2l0.2,1.2l0.2,1.2l0.1,1.3v1.3v1.3l-0.1,1.3l-0.2,1.2l-0.2,1.2l-0.2,1.2
		L366,200l-0.3,1.2l-0.3,1.1l-0.4,1.1l-0.5,1.1l-0.5,1l-0.5,1l-0.5,1l-0.6,1l-0.6,1l-0.6,0.9l-0.7,0.9l-0.7,0.9l-0.8,0.9l-0.8,0.9
		l-0.9,0.8l-0.9,0.8l-0.9,0.7l-0.9,0.7l-0.9,0.6l-0.9,0.6l-1,0.6l-1,0.5l-1,0.5l-1.1,0.5l-1.1,0.5l-1.1,0.4l-1.1,0.3l-1.2,0.3
		L343,222l-1.2,0.2l-1.2,0.2l-1.2,0.1l-1.3,0.1h-1.2h-1.3l-1.3-0.1l-1.2-0.1l-1.2-0.2l-1.2-0.2l-1.2-0.2l-1.2-0.3l-1.1-0.3l-1.1-0.4
		l-1.1-0.5l-1-0.5l-1-0.5l-1-0.5l-1-0.6l-0.9-0.6l-0.9-0.6l-1-0.7l-0.9-0.7l-0.9-0.8l-0.6-0.6l-0.6,0.6l-0.9,0.8l-0.9,0.7l-1,0.7
		l-0.9,0.6l-0.9,0.6l-1,0.6l-1,0.5l-1,0.5l-1,0.5l-1.1,0.5l-1.1,0.4l-1.1,0.3l-1.2,0.3l-1.2,0.2l-1.2,0.2l-1.2,0.2l-1.2,0.1
		l-1.3,0.1h-1.1h-1.3l-1.2-0.1l-1.2-0.1l-1.2-0.2l-1.2-0.2l-1.2-0.2l-1.2-0.3l-1-0.4l-1.1-0.4l-1.1-0.5l-1.1-0.5l-1-0.5l-1-0.6
		l-1-0.6l-0.9-0.6l-0.9-0.6l-0.9-0.7l-0.9-0.7l-0.9-0.8L274,214l-0.6,0.6l-0.9,0.8l-0.9,0.7l-0.9,0.7l-1,0.6l-0.9,0.6l-1,0.6l-1,0.6
		l-1,0.5l-1.1,0.5l-1.1,0.5l-1.1,0.4l-1.1,0.3l-1.2,0.3l-1.2,0.2l-1.2,0.2l-1.2,0.2l-1.2,0.2l-1.3,0.1h-1.3h-1.3l-1.2-0.1l-1.2-0.2
		l-1.2-0.2l-1.2-0.2l-1.2-0.2l-1.2-0.3l-1.1-0.3l-1.1-0.4l-1.1-0.5l-1.1-0.5l-1-0.5l-1-0.6l-1-0.6l-1-0.6l-0.9-0.6l-0.9-0.7
		l-0.9-0.7l-0.9-0.8l-0.6-0.6l-0.6,0.6l-0.9,0.8l-0.9,0.7l-0.9,0.7l-1,0.6l-0.9,0.6l-1,0.6l-1,0.6l-1,0.5l-1,0.5l-1.1,0.5l-1.1,0.4
		l-1.1,0.3l-1.2,0.3l-1.2,0.2l-1.2,0.2l-1.2,0.2l-1.2,0.2l-1.3,0.1h-1h-1.3l-1.3-0.1l-1.2-0.2l-1.2-0.2l-1.2-0.2l-1.2-0.2l-1.2-0.3
		l-1.1-0.3l-1.1-0.4l-1.1-0.5l-1.1-0.5l-1-0.5l-1-0.6l-1-0.6l-0.9-0.6l-0.9-0.6l-0.9-0.7l-0.9-0.7l-0.9-0.8l-0.6-0.6l-0.6,0.6
		l-0.9,0.8l-0.9,0.7l-1,0.7l-0.9,0.6l-0.9,0.6l-1,0.6l-1,0.6l-1,0.5l-1.1,0.5l-1.1,0.5l-1.1,0.4l-1.1,0.3l-1.2,0.3l-1.2,0.2
		l-1.2,0.2l-1.2,0.2l-1.2,0.2l-1.2,0.1h-1.3h-1.3l-1.2-0.1l-1.2-0.2l-1.1-0.3l-1.2-0.2l-1.2-0.2l-1.2-0.3l-1.1-0.3l-1.1-0.4
		l-1.1-0.5l-1.1-0.5l-1-0.5l-1-0.6l-1-0.6l-0.9-0.6l-0.9-0.6l-0.9-0.7l-0.9-0.7l-0.9-0.8l-0.6-0.6l-0.6,0.6l-0.9,0.8l-0.9,0.7
		l-0.9,0.7l-0.9,0.6l-1,0.6l-1,0.6l-1,0.6l-1,0.5l-1.1,0.5l-1.1,0.5l-1.1,0.4l-1.1,0.3l-1.2,0.3l-1.2,0.2l-1.2,0.2l-1.2,0.2
		l-1.2,0.2l-1.3,0.1h-1.3h-1.3l-1.3-0.1l-1.2-0.2l-1.2-0.2l-1.2-0.2l-1.2-0.2l-1.2-0.3l-1.1-0.3l-1.1-0.4l-1.1-0.5l-1-0.5l-1-0.5
		l-1-0.6l-1-0.6l-0.9-0.6l-0.9-0.6L108,216l-0.9-0.7l-0.9-0.8l-0.6-0.6l-0.6,0.6l-0.9,0.8l-0.9,0.7l-0.9,0.7l-1,0.6l-0.9,0.6l-1,0.6
		l-1,0.6l-1,0.5l-1,0.5l-1.1,0.5l-0.9,0.4l-1.1,0.3l-1.2,0.3l-1.2,0.2l-1.2,0.2l-1.2,0.2l-1.2,0.2l-1.3,0.1h-1.1h-1.3l-1.2-0.1
		l-1.2-0.2L80,222l-1.2-0.2l-1.2-0.2l-1.2-0.3l-1.1-0.3l-1.1-0.4l-1.1-0.5l-1.1-0.5l-1-0.5l-1-0.6l-1-0.6l-0.9-0.6l-0.9-0.6
		l-0.9-0.7l-0.9-0.7l-0.9-0.8l-0.9-0.8l-0.8-0.9l-0.8-0.9l-0.7-0.9l-0.7-0.9l-0.7-0.9l-0.6-0.9l-0.6-1l-0.5-1l-0.6-1l-0.5-1
		l-0.5-1.1l-0.4-1.1l-0.3-1.1l-0.3-1.2l-0.2-1.2l-0.2-1.2l-0.1-1.2l-0.2-1.2l-0.1-1.3v-1.3v-1.3l0.1-1.3l0.2-1.2l0.1-1.2l0.2-1.2
		l0.2-1.2l0.3-1.2l0.3-1.1l0.4-1.1l0.5-1.1l0.5-1.1l0.6-1l0.5-1l0.6-1l0.6-0.9l0.7-1l0.7-0.9l0.7-0.9l0.8-0.9l0.8-0.9l0.9-0.8
		l0.9-0.8l0.9-0.7l0.9-0.7l0.9-0.6l0.9-0.6l1-0.5l1-0.6l1-0.5l1.1-0.5l1.1-0.5l1.1-0.4l1.1-0.3l1.2-0.3l1.2-0.2l1.2-0.2l1.2-0.2
		l1.2-0.1l1.2-0.1h1.3h1.3l1.3,0.1l1.2,0.1l1.2,0.2l1.2,0.2l1.2,0.2l1.2,0.3l1.1,0.3l1.1,0.4l1.1,0.5l1,0.5l1,0.5l1,0.6l1,0.5
		l0.9,0.6l0.9,0.6l0.9,0.7l0.9,0.7l0.9,0.8l0.6,0.6l0.6-0.6l0.9-0.8l0.9-0.7l0.9-0.7l0.9-0.6l0.9-0.6l1-0.5l1-0.6l1-0.5l1-0.5
		l1.1-0.5l1.1-0.4l1.1-0.3l1.2-0.3l1.2-0.2l1.2-0.2l1.2-0.2l1.2-0.1l1.3-0.1h1.3h1.2l1.3,0.1l1.2,0.1l1.2,0.2l1.2,0.2l1.2,0.2
		l1.2,0.3l1.1,0.3l1.1,0.4l1.1,0.5l1.1,0.5l1,0.5l1,0.6l1,0.5l0.9,0.6l0.9,0.6l0.9,0.7l0.9,0.7l0.9,0.8l0.6,0.6l0.6-0.6l0.9-0.8
		l0.9-0.7l0.9-0.7l0.9-0.6l0.9-0.6l1-0.5l1-0.6l1-0.5l1.1-0.5l1.1-0.5l1.1-0.4l1.1-0.3l1.2-0.3l1.2-0.2l1.2-0.2l1.2-0.2l1.2-0.1
		l1.3-0.1h1.3h1.3l1.2,0.1l1.2,0.1l1.2,0.2l1.2,0.2l1.2,0.2l1.2,0.3l1.1,0.3l1.1,0.4l1.1,0.5l1.1,0.5l1,0.5l1,0.6l1,0.5l0.9,0.6
		l0.9,0.6l0.9,0.7l0.9,0.7l0.9,0.8l0.6,0.6l0.6-0.6l0.9-0.8l0.9-0.7l0.9-0.7l1-0.6l0.9-0.6l1-0.5l1-0.6l1-0.5l1.1-0.5l1.1-0.5
		l1.1-0.4l1.1-0.3l1.2-0.3l1.2-0.2l1.2-0.2l1.2-0.2l1.2-0.1l1.2-0.1h1.3h1.3l1.3,0.1l1.2,0.1l1.2,0.2l1.2,0.2l1.2,0.2l1.2,0.3
		l1.1,0.3l1.1,0.4l1.1,0.5l1,0.5l1,0.5l1,0.6l1,0.5l0.9,0.6l0.9,0.6l0.9,0.7l0.9,0.7l0.9,0.8l0.6,0.6l0.6-0.6l0.9-0.8l0.9-0.7l1-0.7
		l0.9-0.6l0.9-0.6l1-0.5l1-0.6l1-0.5l1.1-0.5l1.1-0.5l1.1-0.4l1.1-0.3l1.2-0.3l1.2-0.2l1.2-0.2l1.2-0.2l1.2-0.1l1.2-0.1h1.3h1.2
		l1.3,0.1l1.2,0.1l1.2,0.2l1.2,0.2l1.2,0.2l1.2,0.3l1.1,0.3l1.1,0.4l1.1,0.5l1.1,0.5l1,0.5l1,0.6l1,0.5l0.9,0.6l0.9,0.6l1,0.7
		l0.9,0.7l0.9,0.8l0.6,0.6l0.6-0.6l0.9-0.8l0.9-0.7l1-0.7l0.9-0.6l0.9-0.6l1-0.5l1-0.6l1-0.5l1.1-0.5l1.1-0.5l1.1-0.4l1.1-0.3
		l1.2-0.3l1.2-0.2l1.2-0.2l1.2-0.2l1.2-0.1l1.3-0.1h1.3h1.2l1.3,0.1l1.2,0.1l1.2,0.2l1.2,0.2l1.2,0.2l1.2,0.3l1.1,0.3l1.1,0.4
		l1.1,0.5l1,0.5l1,0.5l1,0.6l1,0.5l0.9,0.6l0.9,0.6l0.9,0.7l0.9,0.7l0.9,0.8l0.6,0.6l0.6-0.6l0.9-0.8l0.9-0.7l0.9-0.7l0.9-0.6
		l0.9-0.6l1-0.5l1-0.6l1-0.5l1-0.5l1.1-0.5l1.1-0.4l1.1-0.3l1.2-0.3l1.2-0.2l1.2-0.2l1.2-0.2l1.2-0.1l1.2-0.1h1.3h1.3l0.9,0.1
		L340.6,162.7z"/>
	<path id="daU2R4Ra0" class="st9" d="M404.8,211C404.8,216.9,404.8,205,404.8,211c0,16.5-13.4,30-30,30c-78,0-249.9,0-327.9,0
		c-16.6,0-30-13.4-30-30c0-6,0,5.7,0-0.5c0-16.3,13.2-29.6,29.5-29.6c78.2,0.1,250.4,0.1,328.4,0.1
		C391.4,180.9,404.8,194.4,404.8,211z"/>
	<path id="aJP8LQFDX" class="st10" d="M23.2,195.7l0.6,1l0.6,0.9l0.6,0.9l0.7,0.9l0.7,0.9l0.8,0.9l0.8,0.9l0.9,0.9l0.9,0.8l0.9,0.7
		l0.9,0.7l0.9,0.6l0.9,0.6l1,0.6l1,0.5l1,0.6l1.1,0.5l1.1,0.5l1.1,0.4l1.1,0.4l1.2,0.3l1.2,0.2l1.2,0.2l1.2,0.1l1.2,0.2l1.3,0.1h1.3
		h327.9h1.3l1.2-0.1l1.2-0.2l1.2-0.1l1.2-0.2l1.2-0.2l1.2-0.3l1.1-0.3l1.1-0.4l1.1-0.5l1.1-0.5l1-0.5l1-0.6l1-0.5l0.9-0.6l0.9-0.6
		l1-0.7l0.9-0.7l0.9-0.8l0.9-0.8l0.8-0.9l0.8-0.9l0.7-0.9l0.7-1l0.4-0.5l0.1,0.1l0.5,1.1l0.5,1.1l0.4,1.1l0.3,1.1l0.3,1.2l0.2,1.2
		l0.2,1.2l0.2,1.2l0.2,1.2l0.1,1.3v1.3v1.3l-0.1,1.2l-0.2,1.2l-0.2,1.2l-0.2,1.2l-0.2,1.2l-0.3,1.2l-0.3,1.1l-0.4,1.1l-0.5,1.1
		l-0.5,1l-0.5,1l-0.5,1l-0.5,1l-0.6,0.9l-0.6,0.9l-0.7,0.9l-0.7,0.9l-0.8,0.9l-0.8,0.9l-0.9,0.8l-0.9,0.8l-0.9,0.7l-1,0.7l-0.9,0.7
		l-0.9,0.6l-1,0.5l-1,0.6l-1,0.5l-1.1,0.5l-1.1,0.5l-1.1,0.4l-1.1,0.3l-1.2,0.3l-1.2,0.2l-1.2,0.2l-1.2,0.2l-1.2,0.1l-1.2,0.1h-1.3
		H46.9h-1.3l-1.2-0.1l-1.2-0.1l-1.2-0.2l-1.2-0.2l-1.2-0.2l-1.2-0.3l-1.1-0.3l-1.1-0.4l-1.1-0.5l-1.1-0.5l-1-0.5l-1-0.6l-1-0.5
		l-0.9-0.6l-1-0.6l-0.9-0.7l-0.9-0.7l-0.9-0.8l-0.9-0.8l-0.8-0.9l-0.8-0.9l-0.7-0.9l-0.7-0.9l-0.7-1l-0.6-0.9l-0.6-1l-0.6-1l-0.5-1
		l-0.5-1l-0.5-1.1l-0.4-1.1l-0.3-1.1l-0.3-1.2l-0.2-1.2l-0.2-1.2l-0.2-1.2l-0.2-1.2l-0.1-1.2v-1.3v-0.6v-1.3l0.3-1.4l0.2-1.2
		l0.2-1.2l0.2-1.2l0.2-1.2l0.3-1.1l0.3-1.1l0.4-1.1l0.5-1.1l0.5-1l0.5-1l0.5-1l0.6-0.9l0.6-0.9l0.2-0.4v0.1l0.6,1.1L23.2,195.7z"/>
	<path id="aQuyv2tK1" class="st11" d="M379.4,194.9C379.4,195.9,379.4,193.8,379.4,194.9c0,2.8-2.3,5-5,5c-73,0-255.3,0-328.3,0
		c-2.8,0-5-2.3-5-5c0-1,0,1,0,0c0-2.8,2.3-5,5-5c73,0,255.2,0,328.3,0C377.1,189.8,379.4,192.1,379.4,194.9z"/>
	<path id="f31GJ6G4AG" class="st12" d="M379.4,229.8C379.4,230.9,379.4,228.8,379.4,229.8c0,2.8-2.3,5-5,5c-73,0-255.3,0-328.3,0
		c-2.8,0-5-2.3-5-5c0-1,0,1,0,0c0-2.8,2.3-5,5-5c73,0,255.2,0,328.3,0C377.1,224.8,379.4,227.1,379.4,229.8z"/>
	<path class="st14" d="M54.2,219.3c7.9,7.3,20,7.3,27.8,0c5-4.6,4-3.8,8.5-7.9c9.1-8.5,23.3-8.5,32.5,0
							c12.7,11.8,32.2,11.8,44.9,0c9.1-8.5,23.4-8.5,32.5,0c12.7,11.8,32.2,11.8,44.9,0c9.1-8.5,23.3-8.5,32.5,0
							c12.7,11.8,32.2,11.8,44.9,0c9.1-8.5,23.3-8.5,32.5,0c1.3,1.3,4.6,4.3,9.9,9.2"/>
	<path id="awbRJjh5Q" class="st15" d="M107.6,191.9l0.5,0.9v35.6l-0.5,0.9l-0.5,0.5l-0.8,0.4h-1l-0.8-0.4l-0.6-0.6l-0.4-0.8v-35.6
		l0.4-0.8l0.6-0.6l0.8-0.4h1l0.8,0.4L107.6,191.9z M186.2,191.9l0.5,0.9v35.6l-0.5,0.9l-0.5,0.5l-0.8,0.4h-1l-0.8-0.4l-0.6-0.6
		l-0.4-0.8v-35.6l0.4-0.8l0.6-0.6l0.8-0.4h1l0.8,0.4L186.2,191.9z M264.8,191.9l0.5,0.9v35.6l-0.5,0.9l-0.5,0.5l-0.8,0.4h-1
		l-0.8-0.4l-0.6-0.6l-0.4-0.8v-35.6l0.4-0.8l0.6-0.6l0.8-0.4h1l0.8,0.4L264.8,191.9z M343.4,191.9l0.5,0.9v35.6l-0.5,0.9l-0.5,0.5
		l-0.8,0.4h-1l-0.8-0.4l-0.6-0.6l-0.4-0.8v-35.6l0.4-0.8l0.6-0.6l0.8-0.4h1l0.8,0.4L343.4,191.9z M323.8,191.9l0.5,0.9v35.6
		l-0.5,0.9l-0.5,0.5l-0.8,0.4h-1l-0.8-0.4l-0.6-0.6l-0.4-0.8v-35.6l0.4-0.8l0.6-0.6l0.8-0.4h1l0.8,0.4L323.8,191.9z M245.2,191.9
		l0.5,0.9v35.6l-0.5,0.9l-0.5,0.5l-0.8,0.4h-1l-0.8-0.4l-0.6-0.6l-0.4-0.8v-35.6l0.4-0.8l0.6-0.6l0.8-0.4h1l0.8,0.4L245.2,191.9z
		 M166.5,191.9l0.5,0.9v35.6l-0.5,0.9l-0.5,0.5l-0.8,0.4h-1l-0.8-0.4l-0.6-0.6l-0.4-0.8v-35.6l0.4-0.8l0.6-0.6l0.8-0.4h1l0.8,0.4
		L166.5,191.9z M87.9,191.9l0.5,0.9v35.6l-0.5,0.9l-0.5,0.5l-0.8,0.4h-1l-0.8-0.4l-0.6-0.6l-0.4-0.8v-35.6l0.4-0.8l0.6-0.6l0.8-0.4
		h1l0.8,0.4L87.9,191.9z M68.3,191.8l0.5,1v35.6l-0.5,1l-0.5,0.5l-0.8,0.4h-1l-0.8-0.4l-0.6-0.6l-0.4-0.8v-35.6l0.4-0.8l0.6-0.6
		l0.8-0.4h1l0.8,0.4L68.3,191.8z M146.9,191.8l0.5,1v35.6l-0.5,1l-0.5,0.5l-0.8,0.4h-1l-0.8-0.4l-0.6-0.6l-0.4-0.8v-35.6l0.4-0.8
		l0.6-0.6l0.8-0.4h1l0.8,0.4L146.9,191.8z M225.5,191.8l0.5,1v35.6l-0.5,1l-0.5,0.5l-0.8,0.4h-1l-0.8-0.4l-0.6-0.6l-0.4-0.8v-35.6
		l0.4-0.8l0.6-0.6l0.8-0.4h1l0.8,0.4L225.5,191.8z M304.1,191.8l0.5,1v35.6l-0.5,1l-0.5,0.5l-0.8,0.4h-1l-0.8-0.4l-0.6-0.6l-0.4-0.8
		v-35.6l0.4-0.8l0.6-0.6l0.8-0.4h1l0.8,0.4L304.1,191.8z M363.1,191.8l0.5,1v35.6l-0.5,1l-0.5,0.5l-0.8,0.4h-1l-0.8-0.4l-0.6-0.6
		l-0.4-0.8v-35.6l0.4-0.8l0.6-0.6l0.8-0.4h1l0.8,0.4L363.1,191.8z M284.5,191.8l0.5,1v35.6l-0.5,1l-0.5,0.5l-0.8,0.4h-1l-0.8-0.4
		l-0.6-0.6l-0.4-0.8v-35.6l0.4-0.8l0.6-0.6l0.8-0.4h1l0.8,0.4L284.5,191.8z M205.8,191.8l0.5,1v35.6l-0.5,1l-0.5,0.5l-0.8,0.4h-1
		l-0.8-0.4l-0.6-0.6l-0.4-0.8v-35.6l0.4-0.8l0.6-0.6l0.8-0.4h1l0.8,0.4L205.8,191.8z M127.2,191.8l0.5,1v35.6l-0.5,1l-0.5,0.5
		l-0.8,0.4h-1l-0.8-0.4l-0.6-0.6l-0.4-0.8v-35.6l0.4-0.8l0.6-0.6l0.8-0.4h1l0.8,0.4L127.2,191.8z"/>

	<path id="a6eOnV5ML_2_" class="st16" d="M57.2,212c7.9,7.3,20,7.3,27.8,0c5-4.6,4-3.8,8.5-7.9c9.1-8.5,23.3-8.5,32.5,0
		c12.7,11.8,32.2,11.8,44.9,0c9.1-8.5,23.4-8.5,32.5,0c12.7,11.8,32.2,11.8,44.9,0c9.1-8.5,23.3-8.5,32.5,0
		c12.7,11.8,32.2,11.8,44.9,0c9.1-8.5,23.3-8.5,32.5,0c1.3,1.3,4.6,4.3,9.9,9.2"/>
	<path id="j1TNI8c0Mp_2_" class="st18" d="M134.9,204.9c-16.7-13.4-31.8-13.8-45.2-1.2"/>
	<path id="cQEHD5Vnd_1_" class="st18" d="M215.1,207.1c-9.8-9.2-17.8-13.8-23.7-13.5c-8.9,0.3-15,1.7-24,8.9c-6,4.7-12.8,7-20.5,6.8
		"/>
	<path id="i3g13WqYwD_1_" class="st18" d="M269.7,193.6c-11.4-0.8-19.7,1.8-24.9,7.9c-7.8,9-15.2,7.8-20.6,7.8"/>
	<path id="a26c6Lcngz_1_" class="st18" d="M354.2,196.4c-10.1-4.8-20-3.5-29.6,4c-9.8,7.5-20,9.7-30.8,6.6"/>
</svg>
