<svg width="1168" height="863" viewBox="0 0 1168 863" fill="none" xmlns="http://www.w3.org/2000/svg">
    <g clip-path="url(#clip0)">
        <path opacity="0.1" d="M76.42 338.2H177.9V476.53H83.84C83.6 477.96 83.36 479.38 83.09 480.81H177.9V592.35C177.74 592.35 177.58 592.23 177.43 592.17C174.763 591.11 172.097 589.987 169.43 588.8C168.86 588.54 168.3 588.27 167.72 588.02C165.053 586.76 162.387 585.427 159.72 584.02C158.79 583.53 157.86 583.02 156.95 582.5C142.146 574.239 128.69 563.765 117.05 551.44C116.7 551.11 116.38 550.75 116.05 550.44C114.43 548.68 112.84 546.9 111.3 545.08C110.72 544.41 110.16 543.73 109.59 543.08C107.77 540.86 106.01 538.56 104.31 536.25C104.05 535.9 103.81 535.56 103.56 535.25C96.596 525.613 90.8209 515.171 86.36 504.15C86.22 503.82 86.09 503.46 85.96 503.15C84.58 499.65 83.33 496.1 82.25 492.48C81.79 490.97 81.34 489.48 80.96 487.91C80.82 487.46 80.71 487 80.59 486.55C74.97 464.4 74.32 441.38 74.32 418.47C74.32 415.803 74.32 413.137 74.32 410.47C74.4 401.117 74.51 391.773 74.65 382.44C74.7033 380.04 74.7533 377.63 74.8 375.21C74.94 369.083 75.14 362.943 75.4 356.79C75.46 355.09 75.54 353.38 75.63 351.69C75.67 350.71 75.72 349.73 75.78 348.75C75.96 345.21 76.1733 341.693 76.42 338.2Z" fill="#676CA2"/>
        <path opacity="0.1" d="M177.9 184.18H122.23C131.284 170.025 141.171 156.421 151.84 143.44C160.12 133.28 168.84 123.38 177.9 113.84V184.18Z" fill="#676CA2"/>
        <path opacity="0.1" d="M177.9 188.44V333.92H76.74C76.74 333.5 76.8 333.07 76.84 332.65C76.93 331.5 77.02 330.36 77.12 329.21C77.22 327.87 77.35 326.53 77.48 325.21C77.61 323.89 77.74 322.29 77.9 320.84C78.06 319.39 78.19 317.92 78.35 316.47C78.51 315.02 78.67 313.57 78.85 312.13C79.03 310.69 79.19 309.23 79.39 307.79C79.54 306.6 79.69 305.4 79.86 304.2C80.09 302.51 80.33 300.82 80.58 299.14C80.58 298.88 80.66 298.63 80.7 298.38C82.5276 286.083 85.0112 273.892 88.14 261.86C91.4257 249.24 95.62 236.875 100.69 224.86C106.077 212.271 112.388 200.098 119.57 188.44H177.9Z" fill="#676CA2"/>
        <path opacity="0.1" d="M202.14 338.2V476.53H418.9V338.2H202.14ZM202.14 480.81V599.61C203.38 599.86 204.6 600.11 205.83 600.32C207.48 600.64 209.14 600.93 210.83 601.18L211.83 601.32C212.49 601.43 213.16 601.52 213.83 601.6C215.5 601.84 217.17 602.02 218.83 602.18C219.61 602.26 220.42 602.32 221.21 602.39L223.14 602.53C224.19 602.61 225.23 602.67 226.27 602.71C226.91 602.71 227.55 602.76 228.2 602.78C228.85 602.8 229.2 602.78 229.72 602.78H231.61C232.47 602.78 233.33 602.78 234.18 602.78H235.28C236.14 602.78 237 602.78 237.85 602.7H237.9C238.5 602.7 239.09 602.7 239.69 602.63C239.86 602.64 240.03 602.64 240.2 602.63C240.7 602.63 241.2 602.63 241.68 602.57C241.793 602.561 241.907 602.561 242.02 602.57C243.13 602.5 244.25 602.41 245.38 602.31C246.51 602.21 247.58 602.09 248.71 601.97L250.98 601.69C260.256 600.391 269.429 598.44 278.43 595.85C298.66 590.21 318.43 582.32 338.65 576.55C364.77 569.1 393.65 565.43 418.89 574.5V480.81H202.14ZM418.9 184.18V0.02C395.171 -0.241072 371.506 2.53138 348.48 8.27C293.59 22.06 244.3 51.97 202.14 90.17V184.17H213.05V188.44H202.14V333.92H418.9V188.44H257.68V184.16L418.9 184.18ZM697.38 121.97C683.8 121.49 670.3 117.2 658.08 110.55C634.74 97.86 616.08 78.24 595.24 61.7C551.94 27.23 498.24 6.42 443.15 1.26V184.18H752.56L753.33 183.37L697.38 121.97ZM725.57 116.97L755.46 149.78V108.34C745.4 109.61 736.64 112.56 725.57 116.93V116.97ZM755.46 629.11V480.81H691.72C691.56 480.18 691.38 479.54 691.18 478.9C691.37 479.54 691.54 480.18 691.71 480.81H443.15V588.05C445.51 589.8 447.84 591.65 450.15 593.51C452.643 595.55 455.12 597.613 457.58 599.7L460.06 601.75C461.25 602.75 462.46 603.75 463.66 604.7C466.067 606.64 468.49 608.56 470.93 610.46C472.15 611.42 473.377 612.363 474.61 613.29C494.142 628.217 514.744 641.69 536.25 653.6C541.07 656.29 545.94 658.88 550.84 661.41C554.1 663.09 557.383 664.737 560.69 666.35C565.65 668.77 570.65 671.103 575.69 673.35C622.156 694.208 671.291 708.518 721.69 715.87C732.877 717.517 744.113 718.817 755.4 719.77V629.09H756.4L755.46 629.11ZM443.15 188.44V333.92H755.46V188.44H443.15ZM443.15 338.18V476.53H755.46V338.2L443.15 338.18ZM779.7 108.14V154.44L817.84 112.57C805.2 110.483 792.487 109.007 779.7 108.14ZM779.7 338.2V476.53H1083.45V338.2H779.7ZM1082.38 640.08L1083.45 480.81H779.7V721.38C799.265 722.194 818.86 721.957 838.4 720.67H838.74C848.073 720.07 857.363 719.217 866.61 718.11H866.82C916.165 712.366 964.413 699.478 1010.05 679.85L1082.38 640.08ZM1142.05 360.92C1140.9 358.253 1139.71 355.587 1138.5 352.92C1136.24 347.92 1133.86 343.06 1131.4 338.21H1107.7V476.53H1167.61C1167.56 437.35 1157.64 397.35 1142.05 360.92V360.92ZM1107.7 480.81V617.81C1124.57 601.64 1138.84 583.13 1149.1 561.97C1161.45 536.48 1167.1 508.9 1167.57 480.8L1107.7 480.81ZM1107.7 297.89V333.89H1129.18C1122.67 321.515 1115.5 309.497 1107.7 297.89V297.89ZM901.7 135.29C900.12 134.68 898.53 134.07 896.94 133.49C880.175 127.294 863.042 122.144 845.64 118.07L787.26 182.13L786.12 183.36L786.87 184.17H994.65C965.71 164.256 934.508 147.848 901.7 135.29V135.29ZM1000.75 188.44H783.96L779.7 192.33V333.92H817.05H1083.45V265.32C1059.36 236.189 1031.56 210.343 1000.75 188.44V188.44Z" fill="#676CA2"/>
        <path opacity="0.1" d="M177.9 261.83V333.92H76.74C76.74 333.5 76.8 333.07 76.84 332.65C76.93 331.5 77.02 330.36 77.12 329.21C77.22 327.87 77.35 326.53 77.48 325.21C77.61 323.89 77.74 322.29 77.9 320.84C78.06 319.39 78.19 317.92 78.35 316.47C78.51 315.02 78.67 313.57 78.85 312.13C79.03 310.69 79.19 309.23 79.39 307.79C79.54 306.6 79.69 305.4 79.86 304.2C80.09 302.51 80.33 300.82 80.58 299.14C80.58 298.88 80.66 298.63 80.7 298.38C82.5276 286.083 85.0112 273.892 88.14 261.86L177.9 261.83Z" fill="#676CA2"/>
        <path opacity="0.1" d="M76.42 338.2H177.9V476.53H83.84C83.6 477.96 83.36 479.38 83.09 480.81H177.9V592.35C177.74 592.35 177.58 592.23 177.43 592.17C174.763 591.11 172.097 589.987 169.43 588.8C168.86 588.54 168.3 588.27 167.72 588.02C165.053 586.76 162.387 585.427 159.72 584.02C158.79 583.53 157.86 583.02 156.95 582.5C142.146 574.239 128.69 563.765 117.05 551.44C116.7 551.11 116.38 550.75 116.05 550.44C114.43 548.68 112.84 546.9 111.3 545.08C110.72 544.41 110.16 543.73 109.59 543.08C107.77 540.86 106.01 538.56 104.31 536.25C104.05 535.9 103.81 535.56 103.56 535.25C96.596 525.613 90.8209 515.171 86.36 504.15C86.22 503.82 86.09 503.46 85.96 503.15C84.58 499.65 83.33 496.1 82.25 492.48C81.79 490.97 81.34 489.48 80.96 487.91C80.82 487.46 80.71 487 80.59 486.55C74.97 464.4 74.32 441.38 74.32 418.47C74.32 415.803 74.32 413.137 74.32 410.47C74.4 401.117 74.51 391.773 74.65 382.44C74.7033 380.04 74.7533 377.63 74.8 375.21C74.94 369.083 75.14 362.943 75.4 356.79C75.46 355.09 75.54 353.38 75.63 351.69C75.67 350.71 75.72 349.73 75.78 348.75C75.96 345.21 76.1733 341.693 76.42 338.2Z" fill="#676CA2"/>
        <path opacity="0.1" d="M278.44 209.28V333.92H202.13V209.28H213.01V167.08H257.67V209.28H278.44Z" fill="#676CA2"/>
        <path opacity="0.1" d="M278.43 338.19H202.13V476.52H278.43V338.19Z" fill="#676CA2"/>
        <path opacity="0.1" d="M202.14 480.81H278.44V595.81C269.44 598.401 260.267 600.35 250.99 601.64C250.23 601.75 249.48 601.84 248.72 601.92C247.6 602.05 246.49 602.17 245.38 602.27L242.03 602.54H241.69L240.21 602.62H239.7C239.1 602.62 238.51 602.69 237.91 602.7H237.86C237 602.7 236.15 602.76 235.29 602.78H234.19C233.34 602.78 232.49 602.78 231.62 602.78H229.74H228.21C227.56 602.78 226.92 602.78 226.27 602.7C225.243 602.66 224.203 602.6 223.15 602.52L221.22 602.38C220.42 602.32 219.62 602.24 218.83 602.16C217.15 602.013 215.483 601.823 213.83 601.59L211.83 601.31L210.83 601.17C209.16 600.92 207.5 600.64 205.83 600.32C204.59 600.1 203.37 599.85 202.14 599.59V480.81Z" fill="#676CA2"/>
        <path opacity="0.1" d="M755.45 194.56H692.53V333.91H755.45V194.56Z" fill="#676CA2"/>
        <path opacity="0.1" d="M755.46 338.19V476.53H443.15V416.86H609.5V452.06H692.53V338.19H755.46Z" fill="#676CA2"/>
        <path opacity="0.1" d="M756.45 629.14C756.12 629.14 755.79 629.14 755.45 629.08V719.83C744.177 718.903 732.943 717.607 721.75 715.94C671.333 708.59 622.179 694.287 575.69 673.44C562.27 667.387 549.123 660.79 536.25 653.65C514.751 641.734 494.153 628.262 474.62 613.34C469.7 609.58 464.853 605.737 460.08 601.81C456.77 599.07 453.49 596.27 450.15 593.56C447.85 591.69 445.52 589.84 443.15 588.08V480.81H691.71C691.53 480.17 691.37 479.54 691.19 478.9C691.38 479.54 691.56 480.17 691.72 480.81H755.46V629.07C755.79 629.08 756.12 629.11 756.45 629.14Z" fill="#676CA2"/>
        <path opacity="0.1" d="M919.56 184.18H878.56V171.44H896.93V133.49C898.523 134.077 900.11 134.677 901.69 135.29V171.44H919.55L919.56 184.18Z" fill="#676CA2"/>
        <path opacity="0.1" d="M1018.35 333.92H817.05C817.07 333.925 817.09 333.925 817.11 333.92H817.02H779.7V194.57H790.28V297.57H838.62V236.57H878.57V188.44H919.57V236.6H959.5V297.6H1018.36L1018.35 333.92Z" fill="#676CA2"/>
        <path opacity="0.1" d="M779.7 338.2V476.53H1018.36V338.2H779.7ZM1083.11 639.35L1083.45 529.85H1018.36V480.85H779.7V721.38C799.265 722.194 818.86 721.957 838.4 720.67H838.74C848.073 720.07 857.363 719.217 866.61 718.11H866.82C916.165 712.366 964.413 699.478 1010.05 679.85" fill="#676CA2"/>
        <path opacity="0.1" d="M1111.9 480.81H1167.57C1167.09 508.9 1161.45 536.49 1149.1 561.97C1138.84 583.14 1124.57 601.65 1107.7 617.82V529.82H1111.9V480.81Z" fill="#676CA2"/>
        <path opacity="0.1" d="M1167.61 476.53H1111.9V360.92H1142.05C1157.64 397.35 1167.56 437.35 1167.61 476.53Z" fill="#676CA2"/>
        <path opacity="0.1" d="M755.46 233.3H721.75V276.99H755.46V233.3Z" fill="#676CA2"/>
        <path opacity="0.1" d="M755.46 323.86H721.75V333.92H755.46V323.86Z" fill="#676CA2"/>
        <path opacity="0.1" d="M755.46 338.19H721.75V367.54H755.46V338.19Z" fill="#676CA2"/>
        <path opacity="0.1" d="M755.46 414.42H721.75V458.11H755.46V414.42Z" fill="#676CA2"/>
        <path opacity="0.1" d="M755.46 504.98H721.75V548.67H755.46V504.98Z" fill="#676CA2"/>
        <path opacity="0.1" d="M755.46 629.07C755.79 629.07 756.12 629.07 756.46 629.14C756.13 629.14 755.8 629.14 755.46 629.08V639.23H721.75V595.54H755.46V629.07Z" fill="#676CA2"/>
        <path opacity="0.1" d="M755.46 686.09V719.83C744.18 718.903 732.943 717.607 721.75 715.94V686.09H755.46Z" fill="#676CA2"/>
        <path opacity="0.1" d="M587.62 473.32H443.15V476.53H587.62V473.32Z" fill="#676CA2"/>
        <path opacity="0.1" d="M587.62 480.8H443.15V493.1H587.62V480.8Z" fill="#676CA2"/>
        <path opacity="0.1" d="M587.62 533.42H443.15V553.2H587.62V533.42Z" fill="#676CA2"/>
        <path opacity="0.1" d="M587.62 593.52V613.3H474.62C469.7 609.553 464.853 605.707 460.08 601.76C456.76 599.03 453.48 596.23 450.15 593.52H587.62Z" fill="#676CA2"/>
        <path opacity="0.1" d="M587.62 653.61V673.44H575.69C562.27 667.387 549.123 660.79 536.25 653.65L587.62 653.61Z" fill="#676CA2"/>
        <path opacity="0.1" d="M866.84 351.6H838.4V380.04H866.84V351.6Z" fill="#676CA2"/>
        <path opacity="0.1" d="M251.06 219.09H222.62V247.53H251.06V219.09Z" fill="#676CA2"/>
        <path opacity="0.1" d="M251.06 285.15H222.62V313.59H251.06V285.15Z" fill="#676CA2"/>
        <path opacity="0.1" d="M251.06 351.21H222.62V379.65H251.06V351.21Z" fill="#676CA2"/>
        <path opacity="0.1" d="M251.06 417.26H222.62V445.7H251.06V417.26Z" fill="#676CA2"/>
        <path opacity="0.1" d="M251.06 483.32H222.62V511.76H251.06V483.32Z" fill="#676CA2"/>
        <path opacity="0.1" d="M251.06 549.38H222.62V577.82H251.06V549.38Z" fill="#676CA2"/>
        <path opacity="0.1" d="M975.41 351.6H946.97V380.04H975.41V351.6Z" fill="#676CA2"/>
        <path opacity="0.1" d="M866.84 421.75H838.4V450.19H866.84V421.75Z" fill="#676CA2"/>
        <path opacity="0.1" d="M975.41 421.75H946.97V450.19H975.41V421.75Z" fill="#676CA2"/>
        <path opacity="0.1" d="M866.84 491.89H838.4V520.33H866.84V491.89Z" fill="#676CA2"/>
        <path opacity="0.1" d="M975.41 491.89H946.97V520.33H975.41V491.89Z" fill="#676CA2"/>
        <path opacity="0.1" d="M866.84 562.04H838.4V590.48H866.84V562.04Z" fill="#676CA2"/>
        <path opacity="0.1" d="M975.41 562.04H946.97V590.48H975.41V562.04Z" fill="#676CA2"/>
        <path opacity="0.1" d="M866.84 632.19H838.4V660.63H866.84V632.19Z" fill="#676CA2"/>
        <path opacity="0.1" d="M975.41 632.19H946.97V660.63H975.41V632.19Z" fill="#676CA2"/>
        <path opacity="0.1" d="M838.4 720.67V702.33H866.83V718.06L838.4 720.67Z" fill="#676CA2"/>
        <path opacity="0.1" d="M80.58 298.35V314.62H177.9V298.35H80.58ZM90.27 313.6H82.27V299.38H90.27V313.6ZM99.96 313.6H91.96V299.38H99.96V313.6ZM109.63 313.6H101.63V299.38H109.63V313.6ZM119.32 313.6H111.32V299.38H119.32V313.6ZM129 313.6H121V299.38H129V313.6ZM138.69 313.6H130.69V299.38H138.69V313.6ZM148.38 313.6H140.38V299.38H148.38V313.6ZM158.06 313.6H150.06V299.38H158.06V313.6ZM167.74 313.6H159.74V299.38H167.74V313.6ZM177.43 313.6H169.43V299.38H177.43V313.6Z" fill="#676CA2"/>
        <path opacity="0.1" d="M80.58 345.71V361.98H177.9V345.71H80.58ZM90.27 360.96H82.27V346.74H90.27V360.96ZM99.96 360.96H91.96V346.74H99.96V360.96ZM109.63 360.96H101.63V346.74H109.63V360.96ZM119.32 360.96H111.32V346.74H119.32V360.96ZM129 360.96H121V346.74H129V360.96ZM138.69 360.96H130.69V346.74H138.69V360.96ZM148.38 360.96H140.38V346.74H148.38V360.96ZM158.06 360.96H150.06V346.74H158.06V360.96ZM167.74 360.96H159.74V346.74H167.74V360.96ZM177.43 360.96H169.43V346.74H177.43V360.96Z" fill="#676CA2"/>
        <path opacity="0.1" d="M80.58 393.08V409.34H177.9V393.08H80.58ZM90.27 408.31H82.27V394.09H90.27V408.31ZM99.96 408.31H91.96V394.09H99.96V408.31ZM109.63 408.31H101.63V394.09H109.63V408.31ZM119.32 408.31H111.32V394.09H119.32V408.31ZM129 408.31H121V394.09H129V408.31ZM138.69 408.31H130.69V394.09H138.69V408.31ZM148.38 408.31H140.38V394.09H148.38V408.31ZM158.06 408.31H150.06V394.09H158.06V408.31ZM167.74 408.31H159.74V394.09H167.74V408.31ZM177.43 408.31H169.43V394.09H177.43V408.31Z" fill="#676CA2"/>
        <path opacity="0.1" d="M80.58 440.44V456.7H177.9V440.44H80.58ZM90.27 455.68H82.27V441.44H90.27V455.68ZM99.96 455.68H91.96V441.44H99.96V455.68ZM109.63 455.68H101.63V441.44H109.63V455.68ZM119.32 455.68H111.32V441.44H119.32V455.68ZM129 455.68H121V441.44H129V455.68ZM138.69 455.68H130.69V441.44H138.69V455.68ZM148.38 455.68H140.38V441.44H148.38V455.68ZM158.06 455.68H150.06V441.44H158.06V455.68ZM167.74 455.68H159.74V441.44H167.74V455.68ZM177.43 455.68H169.43V441.44H177.43V455.68Z" fill="#676CA2"/>
        <path opacity="0.1" d="M81.05 487.78C81.43 489.32 81.88 490.84 82.34 492.35V488.81H90.34V503.02H86.05C86.17 503.36 86.3 503.71 86.44 504.02H177.94V487.78H81.05ZM100.05 503.02H92.05V488.81H100.05V503.02ZM109.72 503.02H101.72V488.81H109.72V503.02ZM119.41 503.02H111.41V488.81H119.41V503.02ZM129.09 503.02H121.09V488.81H129.09V503.02ZM138.78 503.02H130.78V488.81H138.78V503.02ZM148.47 503.02H140.47V488.81H148.47V503.02ZM158.15 503.02H150.15V488.81H158.15V503.02ZM167.83 503.02H159.83V488.81H167.83V503.02ZM177.52 503.02H169.52V488.81H177.52V503.02Z" fill="#676CA2"/>
        <path opacity="0.1" d="M103.59 535.14C103.85 535.46 104.09 535.82 104.34 536.14H109.63V542.97L111.34 544.97V536.1H119.34V550.44H116.05C116.37 550.77 116.68 551.12 117.05 551.44H177.88V535.14H103.59ZM129.05 550.44H121.05V536.16H129.05V550.44ZM138.74 550.44H130.74V536.16H138.74V550.44ZM148.43 550.44H140.43V536.16H148.43V550.44ZM158.11 550.44H150.11V536.16H158.11V550.44ZM167.79 550.44H159.79V536.16H167.79V550.44ZM177.48 550.44H169.48V536.16H177.48V550.44Z" fill="#676CA2"/>
        <path opacity="0.1" d="M156.98 582.5C157.9 583.02 158.83 583.5 159.76 584.01V583.51H167.76V588.02C168.34 588.27 168.89 588.54 169.46 588.8V583.51H177.46V592.17C177.612 592.239 177.769 592.295 177.93 592.34V582.5H156.98Z" fill="#676CA2"/>
        <path opacity="0.1" d="M755.45 629.07H756.45H755.45ZM691.18 478.9C691.37 479.54 691.54 480.18 691.71 480.81C691.56 480.18 691.38 479.54 691.18 478.9ZM213.05 184.18V188.44H257.72V184.16L213.05 184.18ZM755.46 629.07H756.46H755.46ZM691.18 478.9C691.37 479.54 691.54 480.18 691.71 480.81C691.56 480.18 691.38 479.54 691.18 478.9ZM755.45 629.07H756.45H755.45ZM691.18 478.9C691.37 479.54 691.54 480.18 691.71 480.81C691.56 480.18 691.38 479.54 691.18 478.9Z" fill="#676CA2"/>
        <path opacity="0.1" d="M879.43 862.87C933.245 862.87 976.87 855.863 976.87 847.22C976.87 838.577 933.245 831.57 879.43 831.57C825.615 831.57 781.99 838.577 781.99 847.22C781.99 855.863 825.615 862.87 879.43 862.87Z" fill="#676CA2"/>
        <g opacity="0.1">
            <path opacity="0.1" d="M518.11 326.01C516.071 330.829 515.197 336.06 515.56 341.28C515.784 337.547 516.646 333.881 518.11 330.44C520.46 324.95 524.26 320.17 526.58 314.67C528.477 310.077 529.274 305.105 528.91 300.15C528.704 303.623 527.916 307.037 526.58 310.25C524.26 315.75 520.46 320.52 518.11 326.01Z" fill="black"/>
            <path opacity="0.1" d="M414.56 333.73C414.62 337.65 414.68 341.58 414.69 345.5C414.69 340.1 414.64 334.71 414.56 329.32C414.48 323.73 414.38 318.07 412.87 312.68C411.87 309.26 410.39 305.79 409.87 302.34C408.98 307.24 411.51 312.21 412.87 317.1C414.38 322.44 414.48 328.14 414.56 333.73Z" fill="black"/>
            <path opacity="0.1" d="M524.05 382.44C521.05 383.25 517.97 383.07 514.9 383.05C507.865 383.005 500.855 383.886 494.05 385.67C490.607 386.727 487.112 387.608 483.58 388.31C479.5 388.817 475.381 388.924 471.28 388.63C450.68 387.82 429.79 386.95 410.06 381.06C409.474 382.368 408.806 383.637 408.06 384.86C428.39 391.32 450.01 392.21 471.32 393.04C475.421 393.334 479.54 393.227 483.62 392.72C487.14 392.025 490.621 391.147 494.05 390.09C500.841 388.3 507.837 387.409 514.86 387.44C517.93 387.44 521.05 387.63 524.01 386.82C526.97 386.01 529.82 383.98 530.62 381.02C530.957 379.649 530.923 378.213 530.52 376.86C529.63 379.66 526.88 381.61 524.05 382.44Z" fill="black"/>
        </g>
        <path opacity="0.1" d="M502.476 511.623L494.584 511.086L494.093 518.31L501.985 518.846L502.476 511.623Z" fill="black"/>
        <g opacity="0.1">
            <path opacity="0.1" d="M474.94 286.87C474.897 286.103 474.913 285.334 474.99 284.57C473.467 286.855 472.42 289.422 471.91 292.12V294.44C471.91 294.44 471.91 294.39 471.91 294.36V294.91C471.91 296.53 471.91 298.16 471.86 299.78H471.72V300.53C471.72 300.27 471.72 300.02 471.67 299.76C469.67 299.44 468.24 297.76 466.75 296.42C465.26 295.08 462.93 293.8 461.11 294.83C460.238 295.421 459.546 296.241 459.11 297.2L456.14 302.44C456.127 301.889 455.996 301.346 455.756 300.85C455.517 300.353 455.174 299.913 454.75 299.56C452.041 300.745 449.746 302.709 448.156 305.202C446.566 307.695 445.753 310.604 445.82 313.56C443.088 311.848 440.802 309.511 439.152 306.741C437.502 303.971 436.535 300.848 436.33 297.63C436.156 301.223 436.944 304.797 438.612 307.984C440.28 311.171 442.768 313.855 445.82 315.76C445.755 312.805 446.569 309.896 448.159 307.404C449.749 304.912 452.043 302.947 454.75 301.76C455.173 302.116 455.515 302.558 455.755 303.056C455.995 303.554 456.126 304.097 456.14 304.65L459.08 299.41C459.516 298.451 460.208 297.631 461.08 297.04C462.9 296.04 465.17 297.22 466.72 298.63C468.27 300.04 469.78 301.79 471.86 302.02C471.86 299.46 471.887 296.907 471.94 294.36C472.431 291.688 473.451 289.142 474.94 286.87V286.87Z" fill="black"/>
            <path opacity="0.1" d="M471.56 296.94C471.61 296.26 471.69 295.58 471.79 294.94L471.9 292.18C471.599 293.748 471.485 295.345 471.56 296.94Z" fill="black"/>
            <path opacity="0.1" d="M501.9 308.87C499.17 310.33 495.69 309.11 493.37 307.07C491.05 305.03 489.48 302.28 487.43 299.96C487.278 300.38 487.257 300.836 487.37 301.268C487.482 301.7 487.723 302.087 488.06 302.38C487.86 302.38 487.67 302.28 487.48 302.23C489.48 304.53 491.07 307.23 493.37 309.23C495.67 311.23 499.17 312.49 501.9 311.03C504.63 309.57 505.41 306.15 505.17 302.82C504.99 305.44 504.05 307.71 501.9 308.87Z" fill="black"/>
            <path opacity="0.1" d="M487.42 302.21C484.076 301.299 481.09 299.387 478.863 296.731C476.636 294.075 475.274 290.802 474.96 287.35C474.39 295.2 480.31 303.07 488.06 304.58C487.73 304.293 487.493 303.915 487.379 303.493C487.265 303.07 487.279 302.624 487.42 302.21V302.21Z" fill="black"/>
        </g>
        <path d="M967.66 465.65C967.66 465.65 963.72 465.1 963.72 459.37C963.72 453.64 960.9 442.91 960.9 442.91C960.9 442.91 958.46 424.24 955.09 421.28C951.72 418.32 947.39 400.94 947.39 400.94C947.39 400.94 946.65 391.51 945.14 389.48C943.63 387.45 941.59 382.48 938.58 375.39C935.57 368.3 923.05 363.44 923.05 363.44C923.05 363.44 900.36 350.28 893.93 345.99C893.342 345.634 892.792 345.219 892.29 344.75C891.17 343.29 886.29 343.26 886.29 343.26C885.78 340.03 885.29 336.33 885.13 332.98C885.13 332.62 885.13 332.26 885.13 331.9C892.3 327.662 897.7 320.98 900.34 313.08C900.46 312.7 900.56 312.31 900.67 311.92C901.109 311.785 901.514 311.558 901.859 311.254C902.203 310.951 902.48 310.578 902.67 310.16C903.24 308.87 903.26 307.37 903.98 306.16C904.82 304.74 906.42 303.98 907.68 302.92C910.86 300.21 911.68 295.66 911.53 291.53C911.43 288.17 910.89 284.79 911.1 281.46C911.1 281.18 911.1 280.9 911.16 280.62C911.22 280.13 911.29 279.62 911.38 279.14C911.87 276.66 912.94 274.32 913.54 271.86C914.14 269.4 914.2 266.63 912.8 264.51C910.75 261.4 906.48 260.78 902.73 260.51C898.48 260.15 894.73 260.61 891.96 257.08C890.689 255.236 889.257 253.509 887.68 251.92C887.12 251.4 881.68 248.07 881.68 247.86C876.357 245.385 870.319 244.92 864.68 246.55C861.85 247.37 859.2 248.71 856.33 249.38C850.17 250.84 843.07 249.26 837.83 252.79C834.91 254.79 833.16 257.98 831.52 261.07C830.187 263.617 828.833 266.167 827.46 268.72C825.24 272.91 823 277.17 822.07 281.81C821.875 282.823 821.752 283.849 821.7 284.88V284.88C821.7 285.25 821.7 285.62 821.7 285.99C821.7 286.15 821.7 286.31 821.7 286.47C821.7 286.81 821.7 287.15 821.76 287.47C821.82 287.79 821.76 287.88 821.83 288.09C821.9 288.3 821.92 288.77 821.98 289.09C822.04 289.41 822.16 289.98 822.28 290.41C822.28 290.6 822.4 290.78 822.46 290.97C822.52 291.16 822.68 291.64 822.81 291.97C822.94 292.3 822.95 292.32 823.03 292.49C823.18 292.84 823.36 293.18 823.54 293.49C823.62 293.62 823.68 293.75 823.76 293.88C824.034 294.348 824.342 294.796 824.68 295.22C826.81 297.89 829.97 299.59 832.3 302.09C832.3 302.19 832.3 302.29 832.3 302.39C832.3 302.66 832.3 302.93 832.3 303.21C832.443 308.786 833.946 314.243 836.678 319.105C839.411 323.968 843.291 328.089 847.98 331.11C847.98 331.49 848.03 331.88 848.05 332.27C848.245 335.235 848.208 338.211 847.94 341.17C847.532 340.692 847.022 340.31 846.448 340.054C845.873 339.798 845.249 339.674 844.62 339.69C844.19 339.669 843.76 339.706 843.34 339.8L843.25 339.73V339.82C841.05 340.36 838.34 342.65 835.75 349.16C835.75 349.16 827.87 358.04 821.87 357.67C815.87 357.3 800.68 366.92 800.68 366.92C800.68 366.92 785.86 376.53 782.68 386.33C780.902 391.888 778.768 397.326 776.29 402.61L757.92 440.33L754.55 470.33C754.55 470.33 756.42 483.64 756.05 485.68C755.68 487.72 763.74 506.02 763.74 506.02C763.74 506.02 790.37 552.8 801.25 555.2L802.03 554.66C802.498 554.896 802.991 555.077 803.5 555.2L805.74 553.63C805.879 555.388 805.818 557.156 805.56 558.9C804.07 563.53 806.13 593.67 808.75 599.58C811.37 605.49 810.44 682.99 810.44 682.99L810.07 689.82C810.07 689.82 810.07 690.04 810.16 690.42L810.07 692.04L810.34 692.18C810.62 694.353 810.529 696.558 810.07 698.7C809.13 701.7 808.75 710.17 808.75 710.17C808.75 710.17 801.25 758.05 804.81 767.67C808.37 777.29 811.38 787.83 811.38 787.83C811.38 787.83 815.13 799.83 811.56 801.83C807.99 803.83 797.88 807.38 799.94 812.37C801.84 816.99 809.05 829.37 810.12 831.18L810.03 832.18L808.56 848.11C808.798 850.213 809.368 852.266 810.25 854.19C811.86 857.67 814.98 861.26 820.94 860.87C821.94 860.8 823.09 860.69 824.22 860.54C835.11 859.07 848.51 854.21 848.51 854.21C847.815 853.77 847.18 853.242 846.62 852.64V852.64C846.085 852.122 845.661 851.499 845.373 850.812C845.086 850.124 844.942 849.385 844.95 848.64C845.11 845.73 839.68 831.92 838.32 828.51L838.01 827.75C838.01 827.75 850.39 814.8 848.33 803.34C848.33 803.34 834.63 795.34 839.14 790.94C843.65 786.54 851.71 773.94 851.71 773.94C851.71 773.94 852.08 726.79 851.71 719.76C851.324 714.87 851.556 709.952 852.4 705.12C852.55 704.4 852.73 703.69 852.92 702.98C859.163 703.922 865.467 704.4 871.78 704.41C874.087 704.41 876.42 704.363 878.78 704.27C878.78 704.937 878.81 705.657 878.87 706.43C879.39 718.11 880.36 738.6 881.15 746.21C882.27 757.11 888.46 786.52 888.46 786.52C888.46 786.52 876.65 794.09 890.52 812.78C890.52 812.78 890.52 819.54 889.6 820.53C888.617 823.737 887.826 826.999 887.23 830.3C886.65 833.81 886.41 837.38 887.35 839.22C889.6 843.64 903.1 843.28 903.1 843.28C903.208 843.255 903.319 843.238 903.43 843.23C905.978 842.961 908.554 843.202 911.008 843.941C913.462 844.679 915.744 845.899 917.72 847.53C922.85 851.65 942.31 849.85 952.86 848.53C956.99 848 959.75 847.53 959.75 847.53C959.883 847.062 959.93 846.575 959.89 846.09V846.09C959.78 843.5 957.75 837.82 943.99 832.75C943.99 832.75 931.05 824.05 931.23 816.47H930.94H929.45C930.39 816.44 931.05 816.44 931.05 816.44C931.05 816.44 925.98 797.95 928.05 796.44C930.12 794.93 923.92 774.44 923.92 774.44C923.92 774.44 920.37 740.04 920.17 737.64C920.183 735.572 920.5 733.516 921.11 731.54L920.17 712.67C920.17 712.67 919.99 706.4 920.17 704.36C920.15 702.589 920.01 700.822 919.75 699.07C919.66 698.37 919.57 697.64 919.47 696.92C924.32 695.69 927.47 694.56 927.47 694.56L926.91 628.91C931.03 620.91 931.79 603.35 931.77 590.91C931.77 582.91 931.41 576.99 931.41 576.99L937.04 567.8C937.04 567.8 938.34 556.8 936.28 554.39C935.37 553.3 935.78 552.17 936.53 551.24C936.925 550.917 937.342 550.622 937.78 550.36C937.731 550.29 937.687 550.217 937.65 550.14C938.043 549.812 938.461 549.514 938.9 549.25C938.9 549.25 936.9 546.15 938.69 544.84C940.37 545.98 941.87 546.89 943.01 547.54C942.93 548.27 942.85 548.69 942.85 548.69L943.33 547.69C944.43 548.31 945.1 548.69 945.1 548.69C945.1 548.69 953.92 531.12 953.73 528.54C953.54 525.96 959.73 515.04 959.73 515.04C959.73 515.04 960.48 509.3 963.86 506.9C967.24 504.5 966.48 487.11 966.48 487.11C966.48 487.11 967.42 478.05 969.67 474.36C971.92 470.67 967.66 465.65 967.66 465.65ZM798.9 457.94L799.07 462.13C798.07 460.52 797.35 459.37 797.35 459.37L798.9 457.94Z" fill="url(#paint0_linear)"/>
        <path d="M945.62 541.09L943.46 550.29C943.46 550.29 926.16 541.44 923.05 530.24C919.94 519.04 928.26 514.77 928.26 514.77L944.39 521.59L945.62 541.09Z" fill="white"/>
        <path opacity="0.1" d="M945.62 541.09L943.46 550.29C943.46 550.29 926.16 541.44 923.05 530.24C919.94 519.04 928.26 514.77 928.26 514.77L944.39 521.59L945.62 541.09Z" fill="black"/>
        <path d="M848.53 854.2C848.53 854.2 832.53 860.08 821.53 860.82C815.69 861.21 812.62 857.63 811.04 854.18C810.181 852.277 809.622 850.253 809.38 848.18L810.83 832.33L811.59 823.9L834.96 817.82L838.27 827.95L838.58 828.71C839.9 832.1 845.24 845.84 845.08 848.71C845.067 849.452 845.205 850.189 845.485 850.877C845.765 851.565 846.182 852.188 846.71 852.71C847.251 853.282 847.863 853.782 848.53 854.2V854.2Z" fill="white"/>
        <path d="M957.77 846.14C957.811 846.625 957.764 847.113 957.63 847.58C957.63 847.58 923.41 853.28 916.41 847.58C914.442 845.915 912.149 844.679 909.676 843.95C907.204 843.222 904.606 843.017 902.05 843.35C902.05 843.35 888.81 843.71 886.6 839.35C885.68 837.52 885.92 833.97 886.49 830.48C887.072 827.197 887.847 823.952 888.81 820.76L889.34 820.34L892.49 817.81L929.37 816.72H929.65C929.47 824.26 942.16 832.91 942.16 832.91C955.67 837.91 957.66 843.56 957.77 846.14Z" fill="white"/>
        <path opacity="0.1" d="M957.78 846.14C957.815 846.625 957.765 847.113 957.63 847.58C957.63 847.58 923.41 853.28 916.42 847.58C914.451 845.914 912.156 844.677 909.681 843.948C907.207 843.22 904.608 843.016 902.05 843.35C902.05 843.35 888.8 843.71 886.59 839.35C885.68 837.52 885.91 833.97 886.48 830.47C891.58 830.98 899.63 832.25 902.79 835.29C907.57 839.89 915.67 844.49 920.63 844.86C924.55 845.1 947.86 845.84 957.78 846.14Z" fill="black"/>
        <path opacity="0.1" d="M848.53 854.2C848.53 854.2 832.53 860.08 821.53 860.82C815.69 861.21 812.62 857.63 811.04 854.18C815.12 855.55 820.77 856.98 823.74 855.67C827.26 854.1 839.74 853.1 846.74 852.67C847.268 853.255 847.869 853.77 848.53 854.2V854.2Z" fill="black"/>
        <path d="M872.27 380.31C859.07 375.18 842.09 358.23 846.33 350.31C847.267 348.31 847.826 346.154 847.98 343.95C848.253 340.958 848.293 337.949 848.1 334.95C847.802 330.036 847.211 325.144 846.33 320.3C846.33 320.3 887.54 321.23 885.14 327.3C884.44 329.09 884.32 332.18 884.52 335.63C884.72 339.08 885.21 343.01 885.73 346.32C886.44 350.85 887.17 354.32 887.17 354.32C887.17 354.32 884.64 357.85 883.17 358.04C881.7 358.23 891.21 387.66 872.27 380.31Z" fill="#CF6F80"/>
        <path opacity="0.1" d="M838.54 828.66L838.23 829C825.91 814.1 811.01 832.68 811.01 832.68L810.79 832.28L811.55 823.85L834.92 817.77L838.23 827.9L838.54 828.66Z" fill="black"/>
        <path opacity="0.1" d="M929.67 817.77C929.67 817.77 920.67 817.59 915.87 821.83C911.07 826.07 887.87 822.74 888.87 821.83C889.162 821.368 889.34 820.844 889.39 820.3L892.54 817.77L929.42 816.68C929.56 817.38 929.67 817.77 929.67 817.77Z" fill="black"/>
        <path d="M853.87 700.76C853.201 702.418 852.692 704.135 852.35 705.89C851.516 710.696 851.284 715.587 851.66 720.45C852.03 727.45 851.66 774.36 851.66 774.36C851.66 774.36 843.75 786.87 839.33 791.28C834.91 795.69 848.33 803.61 848.33 803.61C850.33 815.02 838.21 827.9 838.21 827.9C825.89 813 810.99 831.57 810.99 831.57C810.99 831.57 802.89 817.57 800.87 812.57C798.85 807.57 808.78 804.12 812.27 802.08C815.76 800.04 812.09 788.08 812.09 788.08C812.09 788.08 809.15 777.59 805.65 768.02C802.15 758.45 809.51 710.82 809.51 710.82C809.51 710.82 809.89 702.35 810.8 699.4C811.254 697.271 811.345 695.08 811.07 692.92C811.01 692.19 810.94 691.59 810.89 691.17C810.84 690.75 810.8 690.57 810.8 690.57L810.94 690.33L815.94 681.01C815.94 681.01 856.27 694.89 853.87 700.76Z" fill="#676CA2"/>
        <path d="M929.67 816.67C929.67 816.67 920.67 816.48 915.87 820.67C911.07 824.86 887.87 821.59 888.87 820.67C889.87 819.75 889.78 812.95 889.78 812.95C876.17 794.36 887.78 786.82 887.78 786.82C887.78 786.82 881.71 757.57 880.61 746.72C879.84 739.15 878.89 718.72 878.38 707.15C878.16 702.15 878.03 698.7 878.03 698.7L889.05 696.51L890.48 696.23L917.3 690.84C917.3 690.84 918.04 695.84 918.54 699.93C918.793 701.676 918.93 703.436 918.95 705.2C918.78 707.2 918.95 713.47 918.95 713.47L919.87 732.23C919.276 734.199 918.967 736.243 918.95 738.3C919.14 740.7 922.63 774.91 922.63 774.91C922.63 774.91 928.7 795.33 926.63 796.8C924.56 798.27 929.67 816.67 929.67 816.67Z" fill="#676CA2"/>
        <path opacity="0.1" d="M885.14 327.33C884.44 329.12 884.32 332.21 884.52 335.66C879 338.984 872.654 340.683 866.212 340.563C859.77 340.443 853.492 338.508 848.1 334.98C847.802 330.066 847.211 325.174 846.33 320.33C846.33 320.33 887.54 321.26 885.14 327.33Z" fill="black"/>
        <path d="M901.05 305.25C901.159 314.323 897.659 323.068 891.32 329.56C884.981 336.053 876.323 339.761 867.25 339.87C858.177 339.979 849.432 336.479 842.94 330.14C836.447 323.801 832.739 315.143 832.63 306.07C832.63 305.79 832.63 305.53 832.63 305.25C832.63 296.174 836.235 287.47 842.653 281.053C849.07 274.635 857.774 271.03 866.85 271.03C875.926 271.03 884.63 274.635 891.047 281.053C897.465 287.47 901.07 296.174 901.07 305.25H901.05Z" fill="#CF6F80"/>
        <path opacity="0.1" d="M872.27 380.31C859.07 375.18 842.09 358.23 846.33 350.31C847.267 348.31 847.826 346.154 847.98 343.95L866.05 358.81L877.23 367.98L885.73 346.35C886.44 350.88 887.17 354.35 887.17 354.35C887.17 354.35 884.64 357.88 883.17 358.07C881.7 358.26 891.21 387.66 872.27 380.31Z" fill="black"/>
        <path d="M919 445.98L903.91 699.48L884.23 700.77L833.26 553.78L841.62 379.27L843.39 342.4L866.05 361.01L877.23 370.18L885.98 347.91L902.25 362.09L919 445.98Z" fill="#676CA2"/>
        <path opacity="0.1" d="M853.87 700.76C853.201 702.418 852.692 704.135 852.35 705.89C838.016 703.683 824.095 699.338 811.05 693L810.78 692.86L810.87 691.25V690.41L815.87 681.09C815.87 681.09 856.27 694.89 853.87 700.76Z" fill="black"/>
        <path opacity="0.1" d="M889.38 705.93C885.719 706.556 882.027 706.98 878.32 707.2C878.1 702.2 877.97 698.75 877.97 698.75L889.05 696.51L889.38 705.93Z" fill="black"/>
        <path opacity="0.1" d="M918.58 699.93C911.47 701.78 900.48 703.86 890.66 702.56L890.52 696.23L917.34 690.84C917.34 690.84 918.05 695.8 918.58 699.93Z" fill="black"/>
        <path opacity="0.1" d="M890.48 703.72C849.48 710.72 811.93 690.65 811.93 690.65L812.29 683.85C812.29 683.85 813.22 606.76 810.64 600.85C808.06 594.94 806.05 565.01 807.51 560.44C808.97 555.87 802.18 486.87 802.18 486.87L801.08 458.87L760.79 442.5L778.79 404.97C781.221 399.709 783.312 394.298 785.05 388.77C788.18 379.02 802.71 369.45 802.71 369.45C802.71 369.45 817.61 359.89 823.5 360.25C829.39 360.61 837.11 351.79 837.11 351.79C842.81 337.26 847.97 343.79 847.97 343.79C847.97 344.49 847.97 343.79 847.69 345.94C845.69 361.89 880.03 412.29 880.52 413.19L883.83 492.85L887.14 593.66L890.48 703.72Z" fill="black"/>
        <path d="M889.38 703.72C848.38 710.72 810.82 690.65 810.82 690.65L811.19 683.85C811.19 683.85 812.11 606.76 809.53 600.85C806.95 594.94 804.94 564.98 806.41 560.37C807.88 555.76 801.05 486.83 801.05 486.83L799.94 458.83L759.66 442.46L777.66 404.93C780.085 399.67 782.176 394.263 783.92 388.74C787.05 379.02 801.63 369.44 801.63 369.44C801.63 369.44 816.53 359.88 822.41 360.24C828.29 360.6 836.05 351.79 836.05 351.79C841.76 337.26 848.05 343.79 848.05 343.79C848.05 344.49 847.45 344.79 847.77 345.94C852.17 361.41 879.01 412.29 879.5 413.19L882.81 492.85L886.05 593.71L889.38 703.72Z" fill="white"/>
        <path opacity="0.1" d="M878.33 415.44C873.92 413.6 850.56 386.93 850.56 386.93V380.86C849.71 378.86 844.65 380.08 840.56 381.48L842.32 344.61L844.32 346.27C848.69 361.73 877.85 414.55 878.33 415.44Z" fill="black"/>
        <path d="M879.44 413.24C875.02 411.39 851.66 384.73 851.66 384.73V378.65C850.81 376.65 845.76 377.87 841.66 379.27L843.39 342.44L845.39 344.09C849.8 359.53 878.95 412.34 879.44 413.24Z" fill="white"/>
        <path opacity="0.1" d="M811.93 546.24C812.48 546.24 840.44 543.3 840.44 543.3C840.44 543.3 857.37 576.6 856.26 584.69C855.15 592.78 853.14 599.96 846.33 598.69C839.52 597.42 809.68 599.69 809.68 599.69L811.93 546.24Z" fill="black"/>
        <path d="M810.82 544.03C811.38 544.03 839.34 541.09 839.34 541.09C839.34 541.09 856.26 574.44 855.16 582.44C854.06 590.44 852.03 597.71 845.23 596.44C838.43 595.17 808.57 597.44 808.57 597.44L810.82 544.03Z" fill="white"/>
        <path d="M831.89 528.44C831.89 528.44 857.55 542.24 858.1 546.44C858.65 550.64 845.04 544.6 842.1 543.86C840.164 543.4 838.194 543.093 836.21 542.94L816.6 543.47L831.89 528.44Z" fill="#CF6F80"/>
        <path opacity="0.1" d="M871.16 417.16C872.651 417.16 873.86 415.951 873.86 414.46C873.86 412.969 872.651 411.76 871.16 411.76C869.669 411.76 868.46 412.969 868.46 414.46C868.46 415.951 869.669 417.16 871.16 417.16Z" fill="black"/>
        <path d="M871.16 416.06C872.651 416.06 873.86 414.851 873.86 413.36C873.86 411.869 872.651 410.66 871.16 410.66C869.669 410.66 868.46 411.869 868.46 413.36C868.46 414.851 869.669 416.06 871.16 416.06Z" fill="#3F3D56"/>
        <path opacity="0.1" d="M876.13 534.04C877.621 534.04 878.83 532.831 878.83 531.34C878.83 529.849 877.621 528.64 876.13 528.64C874.639 528.64 873.43 529.849 873.43 531.34C873.43 532.831 874.639 534.04 876.13 534.04Z" fill="black"/>
        <path d="M876.13 532.93C877.621 532.93 878.83 531.721 878.83 530.23C878.83 528.739 877.621 527.53 876.13 527.53C874.639 527.53 873.43 528.739 873.43 530.23C873.43 531.721 874.639 532.93 876.13 532.93Z" fill="#3F3D56"/>
        <path opacity="0.1" d="M873.86 475.6C875.351 475.6 876.56 474.391 876.56 472.9C876.56 471.409 875.351 470.2 873.86 470.2C872.369 470.2 871.16 471.409 871.16 472.9C871.16 474.391 872.369 475.6 873.86 475.6Z" fill="black"/>
        <path d="M873.86 474.5C875.351 474.5 876.56 473.291 876.56 471.8C876.56 470.309 875.351 469.1 873.86 469.1C872.369 469.1 871.16 470.309 871.16 471.8C871.16 473.291 872.369 474.5 873.86 474.5Z" fill="#3F3D56"/>
        <path d="M936.1 542.38C936.1 542.38 937.94 545.14 936.1 546.38C934.26 547.62 936.28 550.8 936.28 550.8C936.28 550.8 931.69 553.48 933.71 555.91C935.73 558.34 934.45 569.25 934.45 569.25L928.93 578.44C928.93 578.44 929.26 584.33 929.28 592.29C929.28 604.71 928.55 622.17 924.51 630.13L925.05 695.44C925.05 695.44 905.72 702.51 889.54 700.35L887.14 595.55C887.14 595.55 890.64 536.12 891.93 524.72C892.685 518.802 892.993 512.835 892.85 506.87C892.85 506.87 892.3 489.03 890.45 480.76C890.45 480.76 888.45 444.88 888.25 434.95C888.16 430.2 888.41 416.34 888.69 403.16C889 388.75 889.35 375.16 889.35 375.16L885.7 346.27C885.7 346.27 889.35 345.91 890.45 347.37C890.943 347.83 891.479 348.242 892.05 348.6C898.36 352.86 920.62 365.96 920.62 365.96C920.62 365.96 932.94 370.86 935.89 377.88C938.84 384.9 940.89 389.88 942.32 391.88C943.75 393.88 944.53 403.28 944.53 403.28C944.53 403.28 948.77 420.58 952.08 423.51C955.39 426.44 957.77 445.04 957.77 445.04L928.52 468.04C928.52 468.04 925.95 506.3 925.4 507.78C924.85 509.26 936.1 542.38 936.1 542.38Z" fill="white"/>
        <path d="M937.21 542.38C937.21 542.38 939.04 545.14 937.21 546.38C935.38 547.62 937.38 550.8 937.38 550.8C937.38 550.8 932.79 553.48 934.81 555.91C936.83 558.34 935.55 569.25 935.55 569.25L930.05 578.44C930.05 578.44 930.38 584.33 930.41 592.29C930.41 604.71 929.68 622.17 925.64 630.13L926.19 695.44C926.19 695.44 906.86 702.51 890.68 700.35L888.29 595.55C888.29 595.55 891.78 536.12 893.08 524.72C893.836 518.802 894.14 512.834 893.99 506.87C893.99 506.87 893.44 489.03 891.6 480.76C891.6 480.76 889.6 444.88 889.39 434.95C889.3 430.2 889.55 416.34 889.83 403.16C890.14 388.75 890.49 375.16 890.49 375.16L885.67 345.88C885.67 345.88 890.49 345.88 891.6 347.37C892.088 347.836 892.624 348.248 893.2 348.6V348.6C899.5 352.86 921.76 365.96 921.76 365.96C921.76 365.96 934.05 370.86 937.05 377.88C940.05 384.9 942.05 389.88 943.48 391.88C944.91 393.88 945.69 403.28 945.69 403.28C945.69 403.28 949.93 420.58 953.24 423.51C956.55 426.44 958.94 445.04 958.94 445.04L929.69 468.04C929.69 468.04 927.12 506.3 926.56 507.78C926 509.26 937.21 542.38 937.21 542.38Z" fill="white"/>
        <path opacity="0.1" d="M902.18 383.65L904.83 391.35L890.92 405.35C891.23 390.94 891.58 377.35 891.58 377.35L886.76 348.08C886.76 348.08 891.58 348.08 892.69 349.57C893.178 350.036 893.714 350.448 894.29 350.8V350.8L906.11 384.89L902.18 383.65Z" fill="black"/>
        <path d="M901.05 381.44L903.7 389.13L889.8 403.13C890.1 388.72 890.46 375.13 890.46 375.13L885.63 345.85C885.63 345.85 890.46 345.85 891.56 347.34C892.05 347.803 892.587 348.215 893.16 348.57V348.57L905.05 382.69L901.05 381.44Z" fill="white"/>
        <path opacity="0.1" d="M901.05 305.25C901.054 308.853 900.487 312.434 899.37 315.86C899.182 315.891 898.989 315.885 898.804 315.84C898.618 315.795 898.443 315.714 898.29 315.6C898.02 306.6 893.6 298.14 888.15 290.95C886.617 288.781 884.763 286.859 882.65 285.25C880.511 283.645 877.852 282.893 875.19 283.14C872.19 283.55 869.54 285.59 866.51 285.85C862.51 286.18 858.93 283.41 854.96 283.28C853.346 283.293 851.753 283.652 850.289 284.331C848.824 285.011 847.522 285.996 846.47 287.22C844.382 289.682 842.833 292.554 841.92 295.65C840.348 300.348 839.491 305.257 839.38 310.21C839.33 313.01 839.06 316.52 836.46 317.54C836.657 315.482 836.423 313.406 835.774 311.443C835.125 309.481 834.075 307.675 832.69 306.14L832.63 306.07C832.63 305.79 832.63 305.53 832.63 305.25C832.63 296.174 836.235 287.47 842.653 281.053C849.07 274.635 857.774 271.03 866.85 271.03C875.926 271.03 884.63 274.635 891.047 281.053C897.465 287.47 901.07 296.174 901.07 305.25H901.05Z" fill="black"/>
        <path d="M881.05 250.92C875.854 248.476 869.943 248.013 864.43 249.62C861.66 250.44 859.05 251.77 856.24 252.44C850.24 253.89 843.24 252.32 838.09 255.83C835.23 257.83 833.51 260.99 831.91 264.07L827.91 271.68C825.73 275.85 823.53 280.09 822.62 284.68C821.71 289.27 822.26 294.41 825.17 298.11C827.28 300.79 830.42 302.48 832.72 305.01C834.102 306.552 835.149 308.364 835.796 310.331C836.443 312.299 836.676 314.378 836.48 316.44C839.08 315.44 839.34 311.91 839.4 309.11C839.512 304.157 840.369 299.249 841.94 294.55C842.853 291.454 844.402 288.582 846.49 286.12C847.542 284.895 848.844 283.908 850.308 283.227C851.772 282.546 853.365 282.185 854.98 282.17C858.98 282.31 862.57 285.08 866.53 284.74C869.53 284.49 872.19 282.45 875.21 282.04C877.873 281.788 880.534 282.541 882.67 284.15C884.784 285.754 886.636 287.677 888.16 289.85C893.62 297.05 898.05 305.47 898.31 314.5C899.44 315.32 901.07 314.24 901.63 312.96C902.19 311.68 902.21 310.18 902.92 308.96C903.74 307.55 905.31 306.79 906.54 305.73C909.66 303.04 910.44 298.51 910.32 294.4C910.2 290.29 909.4 286.12 910.18 282.08C910.65 279.61 911.71 277.28 912.29 274.83C912.87 272.38 912.94 269.63 911.57 267.52C909.57 264.43 905.36 263.81 901.69 263.52C897.52 263.16 893.79 263.62 891.13 260.11C889.878 258.281 888.473 256.561 886.93 254.97C886.38 254.44 881.05 251.14 881.05 250.92Z" fill="#512E4E"/>
        <path opacity="0.1" d="M772.33 461.8L761.89 442.49L758.58 472.29C758.58 472.29 760.42 485.53 760.05 487.56C759.68 489.59 767.59 507.79 767.59 507.79C767.59 507.79 793.72 554.34 804.39 556.73L840.39 530.97L830.83 518.83C830.83 518.83 827.52 517.54 826.69 518.83C826.69 518.83 808.93 488.29 807.1 486.09C805.27 483.89 805.62 479.46 805.62 479.46C805.62 479.46 802.86 476.52 803.78 473.76C804.7 471 798.5 461.44 798.5 461.44L804.2 456.11L772.33 461.8Z" fill="black"/>
        <path d="M762.44 440.28L759.68 442.49L756.37 472.29C756.37 472.29 758.21 485.53 757.84 487.56C757.47 489.59 765.39 507.79 765.39 507.79C765.39 507.79 791.51 554.34 802.18 556.73L838.24 530.97L828.67 518.83C828.67 518.83 825.36 517.54 824.53 518.83C824.53 518.83 806.78 488.29 804.94 486.09C803.1 483.89 803.47 479.46 803.47 479.46C803.47 479.46 800.71 476.52 801.63 473.76C802.55 471 796.29 461.44 796.29 461.44L801.99 456.11L762.44 440.28Z" fill="white"/>
        <path opacity="0.1" d="M933.71 557.06C935.71 559.49 934.45 570.41 934.45 570.41L928.93 579.54C928.93 579.54 929.26 585.44 929.28 593.4L920 596.3C919.16 596.562 918.27 596.619 917.403 596.467C916.536 596.315 915.719 595.958 915.018 595.425C914.317 594.893 913.754 594.201 913.375 593.407C912.996 592.613 912.813 591.739 912.84 590.86L914.45 539.26L936.1 547.53C934.26 548.81 936.28 551.95 936.28 551.95C936.28 551.95 931.69 554.63 933.71 557.06Z" fill="black"/>
        <path d="M934.81 555.96C936.81 558.38 935.55 569.3 935.55 569.3L930.05 578.44C930.05 578.44 930.38 584.33 930.41 592.29L920.96 595.24C920.139 595.497 919.269 595.554 918.422 595.407C917.575 595.259 916.775 594.911 916.09 594.391C915.405 593.871 914.854 593.195 914.483 592.419C914.113 591.643 913.933 590.79 913.96 589.93L915.57 538.15L937.21 546.44C935.36 547.72 937.38 550.86 937.38 550.86C937.38 550.86 932.79 553.53 934.81 555.96Z" fill="white"/>
        <path d="M941.99 531.34C941.99 531.34 940.52 540.73 936.84 541.28C933.16 541.83 931.51 556.47 927.84 555.96C924.17 555.45 926.6 542.34 926.73 539.8C926.86 537.26 922.73 526.74 925.81 524.35C928.89 521.96 938.69 524.35 938.69 524.35L941.99 531.34Z" fill="#CF6F80"/>
        <path opacity="0.1" d="M949.77 459.04L956.7 445.04C956.7 445.04 959.47 455.71 959.47 461.41C959.47 467.11 963.33 467.67 963.33 467.67C963.33 467.67 967.56 472.67 965.33 476.32C963.1 479.97 962.21 489.01 962.21 489.01C962.21 489.01 962.94 506.3 959.63 508.69C956.32 511.08 955.58 516.79 955.58 516.79C955.58 516.79 949.51 527.64 949.7 530.22C949.89 532.8 941.24 550.27 941.24 550.27C941.24 550.27 945.47 528.56 920.82 519.18C920.82 519.18 920.63 511.82 922.47 509.8C924.31 507.78 927.18 506.8 925.38 496.64C923.58 486.48 924.86 474.23 924.86 471.78C924.86 469.33 930.38 454.06 930.38 454.06L949.77 459.04Z" fill="black"/>
        <path d="M952.85 443.04L958.91 445.04C958.91 445.04 961.68 455.71 961.68 461.41C961.68 467.11 965.54 467.67 965.54 467.67C965.54 467.67 969.77 472.67 967.54 476.32C965.31 479.97 964.41 489.01 964.41 489.01C964.41 489.01 965.15 506.3 961.84 508.69C958.53 511.08 957.84 516.79 957.84 516.79C957.84 516.79 951.77 527.64 951.96 530.22C952.15 532.8 943.49 550.27 943.49 550.27C943.49 550.27 947.72 528.56 923.07 519.18C923.07 519.18 922.89 511.82 924.73 509.8C926.57 507.78 929.44 506.8 927.64 496.64C925.84 486.48 927.12 474.23 927.12 471.78C927.12 469.33 932.64 454.06 932.64 454.06L952.85 443.04Z" fill="white"/>
        <path opacity="0.1" d="M818.97 805.91C818.97 805.91 828.63 799.84 834.97 804.25C841.31 808.66 818.97 805.91 818.97 805.91Z" fill="black"/>
        <path opacity="0.1" d="M894.05 787.14C894.05 787.14 902.6 786.04 909.78 793.77C916.96 801.5 894.05 787.14 894.05 787.14Z" fill="black"/>
        <g opacity="0.1">
            <path opacity="0.1" d="M906.54 303.53C905.31 304.6 903.73 305.35 902.91 306.76C902.21 307.97 902.19 309.47 901.63 310.76C901.07 312.05 899.44 313.12 898.3 312.3C898.04 303.3 893.61 294.85 888.16 287.65C886.636 285.48 884.784 283.561 882.67 281.96C880.531 280.347 877.867 279.591 875.2 279.84C872.2 280.25 869.56 282.29 866.53 282.55C862.53 282.88 858.94 280.11 854.97 279.98C853.357 279.992 851.765 280.35 850.302 281.03C848.84 281.71 847.54 282.695 846.49 283.92C844.402 286.382 842.853 289.254 841.94 292.35C840.369 297.049 839.512 301.957 839.4 306.91C839.34 309.7 839.08 313.18 836.5 314.22C836.56 314.962 836.56 315.708 836.5 316.45C839.11 315.45 839.37 311.92 839.43 309.12C839.542 304.167 840.399 299.259 841.97 294.56C842.883 291.464 844.432 288.592 846.52 286.13C847.57 284.905 848.87 283.919 850.333 283.238C851.795 282.557 853.387 282.196 855 282.18C859 282.32 862.6 285.09 866.56 284.75C869.56 284.5 872.22 282.46 875.23 282.05C877.896 281.798 880.56 282.551 882.7 284.16C884.814 285.764 886.666 287.687 888.19 289.86C893.64 297.06 898.07 305.48 898.33 314.51C899.47 315.33 901.1 314.25 901.66 312.97C902.22 311.69 902.24 310.19 902.94 308.97C903.76 307.56 905.34 306.8 906.57 305.74C909.69 303.05 910.47 298.52 910.35 294.41C910.35 294.28 910.35 294.16 910.35 294.03C910.15 297.61 909.2 301.24 906.54 303.53Z" fill="black"/>
            <path opacity="0.1" d="M832.71 302.83C830.42 300.3 827.28 298.6 825.17 295.92C823.388 293.554 822.372 290.7 822.26 287.74C821.946 291.441 822.98 295.131 825.17 298.13C827.28 300.81 830.42 302.5 832.71 305.03C834.922 307.503 836.251 310.64 836.49 313.95C836.64 311.938 836.383 309.915 835.734 308.005C835.084 306.094 834.056 304.334 832.71 302.83Z" fill="black"/>
            <path opacity="0.1" d="M912.29 272.63C911.7 275.08 910.65 277.41 910.17 279.88C909.882 281.55 909.778 283.247 909.86 284.94C909.893 283.984 909.997 283.031 910.17 282.09C910.65 279.62 911.7 277.29 912.29 274.84C912.629 273.488 912.741 272.089 912.62 270.7C912.556 271.35 912.445 271.995 912.29 272.63V272.63Z" fill="black"/>
        </g>
        <path opacity="0.1" d="M132.73 838.88C186.545 838.88 230.17 831.873 230.17 823.23C230.17 814.587 186.545 807.58 132.73 807.58C78.9153 807.58 35.29 814.587 35.29 823.23C35.29 831.873 78.9153 838.88 132.73 838.88Z" fill="#676CA2"/>
        <path d="M135.87 523.42H129.6V664.59H135.87V523.42Z" fill="#535461"/>
        <path d="M175.28 664.17L174.88 670.53L174.33 679.53L174.1 683.27L173.54 692.27L173.3 696.01L172.75 705.01L166.42 807.08C166.15 811.472 164.215 815.595 161.01 818.609C157.804 821.623 153.57 823.301 149.17 823.3H116.3C111.888 823.302 107.643 821.615 104.435 818.586C101.227 815.557 99.3004 811.415 99.05 807.01L92.72 704.94L92.17 695.94L91.94 692.2L91.37 683.2L91.14 679.46L90.59 670.46L90.19 664.1C90.1208 662.881 90.3004 661.661 90.7178 660.513C91.1352 659.366 91.7818 658.315 92.6181 657.425C93.4544 656.536 94.463 655.826 95.5825 655.338C96.702 654.851 97.909 654.596 99.13 654.59H166.35C167.576 654.597 168.788 654.855 169.912 655.347C171.035 655.839 172.046 656.556 172.882 657.453C173.718 658.35 174.362 659.409 174.775 660.564C175.187 661.719 175.359 662.946 175.28 664.17V664.17Z" fill="#3F3D56"/>
        <path d="M174.88 670.52L174.32 679.5H91.14L90.58 670.52H174.88Z" fill="#9D9CB5"/>
        <path d="M174.09 683.24L173.54 692.22H91.93L91.37 683.24H174.09Z" fill="#9D9CB5"/>
        <path d="M173.3 695.97L172.75 704.94H92.72L92.16 695.97H173.3Z" fill="#9D9CB5"/>
        <path d="M81.05 576.34C117.57 602.76 132.78 644.08 132.78 644.08C132.78 644.08 88.78 642.57 52.25 616.15C15.72 589.73 0.48999 548.44 0.48999 548.44C0.48999 548.44 44.49 549.92 81.05 576.34Z" fill="#676CA2"/>
        <path d="M0.48999 548.44C0.48999 548.44 46.16 573.79 60.81 594.78C75.46 615.77 132.74 644.1 132.74 644.1" stroke="#535461" stroke-width="2" stroke-miterlimit="10"/>
        <path d="M104.58 523.12C124.46 537.49 132.74 559.98 132.74 559.98C132.74 559.98 108.74 559.16 88.91 544.79C69.08 530.42 60.75 507.92 60.75 507.92C60.75 507.92 84.71 508.74 104.58 523.12Z" fill="#676CA2"/>
        <path d="M60.75 507.92C60.75 507.92 85.61 521.72 93.59 533.14C101.57 544.56 132.74 559.98 132.74 559.98" stroke="#535461" stroke-width="2" stroke-miterlimit="10"/>
        <path d="M161.62 558.84C138.79 583.93 133.96 616.72 133.96 616.72C133.96 616.72 166.15 608.82 188.96 583.72C211.77 558.62 216.62 525.84 216.62 525.84C216.62 525.84 184.45 533.75 161.62 558.84Z" fill="#676CA2"/>
        <path d="M216.64 525.85C216.64 525.85 186.9 551.57 179.34 569.29C171.78 587.01 133.96 616.72 133.96 616.72" stroke="#535461" stroke-width="2" stroke-miterlimit="10"/>
    </g>
    <defs>
        <linearGradient id="paint0_linear" x1="190279" y1="541351" x2="190279" y2="162729" gradientUnits="userSpaceOnUse">
            <stop stop-color="#808080" stop-opacity="0.25"/>
            <stop offset="0.54" stop-color="#808080" stop-opacity="0.12"/>
            <stop offset="1" stop-color="#808080" stop-opacity="0.1"/>
        </linearGradient>
        <clipPath id="clip0">
            <rect width="1167.61" height="862.87" fill="white"/>
        </clipPath>
    </defs>
</svg>
