<svg width="655" height="683" viewBox="0 0 655 683" fill="none" xmlns="http://www.w3.org/2000/svg">
    <g clip-path="url(#clip0)">
        <path d="M620 635.614C620 661.294 481.21 682.114 310 682.114C138.79 682.114 0 661.294 0 635.614C0 617.434 69.57 601.684 170.96 594.044C212.77 590.884 260.01 589.114 310 589.114C330.55 589.114 350.63 589.414 370.05 589.984C512.52 594.184 620 613.013 620 635.614Z" fill="#3F3D56"/>
        <path opacity="0.1" d="M270 645.114C335.722 645.114 389 638.622 389 630.614C389 622.605 335.722 616.114 270 616.114C204.278 616.114 151 622.605 151 630.614C151 638.622 204.278 645.114 270 645.114Z" fill="black"/>
        <path d="M269.5 641.114C331.632 641.114 382 587.388 382 521.114C382 454.839 331.632 401.114 269.5 401.114C207.368 401.114 157 454.839 157 521.114C157 587.388 207.368 641.114 269.5 641.114Z" fill="#3F3D56"/>
        <path d="M396.5 607.614L392.5 629.614L418.5 633.614L435.5 623.614L434.5 607.614H396.5Z" fill="#575A89"/>
        <path d="M265.5 194.614C265.5 194.614 263.5 217.614 258.5 218.614C253.5 219.614 269.5 259.614 269.5 259.614H293.5L312.5 254.614L303.5 232.614C303.5 232.614 291.5 216.614 300.5 203.614C309.5 190.614 265.5 194.614 265.5 194.614Z" fill="#A0616A"/>
        <path opacity="0.1" d="M265.5 194.614C265.5 194.614 263.5 217.614 258.5 218.614C253.5 219.614 269.5 259.614 269.5 259.614H293.5L312.5 254.614L303.5 232.614C303.5 232.614 291.5 216.614 300.5 203.614C309.5 190.614 265.5 194.614 265.5 194.614Z" fill="black"/>
        <path d="M215.5 370.614C215.5 370.614 189.5 420.614 210.5 430.614C231.5 440.614 236.5 439.614 236.5 442.614C236.5 445.614 232.5 444.614 234.5 449.614C236.5 454.614 230.5 474.614 236.5 486.614C242.5 498.614 240.5 507.614 240.5 507.614C240.5 507.614 240.5 508.614 242.5 512.614C244.5 516.614 245.5 519.614 244.5 521.614C243.5 523.614 237.5 536.614 243.5 539.614C249.5 542.614 280.5 544.614 283.5 539.614C286.5 534.614 280.5 531.614 283.5 528.614C286.5 525.614 288.5 524.614 286.5 522.614C284.5 520.614 282.5 495.614 282.5 495.614C282.5 495.614 287.5 466.614 285.5 462.614C283.5 458.614 280.5 454.614 282.5 451.614C284.5 448.614 286.5 449.614 287.5 445.614C288.5 441.614 290.5 432.614 290.5 432.614L301.5 431.614L327.5 436.614C327.5 436.614 356.5 468.614 388.5 478.614C388.5 478.614 397.5 487.614 400.5 487.614C403.5 487.614 403.5 487.614 402.5 489.614C401.5 491.614 398.5 491.614 400.5 493.614C402.5 495.614 405.5 492.614 403.5 495.614C401.5 498.614 399.5 498.614 401.5 500.614C403.5 502.614 400.5 513.614 400.5 514.614C400.5 515.614 391.5 609.614 394.5 611.614C397.5 613.614 439.5 619.614 442.5 611.614C445.5 603.614 440.5 593.614 440.5 593.614C440.5 593.614 455.5 473.614 451.5 465.614C447.5 457.614 433.5 421.614 358.5 398.614C358.5 398.614 337.5 394.614 337.5 391.614C337.5 388.614 335.5 369.614 331.5 368.614C327.5 367.614 304.5 366.614 304.5 366.614L275.5 375.614L235.5 368.614L215.5 370.614Z" fill="#2F2E41"/>
        <path d="M396.5 624.614C396.5 624.614 391.5 619.614 390.5 624.614C389.5 629.614 385.5 650.614 392.5 651.614C399.5 652.614 466.5 662.614 473.5 658.614C480.5 654.614 493.5 648.614 485.5 645.614C477.5 642.614 454.5 633.614 454.5 633.614C454.5 633.614 441.5 616.614 439.5 615.614C437.5 614.614 426.5 616.614 421.5 620.614C416.5 624.614 396.5 624.614 396.5 624.614Z" fill="#2F2E41"/>
        <path d="M289.5 215.614C306.621 215.614 320.5 201.734 320.5 184.614C320.5 167.493 306.621 153.614 289.5 153.614C272.379 153.614 258.5 167.493 258.5 184.614C258.5 201.734 272.379 215.614 289.5 215.614Z" fill="#A0616A"/>
        <path d="M286.5 254.614L274.5 241.614L261.199 215.614C261.199 215.614 251.5 212.614 249.5 217.614C247.5 222.614 211.5 238.614 211.5 238.614C211.5 238.614 220.5 322.614 216.5 330.614C212.5 338.614 205.5 370.614 211.5 373.614C217.5 376.614 245.5 373.614 254.5 377.614C263.5 381.614 289.5 381.614 296.5 376.614C303.5 371.614 305.5 367.614 312.5 370.614C318.459 373.168 332.391 285.853 336.402 259.833C336.74 257.647 336.459 255.411 335.592 253.377C334.724 251.343 333.305 249.592 331.494 248.323C322.521 242.029 306.361 231.183 303.5 232.614C299.5 234.614 286.5 254.614 286.5 254.614Z" fill="#575A89"/>
        <path d="M329.5 250.614C331.848 251.201 333.961 252.492 335.553 254.315C337.146 256.137 338.143 258.404 338.411 260.809L346.5 333.614C346.5 333.614 326.5 376.614 316.5 347.614C306.5 318.614 329.5 250.614 329.5 250.614Z" fill="#575A89"/>
        <path d="M327.5 340.614L349.5 334.614C349.5 334.614 353.5 362.614 357.5 362.614C361.5 362.614 343.5 378.614 334.5 376.614C325.5 374.614 312.5 367.614 311.5 362.614C310.5 357.614 320.5 336.614 320.5 336.614L327.5 340.614Z" fill="#575A89"/>
        <path d="M266.098 197.987C268.206 193.339 267.84 187.917 269.583 183.12C270.516 180.551 272.03 178.233 274.008 176.347C275.985 174.461 278.372 173.057 280.981 172.245C283.591 171.434 286.353 171.237 289.051 171.67C291.749 172.102 294.311 173.153 296.536 174.739C298.778 176.338 301.025 178.583 303.762 178.278C306.708 177.95 309.337 174.662 312.046 175.867C315.049 177.202 314.238 182.584 317.28 183.827C318.881 184.481 320.773 183.474 321.697 182.011C322.505 180.474 322.945 178.771 322.983 177.035C323.402 172.77 323.782 168.256 321.932 164.39C321.154 163.08 320.476 161.712 319.904 160.3C319.58 158.981 319.45 157.622 319.518 156.266C319.501 151.253 319.135 146.024 316.613 141.691C313.813 136.884 308.638 133.81 303.239 132.469C297.84 131.128 292.184 131.334 286.641 131.803C277.478 132.579 267.922 134.241 260.703 139.938C259.721 140.655 258.877 141.542 258.209 142.557C257.576 143.764 257.128 145.059 256.881 146.399C255.32 152.755 252.98 158.894 249.914 164.676C248.438 167.127 247.233 169.731 246.318 172.441C245.553 175.196 245.604 178.335 247.207 180.702C248.512 182.63 250.597 183.657 252.236 185.233C253.86 186.794 254.62 189.797 256.419 190.979C257.989 192.012 259.87 191.283 261.472 192.377C263.528 193.782 263.676 196.861 266.098 197.987Z" fill="#2F2E41"/>
        <path d="M291.5 269.614L294.5 263.614C294.5 263.614 338.5 276.614 347.5 288.614C347.5 288.614 369.5 274.614 381.5 276.614L393.5 278.614L356.5 311.614L309.5 307.614L291.5 269.614Z" fill="#F2F2F2"/>
        <path d="M289.5 263.614L248.5 320.614L307.5 349.614C307.5 349.614 313.016 352.614 317.258 349.614L356.5 331.614L393.5 278.614L356.5 297.614C356.5 297.614 352.5 289.614 344.5 293.614L289.5 263.614Z" fill="#3ABDB2"/>
        <path d="M352.5 364.614L360.5 343.614C360.5 343.614 378.5 320.614 368.5 309.614C358.5 298.614 347.5 341.614 347.5 341.614L352.5 364.614Z" fill="#A0616A"/>
        <path d="M260.198 361.262L277.654 347.11C277.654 347.11 304.764 336.245 301.632 321.713C298.501 307.18 267.412 338.858 267.412 338.858L260.198 361.262Z" fill="#A0616A"/>
        <path opacity="0.1" d="M217 260.114H216C216 260.114 200.5 241.614 197.5 266.614C194.5 291.614 184.5 374.614 210.5 377.614C236.5 380.614 255 365.114 255 365.114C255 365.114 274 336.114 267 336.114C263.613 336.114 254.402 334.592 246 335.114C237.037 335.67 228.984 338.194 229.5 335.614C230.5 330.614 245 267.114 217 260.114Z" fill="black"/>
        <path d="M215.5 240.614L211.5 238.614C211.5 238.614 195.5 241.614 192.5 266.614C189.5 291.614 179.5 374.614 205.5 377.614C231.5 380.614 266.5 373.614 266.5 373.614C266.5 373.614 273.5 335.614 266.5 335.614C259.5 335.614 223.5 340.614 224.5 335.614C225.5 330.614 243.5 247.614 215.5 240.614Z" fill="#575A89"/>
        <path d="M338 353.114L349.027 336.213L356 364.114L338 372.114V353.114Z" fill="#575A89"/>
        <path d="M271 676C299.167 676 322 672.642 322 668.5C322 664.358 299.167 661 271 661C242.833 661 220 664.358 220 668.5C220 672.642 242.833 676 271 676Z" fill="url(#paint0_linear)"/>
        <path d="M342 568C340.333 567.022 338.667 565.978 337 565C337.981 565.069 338.937 565.373 339.801 565.891C340.664 566.41 341.415 567.129 342 568V568Z" fill="#3ABDB2"/>
        <path d="M264 673C287.748 673 307 653.524 307 629.5C307 605.476 287.748 586 264 586C240.252 586 221 605.476 221 629.5C221 653.524 240.252 673 264 673Z" fill="#3ABDB2"/>
        <path d="M264 673C287.748 673 307 653.524 307 629.5C307 605.476 287.748 586 264 586C240.252 586 221 605.476 221 629.5C221 653.524 240.252 673 264 673Z" fill="url(#paint1_linear)"/>
        <path d="M284 659.46L289.39 638.522L299.96 628L305.999 632.224C305.999 632.224 306.392 651.433 291.157 662L284 659.46Z" fill="url(#paint2_linear)"/>
        <path d="M251.506 646.528L269 664.242L263.904 673C263.904 673 241.785 669.101 235 660.343L238.894 644L251.506 646.528Z" fill="url(#paint3_linear)"/>
        <path d="M221.538 622L235.653 632.699L241 648.137L236.041 662C236.041 662 221.538 653.41 220 632.317L221.538 622Z" fill="url(#paint4_linear)"/>
        <path d="M278.894 611.582L276 627.831L289.49 638L302 628.214L296.031 611L278.894 611.582Z" fill="#3ABDB2"/>
        <path d="M250 601.297L242.318 623.205L233.345 629L223.003 622.2C223.003 622.2 222.257 603.101 243.406 595L250 601.297Z" fill="url(#paint5_linear)"/>
        <path d="M279 612.226L276.151 627.977L253.054 631L244 620.676L249.636 601.131L264.911 599C269.945 603.049 274.655 607.471 279 612.226V612.226Z" fill="url(#paint6_linear)"/>
        <path d="M296 602.697L294.183 611.5L280.659 612L263 597.03L266.468 589C286.489 589.545 296 602.697 296 602.697Z" fill="url(#paint7_linear)"/>
        <path d="M267 588.514L265.083 599.119L250.806 603L240.589 599.806L240 595.11C240 595.11 252.104 582.797 267 588.514Z" fill="#3ABDB2"/>
        <path d="M231 629.392L243.908 621L257 632.454L253.681 650L236.873 648.865L231 629.392Z" fill="#3ABDB2"/>
        <path d="M302 628.219L289.468 638L276 627.837L278.79 611.888L278.835 611.612L281.037 611.551L294.505 611.046L296.043 611L302 628.219Z" fill="#2F2E41"/>
        <path d="M267 588.514L265.083 599.119L250.806 603L240.589 599.806L240 595.11C240 595.11 252.104 582.797 267 588.514Z" fill="url(#paint8_linear)"/>
        <path d="M231 629.392L243.908 621L257 632.454L253.681 650L236.873 648.865L231 629.392Z" fill="#2F2E41"/>
        <path opacity="0.6" d="M265 669.913L266.129 661.653L284.927 655L291 661.858C291 661.858 280.175 674.753 265 669.913Z" fill="#3ABDB2"/>
        <path d="M265 669.913L266.129 661.653L284.927 655L291 661.858C291 661.858 280.175 674.753 265 669.913Z" fill="url(#paint9_linear)"/>
        <path d="M250.5 538.614L245.5 556.614C245.5 556.614 241.5 585.614 246.5 592.614C250.427 598.112 257.44 604.844 270.444 606.026C274.089 606.36 277.739 605.44 280.79 603.419C283.841 601.397 286.11 598.395 287.223 594.908C287.372 594.491 287.465 594.055 287.5 593.614C287.5 591.614 284.5 567.614 284.5 567.614L279.5 542.614L278.5 535.614L250.5 538.614Z" fill="#2F2E41"/>
        <path d="M108.444 227C105.692 227 103.414 235.113 102.972 245.75H50.0278C49.5862 235.113 47.3077 227 44.5556 227C41.4874 227 39 237.074 39 249.5C39 261.926 41.4874 272 44.5556 272C47.3077 272 49.5862 263.887 50.0278 253.25H102.972C103.414 263.887 105.692 272 108.444 272C111.513 272 114 261.926 114 249.5C114 237.074 111.513 227 108.444 227Z" fill="#3ABDB2"/>
        <path d="M135.446 215.612C127.446 201.273 114.493 190.342 99.0139 184.865C83.5345 179.389 66.5897 179.742 51.3521 185.86C36.1146 191.977 23.6293 203.438 16.234 218.098C8.83875 232.758 7.04061 249.611 11.1763 265.501C15.312 281.392 25.0979 295.23 38.7017 304.424C52.3055 313.619 68.7944 317.54 85.0808 315.452C101.367 313.365 116.334 305.413 127.18 293.085C138.025 280.757 144.005 264.898 144 248.479C143.994 236.973 141.05 225.66 135.446 215.612V215.612ZM76.4787 310.592C64.2053 310.582 52.2101 306.935 42.0092 300.11C31.8084 293.285 23.8596 283.589 19.1676 272.248C14.4756 260.907 13.2509 248.429 15.6483 236.392C18.0457 224.355 23.9576 213.299 32.6369 204.621C41.3162 195.943 52.3732 190.033 64.4106 187.637C76.4479 185.242 88.9253 186.468 100.266 191.162C111.606 195.856 121.301 203.806 128.124 214.008C134.948 224.209 138.594 236.205 138.601 248.479C138.642 256.648 137.063 264.744 133.955 272.298C130.847 279.853 126.273 286.717 120.496 292.493C114.719 298.269 107.855 302.843 100.299 305.949C92.7439 309.056 84.6477 310.634 76.4787 310.592V310.592Z" fill="#3F3D56"/>
        <path d="M144 247.751C144.006 260.045 140.733 272.111 134.529 282.674C128.324 293.238 119.418 301.906 108.751 307.762C98.0853 313.618 86.0557 316.445 73.9347 315.943C61.8137 315.441 50.0517 311.63 39.8926 304.911C38.7314 301.993 37.765 299 37 295.951C48.5847 305.757 63.3047 310.936 78.393 310.517C93.4814 310.097 107.899 304.107 118.935 293.673C129.972 283.238 136.867 269.078 138.325 253.854C139.783 238.63 135.704 223.39 126.853 211C129.8 211.979 132.678 213.159 135.468 214.53C141.076 224.68 144.014 236.12 144 247.751V247.751Z" fill="#3ABDB2"/>
    </g>
    <path d="M453.5 60C419.586 60 392 87.8107 392 122C391.99 130.752 393.829 139.405 397.392 147.385C407.031 168.951 428.551 184 453.5 184C469.808 183.991 485.446 177.456 496.977 165.831C508.509 154.205 514.991 138.441 515 122C515 87.8108 487.409 60 453.5 60ZM504.383 146.924C499.739 156.546 492.506 164.659 483.509 170.337C474.513 176.016 464.114 179.031 453.5 179.04C429.525 179.04 408.984 163.927 400.763 142.653C398.215 136.071 396.911 129.066 396.92 122C396.92 90.5486 422.302 64.96 453.5 64.96C484.698 64.96 510.08 90.5486 510.08 122C510.091 130.637 508.142 139.163 504.383 146.924V146.924Z" fill="#3F3D56"/>
    <path d="M507 152.183C501.686 161.814 493.886 169.846 484.411 175.442C474.936 181.038 464.133 183.993 453.127 184C428.169 184 406.642 169.077 397 147.692C398.058 146.074 399.182 144.51 400.371 143C408.596 164.095 429.144 179.082 453.127 179.082C463.745 179.073 474.147 176.083 483.147 170.452C492.146 164.821 499.382 156.776 504.027 147.235C505.09 148.833 506.081 150.483 507 152.183Z" fill="#3ABDB2"/>
    <path d="M440.213 127.642C441.878 127.631 443.494 128.199 444.787 129.247C446.08 130.296 446.969 131.761 447.302 133.392C447.635 135.023 447.392 136.72 446.614 138.191C445.836 139.663 444.571 140.819 443.036 141.462C441.5 142.105 439.789 142.195 438.195 141.717C436.601 141.238 435.222 140.221 434.294 138.839C433.366 137.457 432.946 135.796 433.106 134.139C433.266 132.482 433.997 130.932 435.172 129.753C435.831 129.085 436.616 128.555 437.481 128.193C438.347 127.83 439.275 127.643 440.213 127.642V127.642ZM440.213 124.58C438.194 124.579 436.221 125.176 434.541 126.297C432.862 127.418 431.553 129.012 430.779 130.878C430.006 132.743 429.802 134.796 430.195 136.776C430.588 138.757 431.559 140.577 432.986 142.006C434.413 143.434 436.231 144.408 438.211 144.803C440.191 145.198 442.244 144.997 444.109 144.225C445.975 143.453 447.57 142.145 448.692 140.467C449.815 138.788 450.415 136.815 450.416 134.795C450.41 132.09 449.334 129.496 447.422 127.582C445.51 125.668 442.918 124.588 440.213 124.58V124.58ZM461.482 109.978C461.942 109.981 462.398 109.892 462.824 109.717C463.249 109.542 463.636 109.284 463.962 108.958C464.287 108.633 464.545 108.246 464.72 107.82C464.895 107.395 464.984 106.939 464.981 106.478C464.986 106.02 464.899 105.566 464.725 105.142C464.552 104.718 464.296 104.333 463.973 104.009C463.649 103.685 463.264 103.429 462.84 103.256C462.416 103.083 461.962 102.996 461.504 103C461.044 102.996 460.588 103.083 460.161 103.255C459.735 103.428 459.347 103.683 459.02 104.007C458.693 104.33 458.433 104.715 458.255 105.139C458.077 105.563 457.984 106.018 457.983 106.478C457.981 106.938 458.071 107.394 458.246 107.819C458.422 108.245 458.679 108.631 459.004 108.956C459.33 109.282 459.716 109.539 460.141 109.715C460.566 109.89 461.022 109.98 461.482 109.978V109.978ZM468.798 127.642C470.462 127.631 472.079 128.199 473.371 129.247C474.664 130.296 475.553 131.761 475.886 133.392C476.219 135.023 475.976 136.72 475.198 138.192C474.42 139.663 473.155 140.819 471.62 141.462C470.084 142.105 468.374 142.195 466.779 141.717C465.185 141.238 463.806 140.221 462.878 138.839C461.95 137.457 461.53 135.796 461.69 134.139C461.851 132.482 462.581 130.932 463.757 129.753C464.415 129.085 465.2 128.555 466.066 128.193C466.931 127.83 467.86 127.643 468.798 127.642V127.642ZM468.798 124.58C466.78 124.58 464.807 125.178 463.129 126.3C461.452 127.421 460.144 129.015 459.372 130.879C458.6 132.744 458.398 134.796 458.791 136.775C459.185 138.755 460.157 140.573 461.583 142C463.01 143.427 464.828 144.399 466.807 144.793C468.786 145.187 470.838 144.985 472.702 144.212C474.566 143.44 476.16 142.132 477.281 140.454C478.402 138.776 479 136.803 479 134.784C478.992 132.081 477.914 129.49 476.002 127.578C474.091 125.666 471.501 124.588 468.798 124.58V124.58Z" fill="#3ABDB2"/>
    <path d="M466.286 117.143H461.143L457.982 110.704C457.727 110.252 457.371 109.866 456.941 109.575C456.512 109.285 456.02 109.098 455.506 109.029C454.992 108.961 454.469 109.013 453.979 109.18C453.488 109.348 453.043 109.628 452.679 109.996L444.996 117.4C444.368 118.042 444.011 118.902 444 119.8C444 121.664 445.35 122.329 445.982 122.704C450.857 125.511 452.571 125.821 452.571 127.225V134.286C452.571 134.74 452.752 135.176 453.074 135.498C453.395 135.819 453.831 136 454.286 136C454.74 136 455.176 135.819 455.498 135.498C455.819 135.176 456 134.74 456 134.286V124.643C456 123.229 452.743 122.071 450.825 120.571L456.064 115.054C458.068 118.107 458.989 120.571 460.136 120.571H466.286C466.74 120.571 467.176 120.391 467.498 120.069C467.819 119.748 468 119.312 468 118.857C468 118.403 467.819 117.966 467.498 117.645C467.176 117.324 466.74 117.143 466.286 117.143L466.286 117.143Z" fill="#3ABDB2"/>
    <path d="M514.5 341C509.707 341 504.96 341.944 500.532 343.778C496.104 345.613 492.08 348.301 488.691 351.691C485.301 355.08 482.613 359.104 480.778 363.532C478.944 367.96 478 372.707 478 377.5C478 382.293 478.944 387.04 480.778 391.468C482.613 395.896 485.301 399.92 488.691 403.309C492.08 406.699 496.104 409.387 500.532 411.222C504.96 413.056 509.707 414 514.5 414C514.737 414 514.968 414 515.205 413.99C524.822 413.805 533.978 409.83 540.68 402.931C547.383 396.031 551.091 386.765 550.998 377.146C550.905 367.527 547.019 358.334 540.184 351.565C533.35 344.797 524.119 341 514.5 341V341ZM521.939 410.244C517.332 411.29 512.556 411.352 507.923 410.426C503.29 409.501 498.905 407.608 495.053 404.871C491.202 402.135 487.972 398.616 485.573 394.546C483.174 390.476 481.662 385.945 481.134 381.25C480.606 376.556 481.074 371.802 482.509 367.301C483.944 362.799 486.312 358.651 489.459 355.128C492.607 351.605 496.462 348.785 500.774 346.853C505.085 344.922 509.756 343.922 514.48 343.918H514.5C522.758 343.918 530.727 346.96 536.883 352.465C543.04 357.969 546.952 365.548 547.872 373.755C548.793 381.962 546.657 390.22 541.873 396.951C537.089 403.682 529.992 408.415 521.939 410.244V410.244Z" fill="#3F3D56"/>
    <path d="M522 410.256C519.887 411.728 517.627 412.979 515.257 413.99C515.02 414 514.788 414 514.551 414C505.505 414 496.78 410.661 490.064 404.629C483.348 398.597 479.118 390.3 478.192 381.343C477.266 372.386 479.71 363.406 485.051 356.139C490.391 348.872 498.25 343.834 507.106 342C509.649 342.459 512.137 343.179 514.531 344.147C509.8 344.151 505.123 345.148 500.806 347.073C496.489 348.999 492.629 351.809 489.477 355.321C486.326 358.833 483.955 362.967 482.518 367.454C481.082 371.94 480.612 376.678 481.141 381.357C481.67 386.036 483.184 390.552 485.586 394.609C487.988 398.665 491.223 402.172 495.079 404.9C498.935 407.627 503.326 409.514 507.965 410.437C512.604 411.36 517.387 411.298 522 410.256Z" fill="#3ABDB2"/>
    <path d="M532.742 376.015C531.755 375.966 530.779 376.24 529.964 376.797C529.148 377.354 528.537 378.163 528.223 379.1H524.576L521.914 371.092C521.815 370.792 521.625 370.531 521.369 370.346C521.113 370.16 520.805 370.061 520.489 370.061H520.461C520.141 370.065 519.83 370.174 519.577 370.37C519.323 370.566 519.14 370.839 519.055 371.148L514.883 385.711L509.98 356.258C509.924 355.917 509.751 355.606 509.492 355.377C509.233 355.148 508.903 355.016 508.558 355.001C508.213 354.987 507.873 355.092 507.596 355.299C507.319 355.505 507.122 355.801 507.037 356.136L502.068 379.1H496.5C496.102 379.1 495.721 379.258 495.439 379.539C495.158 379.821 495 380.202 495 380.6C495 380.998 495.158 381.38 495.439 381.661C495.721 381.943 496.102 382.101 496.5 382.101H503.25C503.584 382.101 503.908 381.99 504.172 381.784C504.435 381.578 504.622 381.29 504.703 380.966L508.209 363.881L513.018 392.753C513.073 393.089 513.242 393.397 513.496 393.623C513.75 393.85 514.074 393.983 514.415 394H514.499C514.825 394 515.142 393.893 515.402 393.697C515.663 393.501 515.852 393.226 515.943 392.912L520.602 376.634L522.074 381.069C522.174 381.368 522.365 381.628 522.621 381.813C522.876 381.998 523.183 382.099 523.498 382.101H528.289C528.575 382.859 529.061 383.527 529.695 384.032C530.33 384.537 531.088 384.862 531.892 384.971C532.695 385.08 533.513 384.971 534.259 384.654C535.006 384.337 535.652 383.824 536.131 383.169C536.61 382.515 536.903 381.743 536.98 380.936C537.056 380.128 536.914 379.315 536.566 378.582C536.219 377.85 535.681 377.224 535.007 376.772C534.334 376.32 533.551 376.059 532.742 376.015V376.015Z" fill="#3ABDB2"/>
    <defs>
        <linearGradient id="paint0_linear" x1="271.473" y1="644.843" x2="266.188" y2="935.52" gradientUnits="userSpaceOnUse">
            <stop stop-color="#010101" stop-opacity="0"/>
            <stop offset="0.95" stop-color="#010101"/>
        </linearGradient>
        <linearGradient id="paint1_linear" x1="33883.1" y1="37857.7" x2="39297.1" y2="34290.2" gradientUnits="userSpaceOnUse">
            <stop stop-color="white" stop-opacity="0"/>
            <stop offset="0.95" stop-color="white"/>
        </linearGradient>
        <linearGradient id="paint2_linear" x1="10918.1" y1="15255.8" x2="12009.7" y2="15653.3" gradientUnits="userSpaceOnUse">
            <stop stop-color="white" stop-opacity="0"/>
            <stop offset="0.95" stop-color="white"/>
        </linearGradient>
        <linearGradient id="paint3_linear" x1="16124.2" y1="13381.7" x2="15606.7" y2="14259.4" gradientUnits="userSpaceOnUse">
            <stop stop-color="white" stop-opacity="0"/>
            <stop offset="0.95" stop-color="white"/>
        </linearGradient>
        <linearGradient id="paint4_linear" x1="9715.15" y1="17771.6" x2="8929.29" y2="18368.4" gradientUnits="userSpaceOnUse">
            <stop stop-color="white" stop-opacity="0"/>
            <stop offset="0.95" stop-color="white"/>
        </linearGradient>
        <linearGradient id="paint5_linear" x1="12431" y1="15277.9" x2="12594.5" y2="13973.3" gradientUnits="userSpaceOnUse">
            <stop stop-color="white" stop-opacity="0"/>
            <stop offset="0.95" stop-color="white"/>
        </linearGradient>
        <linearGradient id="paint6_linear" x1="16649.2" y1="14470.7" x2="16761.4" y2="13233.5" gradientUnits="userSpaceOnUse">
            <stop stop-color="white" stop-opacity="0"/>
            <stop offset="0.95" stop-color="white"/>
        </linearGradient>
        <linearGradient id="paint7_linear" x1="16100" y1="10510.5" x2="16156.1" y2="9699.15" gradientUnits="userSpaceOnUse">
            <stop stop-color="white" stop-opacity="0"/>
            <stop offset="0.95" stop-color="white"/>
        </linearGradient>
        <linearGradient id="paint8_linear" x1="12464.5" y1="6731.8" x2="13883.1" y2="10182.7" gradientUnits="userSpaceOnUse">
            <stop stop-color="#010101" stop-opacity="0"/>
            <stop offset="0.95" stop-color="#010101"/>
        </linearGradient>
        <linearGradient id="paint9_linear" x1="12612.7" y1="7684.44" x2="13025.2" y2="8706.65" gradientUnits="userSpaceOnUse">
            <stop stop-color="#010101" stop-opacity="0"/>
            <stop offset="0.95" stop-color="#010101"/>
        </linearGradient>
        <clipPath id="clip0">
            <rect width="654.237" height="682.114" fill="white"/>
        </clipPath>
    </defs>
</svg>
